<svg id="Capa_1" data-name="Capa 1" xmlns="http://www.w3.org/2000/svg" viewBox="0 0 73.92 84.92"><defs><style>.cls-1{fill:#fff;}.cls-2{fill:#5cb886;}.cls-3{fill:#0faa6d;}</style></defs><title>Sin título-1</title><path class="cls-1" d="M17.3,68a2.82,2.82,0,0,1-.83,2.18A3.36,3.36,0,0,1,14.1,71H13.46v2.8H11.18V65.36H14.1a3.57,3.57,0,0,1,2.4.7A2.49,2.49,0,0,1,17.3,68Zm-3.84,1.1h0.42a1.14,1.14,0,0,0,.82-0.29,1,1,0,0,0,.3-0.8A0.8,0.8,0,0,0,14,67.2H13.46v1.94Z"/><path class="cls-1" d="M22.18,73.8l-0.43-.87h0a2.56,2.56,0,0,1-.93.77,3.06,3.06,0,0,1-1.22.21,1.92,1.92,0,0,1-1.45-.55,2.16,2.16,0,0,1-.53-1.56,1.77,1.77,0,0,1,.73-1.56,4,4,0,0,1,2.11-.57l1.09,0V69.55a0.71,0.71,0,0,0-.8-0.81,4.77,4.77,0,0,0-1.82.48l-0.65-1.49a6.27,6.27,0,0,1,2.88-.59,2.8,2.8,0,0,1,1.95.62,2.23,2.23,0,0,1,.69,1.74V73.8H22.18Zm-1.67-1.48a1,1,0,0,0,.7-0.26,0.86,0.86,0,0,0,.29-0.67V70.88L21,70.9q-1.11,0-1.11.82A0.55,0.55,0,0,0,20.51,72.32Z"/><path class="cls-1" d="M26.75,73.92A2,2,0,0,1,25,73a5.21,5.21,0,0,1,0-5,2,2,0,0,1,1.74-.9,2,2,0,0,1,1.78.92h0l0.17-.81h2v9.38H28.48V73.93c0-.13,0-0.45.07-1H28.48A1.86,1.86,0,0,1,26.75,73.92Zm0.92-1.75a0.87,0.87,0,0,0,.75-0.32,1.87,1.87,0,0,0,.23-1.07V70.5a2.41,2.41,0,0,0-.24-1.24,0.85,0.85,0,0,0-.78-0.37q-0.93,0-.93,1.68a2.37,2.37,0,0,0,.24,1.22A0.81,0.81,0,0,0,27.67,72.17Z"/><path class="cls-1" d="M36.36,73.8L36.07,73H35.94a1.84,1.84,0,0,1-.79.69,2.75,2.75,0,0,1-1.19.24,2.21,2.21,0,0,1-1.68-.63,2.46,2.46,0,0,1-.6-1.77V67.26h2.26v3.57a2.06,2.06,0,0,0,.18,1,0.63,0.63,0,0,0,.6.33,0.87,0.87,0,0,0,.83-0.46,3.5,3.5,0,0,0,.25-1.55V67.26h2.26V73.8h-1.7Z"/><path class="cls-1" d="M42.18,73.92A3.51,3.51,0,0,1,39.65,73a3.27,3.27,0,0,1-.9-2.47A3.56,3.56,0,0,1,39.58,68,3.13,3.13,0,0,1,42,67.15a3.17,3.17,0,0,1,2.28.77,2.93,2.93,0,0,1,.8,2.22v1H41a1.12,1.12,0,0,0,.4.86,1.57,1.57,0,0,0,1,.31,5,5,0,0,0,1.09-.11,5.31,5.31,0,0,0,1.08-.38v1.62a4,4,0,0,1-1.1.38A7.58,7.58,0,0,1,42.18,73.92ZM42,68.68a0.94,0.94,0,0,0-.67.25,1.18,1.18,0,0,0-.31.79H43A1.13,1.13,0,0,0,42.74,69,0.89,0.89,0,0,0,42,68.68Z"/><path class="cls-1" d="M48.94,72.13A3.35,3.35,0,0,0,50,71.91v1.64a4.44,4.44,0,0,1-.87.28,4.84,4.84,0,0,1-1,.08,2.11,2.11,0,0,1-1.64-.56,2.49,2.49,0,0,1-.5-1.71V69H45.27V68l1-.71L46.85,66h1.48v1.31h1.6V69h-1.6V71.5A0.55,0.55,0,0,0,48.94,72.13Z"/><path class="cls-1" d="M53.74,73.92A3.51,3.51,0,0,1,51.21,73a3.27,3.27,0,0,1-.9-2.47A3.56,3.56,0,0,1,51.14,68a3.13,3.13,0,0,1,2.39-.89,3.17,3.17,0,0,1,2.28.77,2.93,2.93,0,0,1,.8,2.22v1h-4A1.12,1.12,0,0,0,53,72a1.57,1.57,0,0,0,1,.31,5,5,0,0,0,1.09-.11,5.31,5.31,0,0,0,1.08-.38v1.62a4,4,0,0,1-1.1.38A7.58,7.58,0,0,1,53.74,73.92Zm-0.13-5.23a0.94,0.94,0,0,0-.67.25,1.18,1.18,0,0,0-.31.79h1.94A1.13,1.13,0,0,0,54.3,69,0.89,0.89,0,0,0,53.61,68.68Z"/><path class="cls-1" d="M62.35,71.79a1.86,1.86,0,0,1-.72,1.59,3.38,3.38,0,0,1-2.05.54,8.79,8.79,0,0,1-1.26-.08,5.33,5.33,0,0,1-1.1-.29V71.75a6.77,6.77,0,0,0,1.15.38,4.82,4.82,0,0,0,1.12.15q0.73,0,.73-0.33a0.38,0.38,0,0,0-.2-0.31,9.54,9.54,0,0,0-1.19-.53,3,3,0,0,1-1.26-.84,1.91,1.91,0,0,1-.36-1.19,1.65,1.65,0,0,1,.7-1.42,3.37,3.37,0,0,1,2-.51,5,5,0,0,1,1.21.14,7.21,7.21,0,0,1,1.18.41l-0.61,1.45a6.89,6.89,0,0,0-1-.34,3.14,3.14,0,0,0-.82-0.14q-0.55,0-.55.27a0.34,0.34,0,0,0,.19.29,10.28,10.28,0,0,0,1.12.48,4.28,4.28,0,0,1,1,.55,1.65,1.65,0,0,1,.5.64A2.23,2.23,0,0,1,62.35,71.79Z"/><path class="cls-2" d="M68.82,44.71C67.73,43,63,42,60.35,43.57c0,0,8.48-6.67,7.13-7.32C67,36,57.67,32,55.48,34.66l-4.64,4.63H49.67a57.93,57.93,0,0,0,7.05-8.5c0.08-.14.25-0.24,0.33-0.38,2.79-4.86-4.26-9.25-7.26-5.42V22.3a8.09,8.09,0,0,0-5-7.58V1.29h-6V14.72c-4,1.23-5,4.16-5,7.58v6.18A7.72,7.72,0,0,0,22.3,24.75a7.57,7.57,0,0,0-4.24-1.3,7.48,7.48,0,0,0-7.47,7c0,0.17,0,.34,0,0.51,0,0,0,0,0,0,0,3.91,1.93,7.32,4.88,8.32H10.8v5h44v-4h1.81l-0.5,19.5c1.08-.34,11.37-4.24,11.37-6s-3.53-3.76-3.53-3.76S69.9,46.47,68.82,44.71Zm-35-10.59v5.17H29A9.52,9.52,0,0,0,33.8,34.12Z"/><rect class="cls-2" x="10.8" y="47.29" width="44" height="5"/><rect class="cls-2" x="10.8" y="55.29" width="44" height="4"/><path class="cls-2" d="M30.63,20.39s-1.11-1.59-4.09-1.49a4.87,4.87,0,0,0-4.14,2.26,8.76,8.76,0,0,0,3.9.87A5.19,5.19,0,0,0,30.63,20.39Z"/><path class="cls-2" d="M56,24.44l0,0.07a7.17,7.17,0,0,0,3.19.71,4.24,4.24,0,0,0,3.54-1.34,3.85,3.85,0,0,0-3.34-1.22,4.06,4.06,0,0,0-3.21,1.59,8.69,8.69,0,0,0,.6-3,4.24,4.24,0,0,0-1.34-3.54,3.85,3.85,0,0,0-1.22,3.34A4,4,0,0,0,56,24.44Z"/><path class="cls-3" d="M63.95,50.1s6-3.63,4.87-5.39S63,42,60.35,43.57c0,0,8.48-6.67,7.13-7.32-0.52-.25-9.81-4.39-12-1.73l-5.81,4.77h6.64L56.1,59.74c1.08-.34,11.37-4.21,11.37-5.95S63.95,50.1,63.95,50.1Z"/><path class="cls-1" d="M55.42,45.23H11a0.9,0.9,0,0,1-.9-0.9V39.42a0.9,0.9,0,0,1,.9-0.9H55.42a0.9,0.9,0,0,1,.9.9v4.92A0.9,0.9,0,0,1,55.42,45.23Zm-43.57-1.8H54.53V40.31H11.85v3.12Z"/><path class="cls-1" d="M55.42,52.94H11a0.9,0.9,0,0,1-.9-0.9V47.12a0.9,0.9,0,0,1,.9-0.9H55.42a0.9,0.9,0,0,1,.9.9V52A0.9,0.9,0,0,1,55.42,52.94Zm-43.57-1.8H54.53V48H11.85v3.12Z"/><path class="cls-1" d="M55.42,60.64H11a0.9,0.9,0,0,1-.9-0.9V54.83a0.9,0.9,0,0,1,.9-0.9H55.42a0.9,0.9,0,0,1,.9.9v4.92A0.9,0.9,0,0,1,55.42,60.64Zm-43.57-1.8H54.53V55.73H11.85v3.12Z"/><path class="cls-1" d="M22.19,36.52a4.88,4.88,0,0,1-4.87-4.88,0.9,0.9,0,0,1,1.8,0,3.08,3.08,0,1,0,6.16,0,0.9,0.9,0,0,1,1.8,0A4.88,4.88,0,0,1,22.19,36.52Z"/><path class="cls-1" d="M15.62,40.43a0.89,0.89,0,0,1-.42-0.1A10.07,10.07,0,0,1,9.66,31c0-.25,0-0.44,0-0.62a8.36,8.36,0,0,1,12.55-6.74A8.36,8.36,0,0,1,34.77,30.4c0,0.19,0,.38,0,0.56a10.1,10.1,0,0,1-5.34,9.24,0.9,0.9,0,1,1-.87-1.57A8.24,8.24,0,0,0,33,31c0-.22,0-0.38,0-0.53a6.56,6.56,0,0,0-10.25-5,0.9,0.9,0,0,1-1,0,6.56,6.56,0,0,0-10.25,5c0,0.15,0,.31,0,0.46A8.37,8.37,0,0,0,16,38.73,0.9,0.9,0,0,1,15.62,40.43Z"/><path class="cls-1" d="M22.22,25.64a0.9,0.9,0,0,1-.9-0.9V18a0.9,0.9,0,0,1,1.8,0v6.7A0.9,0.9,0,0,1,22.22,25.64Z"/><path class="cls-1" d="M26.72,22.94l-0.48,0c-3-.2-4.21-0.93-4.33-1a0.9,0.9,0,0,1-.29-1.17A5.76,5.76,0,0,1,26.51,18c3.43-.12,4.8,1.8,4.85,1.88a0.9,0.9,0,0,1,0,1.07A6,6,0,0,1,26.72,22.94ZM22.4,21.16h0Zm1.51-.39a13.45,13.45,0,0,0,2.45.36,4.57,4.57,0,0,0,2.91-.74,5,5,0,0,0-2.7-.6A4.23,4.23,0,0,0,23.91,20.77Z"/><path class="cls-1" d="M43.58,40.31l-0.19,0a0.9,0.9,0,0,1-.69-1.07,52.49,52.49,0,0,1,5.4-13.66l0.27-.43a5.5,5.5,0,0,1,9.38,5.75l-0.26.43a52.86,52.86,0,0,1-7.19,8.73A0.9,0.9,0,0,1,49,38.78,50.8,50.8,0,0,0,56,30.38L56.19,30a3.71,3.71,0,0,0-6.32-3.87l-0.24.38a51.17,51.17,0,0,0-5.17,13.1A0.9,0.9,0,0,1,43.58,40.31Z"/><path class="cls-1" d="M51.71,33.37a3,3,0,0,1-2.52-4.72,0.9,0.9,0,0,1,1.49,1A1.24,1.24,0,1,0,52.75,31a0.9,0.9,0,0,1,1.49,1,3,3,0,0,1-1.93,1.29A3.13,3.13,0,0,1,51.71,33.37Z"/><path class="cls-1" d="M59.47,26.13H59.06a7.78,7.78,0,0,1-3.63-.86,0.9,0.9,0,0,1-.29-1.17,4.88,4.88,0,0,1,4.15-2.32c2.86-.09,4,1.43,4.11,1.6a0.9,0.9,0,0,1,0,1.07A5.1,5.1,0,0,1,59.47,26.13Zm-3.53-1.62h0Zm1.61-.4a12,12,0,0,0,1.64.21,3.63,3.63,0,0,0,2-.43,4.11,4.11,0,0,0-1.88-.34A3.38,3.38,0,0,0,57.55,24.11Z"/><path class="cls-1" d="M59.47,26.13H59.06a7.78,7.78,0,0,1-3.63-.86,0.9,0.9,0,0,1-.29-1.17,4.88,4.88,0,0,1,4.15-2.32c2.86-.09,4,1.43,4.11,1.6a0.9,0.9,0,0,1,0,1.07A5.1,5.1,0,0,1,59.47,26.13Zm-3.53-1.62h0Zm1.61-.4a12,12,0,0,0,1.64.21,3.63,3.63,0,0,0,2-.43,4.11,4.11,0,0,0-1.88-.34A3.38,3.38,0,0,0,57.55,24.11Z"/><path class="cls-1" d="M56,25.36a0.89,0.89,0,0,1-.42-0.11,4.88,4.88,0,0,1-2.32-4.15c-0.09-2.84,1.43-4,1.6-4.11a0.9,0.9,0,0,1,1.07,0,5.15,5.15,0,0,1,1.68,4.31A7.78,7.78,0,0,1,56.75,25,0.9,0.9,0,0,1,56,25.36Zm-0.62-6.19A4.05,4.05,0,0,0,55.05,21a3.38,3.38,0,0,0,.55,1.8,11.93,11.93,0,0,0,.21-1.64A3.65,3.65,0,0,0,55.39,19.17Z"/><path class="cls-1" d="M33.8,28.91a1,1,0,0,1-1-.9V22.3a8.8,8.8,0,0,1,5-8.2v-13A1,1,0,0,1,38.85.29h6.28a0.64,0.64,0,0,1,.66.79V14.17a9.13,9.13,0,0,1,5,8.13v3a1,1,0,0,1-2,0v-3a7.5,7.5,0,0,0-4.22-6.76,1.21,1.21,0,0,1-.78-0.82V2.29h-4V14.72a0.76,0.76,0,0,1-.41.85A6.6,6.6,0,0,0,34.8,22.3V28A1,1,0,0,1,33.8,28.91Z"/><path class="cls-1" d="M45.13,6.37H38.85a0.9,0.9,0,1,1,0-1.8h6.28A0.9,0.9,0,1,1,45.13,6.37Z"/><path class="cls-1" d="M49.62,23.2H33.46a0.9,0.9,0,1,1,0-1.8H49.62A0.9,0.9,0,1,1,49.62,23.2Z"/><path class="cls-1" d="M49.62,26.13H33.19a0.9,0.9,0,0,1,0-1.8H49.62A0.9,0.9,0,1,1,49.62,26.13Z"/></svg>