<svg id="Capa_1" data-name="Capa 1" xmlns="http://www.w3.org/2000/svg" viewBox="0 0 73.92 84.92"><defs><style>.cls-1{fill:#fff;}.cls-2{fill:#0faa6d;}.cls-3{fill:#5cb886;}</style></defs><title>Sin título-1</title><path class="cls-1" d="M14.57,73.8H12.28V70.36H9.63V73.8H7.34V65.36H9.63v3.13h2.65V65.36h2.29V73.8Z"/><path class="cls-1" d="M21.91,70.52A3.46,3.46,0,0,1,21,73a3.19,3.19,0,0,1-2.41.9A3.13,3.13,0,0,1,16.26,73a4,4,0,0,1,0-5,3.23,3.23,0,0,1,2.42-.89,3.45,3.45,0,0,1,1.7.41,2.8,2.8,0,0,1,1.14,1.17A3.79,3.79,0,0,1,21.91,70.52Zm-4.24,0a2.92,2.92,0,0,0,.22,1.28,0.78,0.78,0,0,0,.76.44,0.76,0.76,0,0,0,.74-0.44,3,3,0,0,0,.22-1.28,2.87,2.87,0,0,0-.22-1.26,0.87,0.87,0,0,0-1.5,0A2.8,2.8,0,0,0,17.68,70.52Z"/><path class="cls-1" d="M26.55,67.15a3.21,3.21,0,0,1,.56,0l0.13,0L27,69.35a3.29,3.29,0,0,0-.77-0.07,1.46,1.46,0,0,0-1.07.34,1.32,1.32,0,0,0-.33,1V73.8H22.61V67.26h1.68l0.35,1h0.11a2.26,2.26,0,0,1,.79-0.84A1.89,1.89,0,0,1,26.55,67.15Z"/><path class="cls-1" d="M31.69,73.8V70.23a2,2,0,0,0-.19-1,0.64,0.64,0,0,0-.6-0.33,0.87,0.87,0,0,0-.83.46,3.46,3.46,0,0,0-.25,1.56V73.8H27.56V67.26h1.7l0.28,0.81h0.13a1.79,1.79,0,0,1,.8-0.69,2.82,2.82,0,0,1,1.17-.23,2.23,2.23,0,0,1,1.69.63,2.46,2.46,0,0,1,.6,1.77V73.8H31.69Z"/><path class="cls-1" d="M38,73.92A3.51,3.51,0,0,1,35.51,73a3.27,3.27,0,0,1-.9-2.47A3.56,3.56,0,0,1,35.44,68a3.13,3.13,0,0,1,2.39-.89,3.17,3.17,0,0,1,2.28.77,2.93,2.93,0,0,1,.8,2.22v1h-4a1.12,1.12,0,0,0,.4.86,1.57,1.57,0,0,0,1,.31,5,5,0,0,0,1.09-.11,5.31,5.31,0,0,0,1.08-.38v1.62a4,4,0,0,1-1.1.38A7.58,7.58,0,0,1,38,73.92Zm-0.13-5.23a0.94,0.94,0,0,0-.67.25,1.18,1.18,0,0,0-.31.79h1.94A1.13,1.13,0,0,0,38.6,69,0.89,0.89,0,0,0,37.91,68.68Z"/><path class="cls-1" d="M45.87,73.8l-0.43-.87h0a2.56,2.56,0,0,1-.93.77,3.06,3.06,0,0,1-1.22.21,1.92,1.92,0,0,1-1.45-.55,2.16,2.16,0,0,1-.53-1.56A1.77,1.77,0,0,1,42,70.25a4,4,0,0,1,2.11-.57l1.09,0V69.55a0.71,0.71,0,0,0-.8-0.81,4.77,4.77,0,0,0-1.82.48l-0.65-1.49a6.27,6.27,0,0,1,2.88-.59,2.8,2.8,0,0,1,1.95.62,2.23,2.23,0,0,1,.69,1.74V73.8H45.87Zm-1.67-1.48a1,1,0,0,0,.7-0.26,0.86,0.86,0,0,0,.29-0.67V70.88l-0.52,0q-1.11,0-1.11.82A0.55,0.55,0,0,0,44.19,72.32Z"/><path class="cls-1" d="M50.4,73.92a2,2,0,0,1-1.22-.4,2.51,2.51,0,0,1-.81-1.17,5.2,5.2,0,0,1-.29-1.81A4.24,4.24,0,0,1,48.73,68a2,2,0,0,1,1.76-.9,2,2,0,0,1,1,.22,2.12,2.12,0,0,1,.75.74h0a10.82,10.82,0,0,1-.11-1.54V64.82h2.27v9h-1.7L52.23,73H52.14A1.91,1.91,0,0,1,50.4,73.92Zm0.92-1.78a0.84,0.84,0,0,0,.76-0.34,2.06,2.06,0,0,0,.24-1.05V70.56a2.29,2.29,0,0,0-.25-1.23A0.87,0.87,0,0,0,51.3,69a0.76,0.76,0,0,0-.69.42,2.38,2.38,0,0,0-.25,1.19,2.22,2.22,0,0,0,.25,1.16A0.79,0.79,0,0,0,51.33,72.13Z"/><path class="cls-1" d="M61.62,70.52a3.46,3.46,0,0,1-.86,2.5,3.19,3.19,0,0,1-2.41.9A3.13,3.13,0,0,1,56,73a4,4,0,0,1,0-5,3.23,3.23,0,0,1,2.42-.89,3.45,3.45,0,0,1,1.7.41,2.8,2.8,0,0,1,1.14,1.17A3.79,3.79,0,0,1,61.62,70.52Zm-4.24,0a2.92,2.92,0,0,0,.22,1.28,0.78,0.78,0,0,0,.76.44,0.76,0.76,0,0,0,.74-0.44,3,3,0,0,0,.22-1.28,2.87,2.87,0,0,0-.22-1.26,0.87,0.87,0,0,0-1.5,0A2.8,2.8,0,0,0,57.39,70.52Z"/><path class="cls-1" d="M67.37,71.79a1.86,1.86,0,0,1-.72,1.59,3.38,3.38,0,0,1-2.05.54,8.79,8.79,0,0,1-1.26-.08,5.33,5.33,0,0,1-1.1-.29V71.75a6.77,6.77,0,0,0,1.15.38,4.82,4.82,0,0,0,1.12.15q0.73,0,.73-0.33a0.38,0.38,0,0,0-.2-0.31,9.54,9.54,0,0,0-1.19-.53,3,3,0,0,1-1.26-.84,1.91,1.91,0,0,1-.36-1.19,1.65,1.65,0,0,1,.7-1.42,3.37,3.37,0,0,1,2-.51,5,5,0,0,1,1.21.14,7.21,7.21,0,0,1,1.18.41L66.7,69.16a6.89,6.89,0,0,0-1-.34,3.14,3.14,0,0,0-.82-0.14q-0.55,0-.55.27a0.34,0.34,0,0,0,.19.29,10.28,10.28,0,0,0,1.12.48,4.28,4.28,0,0,1,1,.55,1.65,1.65,0,0,1,.5.64A2.23,2.23,0,0,1,67.37,71.79Z"/><path class="cls-2" d="M63.07,55.35s7-2.17,9.75-6.36S65,39,65,39s7.93-2.5,7.85-4.42-12.89-2.79-19.53-.53-13.14-3-13.14-3Z"/><path class="cls-3" d="M52.41,31.2a4.77,4.77,0,0,0-5.57-.75l0,0.06-3.1-3.73-1.59,1.94L42,28.36a5.29,5.29,0,0,1,.1-4l0.11-.3a7.09,7.09,0,0,0-.38-1.81h0l8.82-7.66S61.79,5,52.8,1.25c-2.46-1-5.43.16-7.6,2.05l-18.54,16h-21A4.63,4.63,0,0,0,1.31,24a5.62,5.62,0,0,1,.06,4.18L1,28.94V41.29H6.33a9.21,9.21,0,0,0-.78,2.64A6.28,6.28,0,0,0,11.9,51a7.58,7.58,0,0,0,3.35-.79l0.54-.89c0,0.05,0,.1,0,0.16a7.74,7.74,0,0,0,1.42,3.69l0.09,0.06-1.55,0c-3.34,0-6.14-.57-6.9,2.5a1.24,1.24,0,0,0,1.3,1.51H21.36a1.24,1.24,0,0,0,1.3-.88l0,0.09a8.73,8.73,0,0,0,.94-0.28,5.67,5.67,0,0,0,5.21-2.93H62v-13H61.83Z"/><path class="cls-1" d="M21.36,58.29H10.17a2.3,2.3,0,0,1-1.83-.86A2.14,2.14,0,0,1,8,55.58c0.83-3.39,3.73-3.33,6.53-3.27l1.14,0a8.76,8.76,0,0,1-.4-1A8.58,8.58,0,0,1,11.9,52a7.23,7.23,0,0,1-7.29-8.11A3.6,3.6,0,0,1,5,42.29H0.9A1,1,0,0,1,0,41.23V28.94a0.94,0.94,0,0,1,.12-0.47l0.39-.69a4.55,4.55,0,0,0,0-3.35,1.36,1.36,0,0,1-.1-0.5,5.6,5.6,0,0,1,5.35-5.64h20.6L44.59,2.56c2.84-2.49,6.05-3.3,8.59-2.23,2.36,1,3.72,2.49,4,4.4C58,9.49,51.56,15.08,51.28,15.32l-8.38,7.27,0,0.07a4.71,4.71,0,0,1,.24,1.43,1,1,0,0,1,0,.3L43,24.71a4.58,4.58,0,0,0-.39,1.93L43,26.41a0.82,0.82,0,0,1,.73-0.12h0a0.83,0.83,0,0,1,.73.11l2.61,3a5.66,5.66,0,0,1,6,1.14l9.41,9.05a1,1,0,0,1,.42,1,0.51,0.51,0,0,0,0,.25V53.56c0,0.52-.83.73-1.36,0.73H29.37a6.41,6.41,0,0,1-5.72,2.91,1.84,1.84,0,0,0-.18.1c-0.07,0-.15.06-0.24,0.08A2.31,2.31,0,0,1,21.36,58.29ZM13.43,54.2c-2.33,0-3.25.29-3.63,1.84a0.14,0.14,0,0,0,0,.17,0.41,0.41,0,0,0,.34.09H21.36c0.08,0,.33,0,0.38-0.14a0.92,0.92,0,0,1,.78-0.67,1,1,0,0,1,.42,0h0a2.52,2.52,0,0,1,.68-0.11,5.06,5.06,0,0,0,4.4-2.5,1.13,1.13,0,0,1,.81-0.62H61V40.46l-9-8.59H51.82a3.88,3.88,0,0,0-4.38-.64,1,1,0,0,1-.4.18,1,1,0,0,1-.93-0.29l-2.37-2.85-0.86,1.05a0.95,0.95,0,0,1-1.62-.27l-0.13-.35A6.22,6.22,0,0,1,41.24,24l0-.08a3.38,3.38,0,0,0-.16-0.78C41,23,41,22.76,40.92,22.49a1,1,0,0,1,.17-0.81,1,1,0,0,1,.18-0.18L50,13.89c1.64-1.41,5.77-5.76,5.28-8.84-0.2-1.24-1.14-2.2-2.88-2.93-2.18-.92-4.84.41-6.61,2l-18.55,16a0.92,0.92,0,0,1-.62.2h-21a3.68,3.68,0,0,0-3.45,3.5,6.68,6.68,0,0,1,0,4.68,0.9,0.9,0,0,1,0,.17L2,29.19v11.1H6.33a0.94,0.94,0,0,1,.87,1.31A8.1,8.1,0,0,0,6.5,44a5.5,5.5,0,0,0,1.34,4.32,5.39,5.39,0,0,0,4.07,1.75,6.56,6.56,0,0,0,2.69-.57l0.4-.64a0.95,0.95,0,0,1,1.75.42s0,0.1,0,.12a6.79,6.79,0,0,0,1.15,3.12,0.95,0.95,0,0,1-.57,1.7H16.92c-0.81,0-1.67,0-2.47,0h-1Z"/><path class="cls-1" d="M61.83,41.63H27.14a0.95,0.95,0,0,1-.43-1.79l12.38-6.36A0.95,0.95,0,1,1,40,35.17l-8.89,4.56H59.52l-7.77-7.66a3.84,3.84,0,0,0-4.46-.68,0.95,0.95,0,0,1-.87-1.69,5.73,5.73,0,0,1,6.67,1L62.49,40A0.95,0.95,0,0,1,61.83,41.63Z"/><path class="cls-1" d="M61.83,55H28.7a0.95,0.95,0,0,1,0-1.9H60.88V41.7H28.09v2.43a0.95,0.95,0,1,1-1.9,0V40.75a1,1,0,0,1,.95-0.95H61.83a1,1,0,0,1,.95.95V54A1,1,0,0,1,61.83,55Z"/><path class="cls-1" d="M61.83,46.26H28.4a0.95,0.95,0,0,1,0-1.9H61.83A0.95,0.95,0,0,1,61.83,46.26Z"/><path class="cls-1" d="M61.83,50.89H30.61a0.95,0.95,0,1,1,0-1.9H61.83A0.95,0.95,0,0,1,61.83,50.89Z"/><path class="cls-1" d="M56.21,41.7a1,1,0,0,1-.66-0.26l-8.12-7.77a0.95,0.95,0,1,1,1.31-1.37l8.12,7.77A0.95,0.95,0,0,1,56.21,41.7Z"/><path class="cls-1" d="M44.77,37.67H42.68l-0.44,0a4.14,4.14,0,0,1-3.49-2.59,4.42,4.42,0,0,1,.66-4.53L43,26.2a1,1,0,0,1,1.46,0L48,30.53a4.42,4.42,0,0,1,.66,4.53,4.14,4.14,0,0,1-3.48,2.59Zm-1-9.37-2.85,3.45a2.53,2.53,0,0,0-.37,2.59,2.24,2.24,0,0,0,1.9,1.43H45a2.24,2.24,0,0,0,1.9-1.43,2.53,2.53,0,0,0-.37-2.59Z"/><path class="cls-1" d="M41.84,23.35a0.95,0.95,0,0,1-.63-1.66L50,14c1.64-1.42,5.78-5.79,5.28-8.88-0.2-1.24-1.14-2.2-2.88-2.93-2.62-1.1-5.72,1.36-6.61,2.14L27.15,20.64a0.95,0.95,0,0,1-1.25-1.43L44.58,2.87C47.51,0.3,50.72-.62,53.17.41s3.72,2.46,4,4.38C58,9.56,51.56,15.17,51.29,15.4l-8.82,7.72A1,1,0,0,1,41.84,23.35Z"/><path class="cls-1" d="M46.49,3.91s-0.06.08-.17,0.27a6.36,6.36,0,0,0-.39.83,7.84,7.84,0,0,0-.52,2.75c0,0.26,0,.51,0,0.76l0.1,0.73a10,10,0,0,0,.33,1.28,7.6,7.6,0,0,0,.33.88l0.14,0.33,0,0.07a0.95,0.95,0,1,1-1.76.72l0-.05-0.14-.4A9.29,9.29,0,0,1,44.12,11a11.69,11.69,0,0,1-.29-1.54l-0.06-.88c0-.3,0-0.61,0-0.92a9.36,9.36,0,0,1,.83-3.25,7.73,7.73,0,0,1,.54-1c0.15-.23.27-0.38,0.26-0.37A0.66,0.66,0,1,1,46.49,3.91Z"/><path class="cls-1" d="M40.8,8.65s-0.06.08-.17,0.27a6.36,6.36,0,0,0-.39.83,7.84,7.84,0,0,0-.52,2.75c0,0.26,0,.51,0,0.76L39.84,14a10,10,0,0,0,.33,1.28,7.6,7.6,0,0,0,.33.88l0.14,0.33,0,0.07a0.95,0.95,0,1,1-1.76.72l0-.05-0.14-.4a9.29,9.29,0,0,1-.32-1.05,11.69,11.69,0,0,1-.29-1.54l-0.06-.88c0-.3,0-0.61,0-0.92a9.36,9.36,0,0,1,.83-3.25,7.73,7.73,0,0,1,.54-1c0.15-.23.27-0.38,0.26-0.37A0.66,0.66,0,1,1,40.8,8.65Z"/><path class="cls-1" d="M11.9,52a7.22,7.22,0,0,1-7.29-8.14,9.05,9.05,0,0,1,8.78-7.94,7.21,7.21,0,0,1,7.33,6.91,0.95,0.95,0,1,1-1.9.09,5.27,5.27,0,0,0-5.43-5.1,7.11,7.11,0,0,0-6.9,6.24,5.47,5.47,0,0,0,1.32,4.3,5.4,5.4,0,0,0,4.08,1.75,6.68,6.68,0,0,0,2.93-.7,0.95,0.95,0,0,1,.84,1.7A8.59,8.59,0,0,1,11.9,52Z"/><path class="cls-1" d="M23.65,57.57a8.16,8.16,0,0,1-1.07-.07,0.95,0.95,0,1,1,.25-1.88,6.35,6.35,0,0,0,.82.05,5.4,5.4,0,0,0,4.08-1.75,5.47,5.47,0,0,0,1.32-4.3,7.11,7.11,0,0,0-6.9-6.24,5.4,5.4,0,0,0-4.08,1.75,5.47,5.47,0,0,0-1.32,4.3A6.81,6.81,0,0,0,18,52.66a0.95,0.95,0,1,1-1.54,1.1,8.7,8.7,0,0,1-1.59-4.14,7.22,7.22,0,0,1,7.29-8.14,9.05,9.05,0,0,1,8.78,7.94A7.22,7.22,0,0,1,23.65,57.57Z"/><path class="cls-1" d="M21.36,58.48H10.17a2.28,2.28,0,0,1-1.8-.88A2.24,2.24,0,0,1,8,55.68c0.85-3.44,3.83-3.4,6.7-3.35,0.73,0,1.51,0,2.23,0,2.88,0,5.86-.09,6.7,3.35a2.24,2.24,0,0,1-.42,1.93A2.28,2.28,0,0,1,21.36,58.48Zm-7.6-4.27c-2.57,0-3.56.27-4,1.91a0.35,0.35,0,0,0,.07.3,0.4,0.4,0,0,0,.31.15H21.36a0.4,0.4,0,0,0,.31-0.15,0.35,0.35,0,0,0,.07-0.3c-0.44-1.81-1.61-2-4.83-1.91-0.75,0-1.55,0-2.29,0H13.76Z"/><circle class="cls-1" cx="11.22" cy="46.49" r="1.39"/><circle class="cls-1" cx="12.84" cy="40.53" r="1.39"/><circle class="cls-1" cx="9.2" cy="42.65" r="1.39"/><circle class="cls-1" cx="21.25" cy="46.69" r="1.39"/><circle class="cls-1" cx="25.65" cy="47.24" r="1.39"/><circle class="cls-1" cx="25.41" cy="51.45" r="1.39"/><path class="cls-1" d="M24.87,42.29a1,1,0,0,1-.95-0.95V29.11l-0.15-.41A6.21,6.21,0,0,1,23.9,24l0-.05a3.41,3.41,0,0,0-3.4-3.22H5.71A3.46,3.46,0,0,0,2.26,24a6.29,6.29,0,0,1,.18,4.56l-0.18.52V40.4H5.93a0.95,0.95,0,0,1,0,1.9H1.31a1,1,0,0,1-.95-0.95V28.94a1,1,0,0,1,.05-0.31L0.64,28a4.38,4.38,0,0,0-.19-3.33,0.94,0.94,0,0,1-.09-0.41,5.36,5.36,0,0,1,5.35-5.35H20.52a5.31,5.31,0,0,1,5.3,5.3,1,1,0,0,1-.08.38l-0.11.25A4.33,4.33,0,0,0,25.55,28l0.21,0.57a1,1,0,0,1,.06.33V41.34A1,1,0,0,1,24.87,42.29Z"/><path class="cls-1" d="M42.21,29.88a1,1,0,0,1-.89-0.62l-0.21-.57A6.21,6.21,0,0,1,41.24,24l0-.05a3.41,3.41,0,0,0-3.4-3.22H8.75a0.95,0.95,0,0,1,0-1.9H37.86a5.31,5.31,0,0,1,5.3,5.3,1,1,0,0,1-.08.38L43,24.79A4.32,4.32,0,0,0,42.89,28l0.21,0.57a1,1,0,0,1-.56,1.22A1,1,0,0,1,42.21,29.88Zm0-5.72h0Z"/><path class="cls-1" d="M35.68,27.05H24.35a0.95,0.95,0,0,1,0-1.9H35.68A0.95,0.95,0,1,1,35.68,27.05Z"/></svg>