<svg id="Capa_1" data-name="Capa 1" xmlns="http://www.w3.org/2000/svg" viewBox="0 0 73.92 84.8"><defs><style>.cls-1{fill:#fff;}.cls-2{fill:#0faa6d;}.cls-3{fill:#5cb886;}</style></defs><title>Sin título-1</title><path class="cls-1" d="M4.34,73.8H2.06V67.23H0V65.36H6.39v1.86H4.34V73.8Z"/><path class="cls-1" d="M10.82,67.15a3.21,3.21,0,0,1,.56,0l0.13,0-0.2,2.13a3.29,3.29,0,0,0-.77-0.07,1.46,1.46,0,0,0-1.07.34,1.32,1.32,0,0,0-.33,1V73.8H6.88V67.26H8.55l0.35,1H9a2.26,2.26,0,0,1,.79-0.84A1.89,1.89,0,0,1,10.82,67.15Z"/><path class="cls-1" d="M16.09,73.8l-0.43-.87h0a2.56,2.56,0,0,1-.93.77,3.06,3.06,0,0,1-1.22.21A1.92,1.92,0,0,1,12,73.36a2.16,2.16,0,0,1-.53-1.56,1.77,1.77,0,0,1,.73-1.56,4,4,0,0,1,2.11-.57l1.09,0V69.55a0.71,0.71,0,0,0-.8-0.81,4.77,4.77,0,0,0-1.82.48l-0.65-1.49A6.27,6.27,0,0,1,15,67.15a2.8,2.8,0,0,1,1.95.62,2.23,2.23,0,0,1,.69,1.74V73.8H16.09Zm-1.67-1.48a1,1,0,0,0,.7-0.26,0.86,0.86,0,0,0,.29-0.67V70.88l-0.52,0q-1.11,0-1.11.82A0.55,0.55,0,0,0,14.42,72.32Z"/><path class="cls-1" d="M20.63,73.92a2,2,0,0,1-1.22-.4,2.51,2.51,0,0,1-.81-1.17,5.2,5.2,0,0,1-.29-1.81A4.24,4.24,0,0,1,19,68a2,2,0,0,1,1.76-.9,2,2,0,0,1,1,.22,2.12,2.12,0,0,1,.75.74h0a10.82,10.82,0,0,1-.11-1.54V64.82h2.27v9h-1.7L22.46,73H22.37A1.91,1.91,0,0,1,20.63,73.92Zm0.92-1.78a0.84,0.84,0,0,0,.76-0.34,2.06,2.06,0,0,0,.24-1.05V70.56a2.29,2.29,0,0,0-.25-1.23A0.87,0.87,0,0,0,21.53,69a0.76,0.76,0,0,0-.69.42,2.38,2.38,0,0,0-.25,1.19,2.22,2.22,0,0,0,.25,1.16A0.79,0.79,0,0,0,21.56,72.13Z"/><path class="cls-1" d="M25.56,65.63a1,1,0,0,1,.28-0.76,1.79,1.79,0,0,1,1.83,0,1,1,0,0,1,.29.75,1,1,0,0,1-1.21,1A1,1,0,0,1,25.56,65.63Zm2.31,8.17H25.62V67.26h2.26V73.8Z"/><path class="cls-1" d="M31.84,73.92A3.21,3.21,0,0,1,29.41,73a3.46,3.46,0,0,1-.83-2.49A3.41,3.41,0,0,1,29.47,68,3.45,3.45,0,0,1,32,67.15a4.78,4.78,0,0,1,2.14.5L33.5,69.31A7.17,7.17,0,0,0,32.74,69,2.43,2.43,0,0,0,32,68.92a1,1,0,0,0-.85.43,2.07,2.07,0,0,0-.3,1.21q0,1.57,1.16,1.57a3.51,3.51,0,0,0,1.9-.58v1.79A3.7,3.7,0,0,1,31.84,73.92Z"/><path class="cls-1" d="M34.6,65.63a1,1,0,0,1,.28-0.76,1.79,1.79,0,0,1,1.83,0,1,1,0,0,1,.29.75,1,1,0,0,1-1.21,1A1,1,0,0,1,34.6,65.63Zm2.31,8.17H34.65V67.26h2.26V73.8Z"/><path class="cls-1" d="M44.14,70.52a3.46,3.46,0,0,1-.86,2.5,3.19,3.19,0,0,1-2.41.9A3.13,3.13,0,0,1,38.49,73a4,4,0,0,1,0-5,3.23,3.23,0,0,1,2.42-.89,3.45,3.45,0,0,1,1.7.41,2.8,2.8,0,0,1,1.14,1.17A3.79,3.79,0,0,1,44.14,70.52Zm-4.24,0a2.92,2.92,0,0,0,.22,1.28,0.78,0.78,0,0,0,.76.44,0.76,0.76,0,0,0,.74-0.44,3,3,0,0,0,.22-1.28,2.87,2.87,0,0,0-.22-1.26,0.87,0.87,0,0,0-1.5,0A2.8,2.8,0,0,0,39.9,70.52Z"/><path class="cls-1" d="M49,73.8V70.23a2,2,0,0,0-.19-1,0.64,0.64,0,0,0-.6-0.33,0.87,0.87,0,0,0-.83.46,3.46,3.46,0,0,0-.25,1.56V73.8H44.83V67.26h1.7l0.28,0.81H47a1.79,1.79,0,0,1,.8-0.69,2.82,2.82,0,0,1,1.17-.23,2.23,2.23,0,0,1,1.69.63,2.46,2.46,0,0,1,.6,1.77V73.8H49Z"/><path class="cls-1" d="M56.42,73.8L56,72.93h0a2.56,2.56,0,0,1-.93.77,3.06,3.06,0,0,1-1.22.21,1.92,1.92,0,0,1-1.45-.55,2.16,2.16,0,0,1-.53-1.56,1.77,1.77,0,0,1,.73-1.56,4,4,0,0,1,2.11-.57l1.09,0V69.55a0.71,0.71,0,0,0-.8-0.81,4.77,4.77,0,0,0-1.82.48l-0.65-1.49a6.27,6.27,0,0,1,2.88-.59,2.8,2.8,0,0,1,1.95.62A2.23,2.23,0,0,1,58,69.51V73.8H56.42Zm-1.67-1.48a1,1,0,0,0,.7-0.26,0.86,0.86,0,0,0,.29-0.67V70.88l-0.52,0q-1.11,0-1.11.82A0.55,0.55,0,0,0,54.75,72.32Z"/><path class="cls-1" d="M61.19,73.8H58.93v-9h2.26v9Z"/><path class="cls-1" d="M65.32,73.92A3.51,3.51,0,0,1,62.78,73a3.27,3.27,0,0,1-.9-2.47A3.56,3.56,0,0,1,62.71,68a3.13,3.13,0,0,1,2.39-.89,3.17,3.17,0,0,1,2.28.77,2.93,2.93,0,0,1,.8,2.22v1h-4a1.12,1.12,0,0,0,.4.86,1.57,1.57,0,0,0,1,.31,5,5,0,0,0,1.09-.11,5.31,5.31,0,0,0,1.08-.38v1.62a4,4,0,0,1-1.1.38A7.58,7.58,0,0,1,65.32,73.92Zm-0.13-5.23a0.94,0.94,0,0,0-.67.25,1.18,1.18,0,0,0-.31.79h1.94A1.13,1.13,0,0,0,65.87,69,0.89,0.89,0,0,0,65.18,68.68Z"/><path class="cls-1" d="M73.92,71.79a1.86,1.86,0,0,1-.72,1.59,3.38,3.38,0,0,1-2.05.54,8.79,8.79,0,0,1-1.26-.08,5.33,5.33,0,0,1-1.1-.29V71.75a6.77,6.77,0,0,0,1.15.38,4.82,4.82,0,0,0,1.12.15q0.73,0,.73-0.33a0.38,0.38,0,0,0-.2-0.31,9.54,9.54,0,0,0-1.19-.53,3,3,0,0,1-1.26-.84,1.91,1.91,0,0,1-.36-1.19,1.65,1.65,0,0,1,.7-1.42,3.37,3.37,0,0,1,2-.51,5,5,0,0,1,1.21.14,7.21,7.21,0,0,1,1.18.41l-0.61,1.45a6.89,6.89,0,0,0-1-.34,3.14,3.14,0,0,0-.82-0.14q-0.55,0-.55.27a0.34,0.34,0,0,0,.19.29,10.28,10.28,0,0,0,1.12.48,4.28,4.28,0,0,1,1,.55,1.65,1.65,0,0,1,.5.64A2.23,2.23,0,0,1,73.92,71.79Z"/><path class="cls-2" d="M13.36,56.63L30.63,30.31l41.3-.89L63.81,42.29H25s-6.1,10-9.58,14.2C13.78,58.46,13.94,56.63,13.36,56.63Z"/><rect class="cls-3" x="13.49" y="8.07" width="50.29" height="27"/><path class="cls-1" d="M63.78,36.07H13.49a1,1,0,0,1-1-1v-27a1,1,0,0,1,1-1H63.78a1,1,0,0,1,1,1v27A1,1,0,0,1,63.78,36.07Zm-49.29-2H62.78v-25H14.49v25Z"/><path class="cls-1" d="M13.49,57.5a1,1,0,0,1-1-1V3.77a1,1,0,0,1,2,0V56.5A1,1,0,0,1,13.49,57.5Z"/><path class="cls-1" d="M13.49,36.07a1,1,0,0,1-1-1v-27a1,1,0,1,1,2,0v27A1,1,0,0,1,13.49,36.07Z"/><path class="cls-1" d="M46.7,36.07a1,1,0,0,1-1-1v-27a1,1,0,0,1,2,0v27A1,1,0,0,1,46.7,36.07Z"/><path class="cls-1" d="M63.31,36.07a1,1,0,0,1-1-1v-27a1,1,0,1,1,2,0v27A1,1,0,0,1,63.31,36.07Z"/><path class="cls-1" d="M30.1,36.07a1,1,0,0,1-1-1v-27a1,1,0,0,1,2,0v27A1,1,0,0,1,30.1,36.07Z"/><circle class="cls-3" cx="13.49" cy="3.77" r="2.77"/><path class="cls-1" d="M13.49,7.54a3.77,3.77,0,1,1,3.77-3.77A3.78,3.78,0,0,1,13.49,7.54Zm0-5.54a1.77,1.77,0,1,0,1.77,1.77A1.77,1.77,0,0,0,13.49,2Z"/><path class="cls-3" d="M41.72,21.47a3.4,3.4,0,0,1-6.8,0"/><path class="cls-1" d="M38.32,25.87a4.4,4.4,0,0,1-4.4-4.4,1,1,0,0,1,2,0,2.4,2.4,0,0,0,4.8,0,1,1,0,0,1,2,0A4.4,4.4,0,0,1,38.32,25.87Z"/></svg>