<svg id="Capa_1" data-name="Capa 1" xmlns="http://www.w3.org/2000/svg" viewBox="0 0 73.92 84.92"><defs><style>.cls-1{fill:#fff;}.cls-2{fill:#0faa6d;}.cls-3{fill:#5cb886;}</style></defs><title>Sin título-1</title><path class="cls-1" d="M14.61,73.8L14.2,72.22H11.46L11,73.8H8.53l2.75-8.47h3l2.79,8.47H14.61Zm-0.89-3.45L13.36,69c-0.08-.31-0.19-0.71-0.31-1.2s-0.2-.84-0.24-1q-0.05.29-.21,1t-0.68,2.66h1.79Z"/><path class="cls-1" d="M21.42,73.8V70.23a2,2,0,0,0-.19-1,0.64,0.64,0,0,0-.6-0.33,0.87,0.87,0,0,0-.83.46,3.46,3.46,0,0,0-.25,1.56V73.8H17.3V67.26H19l0.28,0.81h0.13a1.79,1.79,0,0,1,.8-0.69,2.82,2.82,0,0,1,1.17-.23,2.23,2.23,0,0,1,1.69.63,2.46,2.46,0,0,1,.6,1.77V73.8H21.42Z"/><path class="cls-1" d="M24.57,65.63a1,1,0,0,1,.28-0.76,1.79,1.79,0,0,1,1.83,0,1,1,0,0,1,.29.75,1,1,0,0,1-1.21,1A1,1,0,0,1,24.57,65.63Zm2.31,8.17H24.63V67.26h2.26V73.8Z"/><path class="cls-1" d="M35.9,73.8V70.25a2.12,2.12,0,0,0-.18-1,0.61,0.61,0,0,0-.57-0.33,0.81,0.81,0,0,0-.76.44,3,3,0,0,0-.24,1.39v3H31.88V70.25a2.23,2.23,0,0,0-.17-1,0.59,0.59,0,0,0-.56-0.33,0.81,0.81,0,0,0-.77.47,3.62,3.62,0,0,0-.24,1.55V73.8H27.87V67.26h1.7l0.28,0.81H30a1.68,1.68,0,0,1,.75-0.69,2.56,2.56,0,0,1,1.12-.24,2.2,2.2,0,0,1,2,.86H34a1.84,1.84,0,0,1,.77-0.63,2.56,2.56,0,0,1,1.09-.23,2.24,2.24,0,0,1,1.71.59,2.57,2.57,0,0,1,.55,1.81V73.8H35.9Z"/><path class="cls-1" d="M43.36,73.8l-0.43-.87h0a2.56,2.56,0,0,1-.93.77,3.06,3.06,0,0,1-1.22.21,1.92,1.92,0,0,1-1.45-.55,2.16,2.16,0,0,1-.53-1.56,1.77,1.77,0,0,1,.73-1.56,4,4,0,0,1,2.11-.57l1.09,0V69.55a0.71,0.71,0,0,0-.8-0.81,4.77,4.77,0,0,0-1.82.48l-0.65-1.49a6.27,6.27,0,0,1,2.88-.59,2.8,2.8,0,0,1,1.95.62,2.23,2.23,0,0,1,.69,1.74V73.8H43.36Zm-1.67-1.48a1,1,0,0,0,.7-0.26,0.86,0.86,0,0,0,.29-0.67V70.88l-0.52,0q-1.11,0-1.11.82A0.55,0.55,0,0,0,41.69,72.32Z"/><path class="cls-1" d="M48.13,73.8H45.87v-9h2.26v9Z"/><path class="cls-1" d="M52.26,73.92A3.51,3.51,0,0,1,49.72,73a3.27,3.27,0,0,1-.9-2.47A3.56,3.56,0,0,1,49.65,68,3.13,3.13,0,0,1,52,67.15a3.17,3.17,0,0,1,2.28.77,2.93,2.93,0,0,1,.8,2.22v1h-4a1.12,1.12,0,0,0,.4.86,1.57,1.57,0,0,0,1,.31,5,5,0,0,0,1.09-.11,5.31,5.31,0,0,0,1.08-.38v1.62a4,4,0,0,1-1.1.38A7.58,7.58,0,0,1,52.26,73.92Zm-0.13-5.23a0.94,0.94,0,0,0-.67.25,1.18,1.18,0,0,0-.31.79h1.94A1.13,1.13,0,0,0,52.81,69,0.89,0.89,0,0,0,52.12,68.68Z"/><path class="cls-1" d="M60.86,71.79a1.86,1.86,0,0,1-.72,1.59,3.38,3.38,0,0,1-2.05.54,8.79,8.79,0,0,1-1.26-.08,5.33,5.33,0,0,1-1.1-.29V71.75a6.77,6.77,0,0,0,1.15.38,4.82,4.82,0,0,0,1.12.15q0.73,0,.73-0.33a0.38,0.38,0,0,0-.2-0.31,9.54,9.54,0,0,0-1.19-.53,3,3,0,0,1-1.26-.84,1.91,1.91,0,0,1-.36-1.19,1.65,1.65,0,0,1,.7-1.42,3.37,3.37,0,0,1,2-.51,5,5,0,0,1,1.21.14,7.21,7.21,0,0,1,1.18.41L60.2,69.16a6.89,6.89,0,0,0-1-.34,3.14,3.14,0,0,0-.82-0.14q-0.55,0-.55.27a0.34,0.34,0,0,0,.19.29,10.28,10.28,0,0,0,1.12.48,4.28,4.28,0,0,1,1,.55,1.65,1.65,0,0,1,.5.64A2.23,2.23,0,0,1,60.86,71.79Z"/><path class="cls-1" d="M10,84.92a2,2,0,0,1-1.22-.4,2.51,2.51,0,0,1-.81-1.17,5.2,5.2,0,0,1-.29-1.81A4.24,4.24,0,0,1,8.28,79a2,2,0,0,1,1.76-.9,2,2,0,0,1,1,.22,2.12,2.12,0,0,1,.75.74h0a10.82,10.82,0,0,1-.11-1.54V75.82H14v9h-1.7L11.78,84H11.69A1.91,1.91,0,0,1,10,84.92Zm0.92-1.78a0.84,0.84,0,0,0,.76-0.34,2.06,2.06,0,0,0,.24-1.05V81.56a2.29,2.29,0,0,0-.25-1.23A0.87,0.87,0,0,0,10.85,80a0.76,0.76,0,0,0-.69.42,2.38,2.38,0,0,0-.25,1.19,2.22,2.22,0,0,0,.25,1.16A0.79,0.79,0,0,0,10.88,83.13Z"/><path class="cls-1" d="M18.09,84.92A3.51,3.51,0,0,1,15.55,84a3.27,3.27,0,0,1-.9-2.47A3.56,3.56,0,0,1,15.49,79a3.13,3.13,0,0,1,2.39-.89,3.17,3.17,0,0,1,2.28.77,2.93,2.93,0,0,1,.8,2.22v1h-4a1.12,1.12,0,0,0,.4.86,1.57,1.57,0,0,0,1,.31,5,5,0,0,0,1.09-.11,5.31,5.31,0,0,0,1.08-.38v1.62a4,4,0,0,1-1.1.38A7.58,7.58,0,0,1,18.09,84.92ZM18,79.68a0.94,0.94,0,0,0-.67.25,1.18,1.18,0,0,0-.31.79h1.94A1.13,1.13,0,0,0,18.64,80,0.89,0.89,0,0,0,18,79.68Z"/><path class="cls-1" d="M25.59,78.15a3.21,3.21,0,0,1,.56,0l0.13,0-0.2,2.13a3.29,3.29,0,0,0-.77-0.07,1.46,1.46,0,0,0-1.07.34,1.32,1.32,0,0,0-.33,1V84.8H21.65V78.26h1.68l0.35,1h0.11a2.26,2.26,0,0,1,.79-0.84A1.89,1.89,0,0,1,25.59,78.15Z"/><path class="cls-1" d="M26.55,76.63a1,1,0,0,1,.28-0.76,1.79,1.79,0,0,1,1.83,0,1,1,0,0,1,.29.75,1,1,0,0,1-1.21,1A1,1,0,0,1,26.55,76.63Zm2.31,8.17H26.61V78.26h2.26V84.8Z"/><path class="cls-1" d="M31.57,84.8l-2.49-6.54h2.35l1.11,3.87,0,0.1s0,0.1,0,.16,0,0.13,0,.2a1.47,1.47,0,0,1,0,.2h0a2.31,2.31,0,0,1,.1-0.65l1.16-3.88h2.35L33.8,84.8H31.57Z"/><path class="cls-1" d="M40.74,84.8l-0.43-.87h0a2.56,2.56,0,0,1-.93.77,3.06,3.06,0,0,1-1.22.21,1.92,1.92,0,0,1-1.45-.55,2.16,2.16,0,0,1-.53-1.56,1.77,1.77,0,0,1,.73-1.56A4,4,0,0,1,39,80.67l1.09,0V80.55a0.71,0.71,0,0,0-.8-0.81,4.77,4.77,0,0,0-1.82.48l-0.65-1.49a6.27,6.27,0,0,1,2.88-.59,2.8,2.8,0,0,1,1.95.62,2.23,2.23,0,0,1,.69,1.74V84.8H40.74Zm-1.67-1.48a1,1,0,0,0,.7-0.26,0.86,0.86,0,0,0,.29-0.67V81.88l-0.52,0q-1.11,0-1.11.82A0.55,0.55,0,0,0,39.07,83.32Z"/><path class="cls-1" d="M45.28,84.92a2,2,0,0,1-1.22-.4,2.51,2.51,0,0,1-.81-1.17A5.2,5.2,0,0,1,43,81.54,4.24,4.24,0,0,1,43.61,79a2,2,0,0,1,1.76-.9,2,2,0,0,1,1,.22,2.12,2.12,0,0,1,.75.74h0A10.82,10.82,0,0,1,47,77.57V75.82h2.27v9h-1.7L47.11,84H47A1.91,1.91,0,0,1,45.28,84.92Zm0.92-1.78A0.84,0.84,0,0,0,47,82.79a2.06,2.06,0,0,0,.24-1.05V81.56A2.29,2.29,0,0,0,47,80.33,0.87,0.87,0,0,0,46.18,80a0.76,0.76,0,0,0-.69.42,2.38,2.38,0,0,0-.25,1.19,2.22,2.22,0,0,0,.25,1.16A0.79,0.79,0,0,0,46.21,83.13Z"/><path class="cls-1" d="M56.5,81.52a3.46,3.46,0,0,1-.86,2.5,3.19,3.19,0,0,1-2.41.9A3.13,3.13,0,0,1,50.86,84a4,4,0,0,1,0-5,3.23,3.23,0,0,1,2.42-.89,3.45,3.45,0,0,1,1.7.41,2.8,2.8,0,0,1,1.14,1.17A3.79,3.79,0,0,1,56.5,81.52Zm-4.24,0a2.92,2.92,0,0,0,.22,1.28,0.78,0.78,0,0,0,.76.44A0.76,0.76,0,0,0,54,82.8a3,3,0,0,0,.22-1.28A2.87,2.87,0,0,0,54,80.25a0.87,0.87,0,0,0-1.5,0A2.8,2.8,0,0,0,52.27,81.52Z"/><path class="cls-1" d="M62.25,82.79a1.86,1.86,0,0,1-.72,1.59,3.38,3.38,0,0,1-2.05.54,8.79,8.79,0,0,1-1.26-.08,5.33,5.33,0,0,1-1.1-.29V82.75a6.77,6.77,0,0,0,1.15.38,4.82,4.82,0,0,0,1.12.15q0.73,0,.73-0.33a0.38,0.38,0,0,0-.2-0.31,9.54,9.54,0,0,0-1.19-.53,3,3,0,0,1-1.26-.84,1.91,1.91,0,0,1-.36-1.19,1.65,1.65,0,0,1,.7-1.42,3.37,3.37,0,0,1,2-.51,5,5,0,0,1,1.21.14,7.21,7.21,0,0,1,1.18.41l-0.61,1.45a6.89,6.89,0,0,0-1-.34,3.14,3.14,0,0,0-.82-0.14q-0.55,0-.55.27a0.34,0.34,0,0,0,.19.29,10.28,10.28,0,0,0,1.12.48,4.28,4.28,0,0,1,1,.55,1.65,1.65,0,0,1,.5.64A2.23,2.23,0,0,1,62.25,82.79Z"/><path class="cls-2" d="M14.67,30s1,4.29,3.79,5.92S54,55.7,54,55.7s12.65,1.39,14.89-5.39c0,0,7-9,3.54-11.22s-8.88-.91-8.88-0.91,9.58-7.25,5.46-9C66,28,56.9,28.06,56.9,28.06s12.59-11.6-1.43-12.42S14.67,30,14.67,30Z"/><path class="cls-3" d="M4.15,24.44a2.41,2.41,0,0,1-2.35-1.7,3.91,3.91,0,0,1,.64-3.59,3.85,3.85,0,0,1-.8-2.81A2.47,2.47,0,0,1,4.15,14a3,3,0,0,1,2.07,1,3.45,3.45,0,0,1,.94,2.25H12.8c0.55,0,.65.08,0.65,0.64v2.73c0,0.55-.1.64-0.65,0.64H7.15a3.16,3.16,0,0,1-.9,2.11A3,3,0,0,1,4.15,24.44Z"/><path class="cls-1" d="M4.15,15.19c2.22,0,2.08,3.1,2.08,3.1h6.23v2H6.23s0.14,3-2.08,3c-1.94,0-1.92-2.86-.63-3.87l0.63-.22c-1.87-.47-2.22-4,0-4m0-2.18a3.46,3.46,0,0,0-3.5,3.2,4.9,4.9,0,0,0,.59,2.94,4.91,4.91,0,0,0-.38,3.91,3.42,3.42,0,0,0,3.3,2.38A4,4,0,0,0,7,24.09a2.89,2.89,0,0,0,1-1.8H12.8a1.45,1.45,0,0,0,1.65-1.64V17.93a1.45,1.45,0,0,0-1.65-1.64H8a3.26,3.26,0,0,0-1-1.94A3.93,3.93,0,0,0,4.15,13h0Z"/><path class="cls-3" d="M36.15,34.32H24.5A13.77,13.77,0,0,1,10.74,20.55h0A13.77,13.77,0,0,1,24.5,6.79H36.15"/><path class="cls-1" d="M36.15,35.32H24.5a14.77,14.77,0,1,1,0-29.53H36.15a1,1,0,0,1,0,2H24.5a12.77,12.77,0,1,0,0,25.53H36.15A1,1,0,0,1,36.15,35.32Z"/><ellipse class="cls-3" cx="36.49" cy="20.55" rx="10.96" ry="13.77"/><path class="cls-1" d="M36.49,35.32c-6.6,0-12-6.62-12-14.76s5.37-14.77,12-14.77,12,6.62,12,14.77S43.08,35.32,36.49,35.32Zm0-27.53c-5.49,0-10,5.73-10,12.77s4.47,12.76,10,12.76,10-5.73,10-12.76S42,7.79,36.49,7.79Z"/><path class="cls-1" d="M15.63,18.9a1,1,0,0,1-.71-1.71L21.15,11a1,1,0,0,1,1.41,1.41L16.34,18.6A1,1,0,0,1,15.63,18.9Z"/><path class="cls-1" d="M15.63,26.45a1,1,0,0,1-.71-1.71l6.23-6.23a1,1,0,0,1,1.41,1.41l-6.23,6.23A1,1,0,0,1,15.63,26.45Z"/><path class="cls-1" d="M19.21,30.43a1,1,0,0,1-.71-1.71l2.65-2.65a1,1,0,0,1,1.41,1.41l-2.65,2.65A1,1,0,0,1,19.21,30.43Z"/><path class="cls-3" d="M60.48,36.61a6.37,6.37,0,1,1-12.73,0c0-3.52,2.85-10,6.37-10S60.48,33.09,60.48,36.61Z"/><path class="cls-1" d="M54.11,44a7.37,7.37,0,0,1-7.37-7.37c0-3.85,3-11,7.37-11s7.37,7.11,7.37,11A7.37,7.37,0,0,1,54.11,44Zm0-16.33c-2.66,0-5.37,5.75-5.37,9a5.37,5.37,0,1,0,10.73,0C59.48,33.4,56.77,27.65,54.11,27.65Z"/><path class="cls-3" d="M19.94,36.95L32.76,24.58l17.7,5.62v4.64c-2,0-2.19.94-2.19,2.11a2.08,2.08,0,0,0,2.07,2.11l-0.28,9.26L19.46,55.07V36.95l11.26-2.41"/><path class="cls-1" d="M19.46,56.07a1,1,0,0,1-1-1V36.95a1,1,0,0,1,.79-1l0.35-.07,12.47-12a1,1,0,0,1,1-.23l17.7,5.62a1,1,0,0,1,.7,1v4.64a1,1,0,0,1-1,1c-1.19,0-1.19.21-1.19,1.11a1.08,1.08,0,0,0,1.07,1.11,1,1,0,0,1,1,1l-0.28,9.26a1,1,0,0,1-.78.95L19.67,56Zm1-18.26v16l28.63-6.32,0.23-7.63a3.11,3.11,0,0,1-2-2.93,2.66,2.66,0,0,1,2.19-3v-3L33,25.71,23.3,35.1l7.21-1.54a1,1,0,1,1,.42,2L20.56,37.73Z"/><path class="cls-3" d="M39.45,32.61a4.43,4.43,0,0,1-8.66,1.92"/><path class="cls-1" d="M35.12,39a5.47,5.47,0,0,1-5.3-4.25,1,1,0,1,1,2-.43,3.43,3.43,0,0,0,6.7-1.49,1,1,0,1,1,2-.43A5.44,5.44,0,0,1,35.12,39Z"/><path class="cls-3" d="M30.8,34.54c-0.64-1.05-1.34-2.69,1.42-3.34,1.82-.43,5.45-0.06,7.24,1.42a5.28,5.28,0,0,1-4.62,2.7C31.73,35.16,30.8,34.54,30.8,34.54Z"/><path class="cls-1" d="M35.07,36.31H34.79c-3.23-.15-4.36-0.81-4.55-0.94a1,1,0,0,1-.3-0.31,3.39,3.39,0,0,1-.54-3A3.4,3.4,0,0,1,32,30.22c2-.46,6-0.15,8.11,1.62a1,1,0,0,1,.25,1.24A6.3,6.3,0,0,1,35.07,36.31Zm-3.56-2.54a11.17,11.17,0,0,0,3.37.54A4,4,0,0,0,38,32.88a9.86,9.86,0,0,0-5.59-.71,1.77,1.77,0,0,0-1.2.61A1.28,1.28,0,0,0,31.51,33.77Z"/><circle class="cls-3" cx="26.39" cy="44.51" r="2.54"/><path class="cls-1" d="M26.39,48.05a3.54,3.54,0,1,1,3.54-3.54A3.55,3.55,0,0,1,26.39,48.05Zm0-5.08a1.54,1.54,0,1,0,1.54,1.54A1.54,1.54,0,0,0,26.39,43Z"/><line class="cls-3" x1="39.45" y1="32.61" x2="50.36" y2="30.2"/><path class="cls-1" d="M39.45,33.61a1,1,0,0,1-.22-2l10.91-2.42a1,1,0,0,1,.43,2L39.67,33.59Z"/><path class="cls-3" d="M66.77,46.31a6.37,6.37,0,1,1-12.73,0c0-3.52,2.85-10,6.37-10S66.77,42.79,66.77,46.31Z"/><path class="cls-1" d="M60.41,53.68A7.37,7.37,0,0,1,53,46.31c0-3.85,3-11,7.37-11s7.37,7.11,7.37,11A7.37,7.37,0,0,1,60.41,53.68Zm0-16.33c-2.66,0-5.37,5.75-5.37,9a5.37,5.37,0,1,0,10.73,0C65.77,43.1,63.07,37.35,60.41,37.35Z"/><path class="cls-3" d="M52.78,45.11A6.37,6.37,0,1,1,50.1,57.56c-3.44-.74-9.14-4.88-8.4-8.32S49.34,44.37,52.78,45.11Z"/><path class="cls-1" d="M51.45,58.7a7.42,7.42,0,0,1-1.57-.17,15.21,15.21,0,0,1-6.22-3.38c-2.31-2-3.36-4.22-2.95-6.13s2.26-3.46,5.21-4.38A15.24,15.24,0,0,1,53,44.13,7.37,7.37,0,0,1,51.45,58.7Zm-0.7-12.78a14.91,14.91,0,0,0-4.24.64c-2.2.68-3.6,1.73-3.85,2.88s0.6,2.69,2.32,4.21a13.29,13.29,0,0,0,5.31,2.92,5.37,5.37,0,1,0,2.26-10.49A8.77,8.77,0,0,0,50.76,45.92Z"/></svg>