<svg id="Capa_1" data-name="Capa 1" xmlns="http://www.w3.org/2000/svg" viewBox="0 0 149.85 132.03"><defs><style>.cls-1{fill:#59b785;}</style></defs><title>Sin título-1</title><path class="cls-1" d="M49,62.53a20.17,20.17,0,0,0-15,6.78V53.26h0.41c16.15,0,27-9.36,27-23.3,0,0,0-.1,0-0.12h0v0h0s0,0,0-.06h0s0-.06,0-0.07c0-.36,0-0.71,0-1.06h0a17.63,17.63,0,0,0-26-14.46V9.34a26.76,26.76,0,0,0,8,1.54c0.35,0,.68,0,1,0A12.35,12.35,0,0,0,54,6.85a1,1,0,0,0,0-1.19c-0.11-.16-2.86-4-10-3.75a12.18,12.18,0,0,0-8.59,3.65V1a1,1,0,0,0-2,0V14.15a17.63,17.63,0,0,0-26,14.44h0v0h0c0,0.23,0,.46,0,0.7s0,0.21,0,.32v0.11h0s0,0.06,0,.09,0,0.1,0,.11c0,13.23,9.78,22.33,24.59,23.22V69.63a20.13,20.13,0,0,0-15.27-7.11C4.89,62.13.37,68.42,0.18,68.69a1,1,0,0,0,0,1.19C0.44,70.17,5.65,76.61,16,76.61q0.83,0,1.71-.06c8.06-.54,12.42-2,14.31-2.89V91.34H9.23a1,1,0,0,0-1,1v10.28a1,1,0,0,0,1,1H12l2.18,27.49a1,1,0,0,0,1,.92H50.56a1,1,0,0,0,1-.92l2.18-27.49h2.79a1,1,0,0,0,1-1V92.34a1,1,0,0,0-1-1H34V73.78c2,0.87,6.35,2.26,14,2.77,0.58,0,1.15.06,1.71,0.06,10.35,0,15.56-6.44,15.79-6.72a1,1,0,0,0,0-1.19C65.39,68.42,60.88,62.13,49,62.53ZM44.09,3.91c4.37-.14,6.73,1.42,7.71,2.31a11,11,0,0,1-8.21,2.67,25.62,25.62,0,0,1-7.25-1.34A10.18,10.18,0,0,1,44.09,3.91Zm-34.66,26s0-.09,0-0.1c0-.36,0-0.72,0-1.06v0a15.63,15.63,0,0,1,24.41-12L34,16.81l0.1,0a1,1,0,0,0,.7,0l0.1,0L35,16.75a15.63,15.63,0,0,1,24.41,12c0,0.36,0,.73,0,1.1V30c0,14.71-12.56,21.3-25,21.3S9.43,44.68,9.43,29.93Zm8.15,44.62c-8.63.58-13.67-3.69-15.25-5.31,1.37-1.45,5.64-5,14.37-4.71s13.06,5.26,14.51,7.31C29.54,72.57,25.38,74,17.58,74.55ZM49.63,130H16.12L14,103.75H51.72Zm5.9-28.41H10.23V93.34H55.53v8.28ZM48.18,74.55c-7.8-.52-12-2-13.62-2.72,1.45-2.05,5.83-7,14.51-7.31s13,3.26,14.36,4.71A19.45,19.45,0,0,1,48.18,74.55Z"/><path class="cls-1" d="M44.23,31.33a1,1,0,0,0-2,0,7.87,7.87,0,1,1-15.74,0,1,1,0,0,0-2,0A9.87,9.87,0,1,0,44.23,31.33Z"/><path class="cls-1" d="M149.67,68c-0.19-.27-4.69-6.54-16.52-6.14a20.1,20.1,0,0,0-14.92,6.75V54.82a24.89,24.89,0,1,0-2,0V69A20.07,20.07,0,0,0,101,61.88c-11.83-.4-16.33,5.88-16.52,6.14a1,1,0,0,0,0,1.19c0.23,0.29,5.42,6.7,15.74,6.7,0.55,0,1.12,0,1.7-.06,8-.54,12.37-2,14.25-2.88V90.58H93.52a1,1,0,0,0-1,1v10.25a1,1,0,0,0,1,1H96.3l2.18,27.38a1,1,0,0,0,1,.92H134.7a1,1,0,0,0,1-.92l2.17-27.38h2.78a1,1,0,0,0,1-1V91.58a1,1,0,0,0-1-1H118.23V73.1c2,0.86,6.33,2.25,14,2.76q0.87,0.06,1.7.06c10.32,0,15.51-6.41,15.74-6.7A1,1,0,0,0,149.67,68Zm-47.82,5.84c-8.6.58-13.61-3.67-15.19-5.29,1.37-1.45,5.61-5,14.31-4.69s13,5.23,14.45,7.27C113.75,71.89,109.61,73.34,101.84,73.86Zm31.93,55.27H100.4L98.32,103h37.54Zm5.87-28.3H94.52V92.58h45.13v8.25ZM94,30a22.81,22.81,0,1,1,23.27,22.8h-0.07l-0.09,0h-0.3A22.84,22.84,0,0,1,94,30Zm38.31,43.81c-7.77-.52-11.9-2-13.56-2.71,1.44-2,5.81-7,14.45-7.27s12.94,3.25,14.31,4.69C145.94,70.19,140.94,74.44,132.33,73.86Z"/><path class="cls-1" d="M130.62,33.49a1,1,0,0,0-1.41-1.41,25,25,0,0,1-3.35,2.82l-5.08-4.66a1,1,0,0,0-1.65.49l-1.82,7.1c-0.17,0-.34,0-0.52,0-6.63-.26-11.29-5.65-11.34-5.7a1,1,0,0,0-1.52,1.29c0.21,0.25,5.25,6.1,12.77,6.41h0.62C121.93,39.85,126.4,37.71,130.62,33.49Zm-10-.65L124.09,36a14.7,14.7,0,0,1-4.67,1.66Z"/></svg>