<svg id="Capa_1" data-name="Capa 1" xmlns="http://www.w3.org/2000/svg" viewBox="0 0 323.9 187.35"><defs><style>.cls-1{fill:#fff;}</style></defs><title>Sin título-1</title><path class="cls-1" d="M163,132.15q0.66,0,1.36,0A35.81,35.81,0,0,0,175.21,130v29.53h2V129.93c1.65,0.69,5.07,1.77,11.06,2.17q0.7,0,1.36,0a16.42,16.42,0,0,0,12.62-5.38l0.46-.58-0.42-.61c-0.15-.21-3.78-5.26-13.25-4.95A16,16,0,0,0,176.32,127a16,16,0,0,0-12.71-6.34c-9.47-.34-13.1,4.74-13.25,4.95l-0.42.61,0.46,0.58A16.41,16.41,0,0,0,163,132.15Zm26.07-9.53c6.53-.19,9.83,2.32,11,3.5a15,15,0,0,1-11.72,4c-5.78-.38-9-1.42-10.42-2A14,14,0,0,1,189.09,122.62Zm-25.54,0a14,14,0,0,1,11.12,5.46,33.2,33.2,0,0,1-10.43,2,15,15,0,0,1-11.71-4C153.72,124.95,157.06,122.44,163.55,122.62Z"/><path class="cls-1" d="M161.15,168h2.12l1.55,17.82h24L190.38,168h2.7v-8.39H161.15V168ZM187,183.87H166.65L165.28,168h23.1Zm-23.85-22.21h27.93V166H163.15v-4.39Z"/><path class="cls-1" d="M315.49,104.87h2.7V96.47H301.76V57.66a30.33,30.33,0,0,0,9.6,1.89c0.4,0,.8,0,1.18,0a14.26,14.26,0,0,0,11-4.67l0.4-.51-0.37-.53c-0.13-.19-3.27-4.58-11.51-4.3a13.87,13.87,0,0,0-11,5.51,13.87,13.87,0,0,0-11-5.51c-8.22-.28-11.38,4.11-11.51,4.3l-0.37.53,0.4,0.51a14.26,14.26,0,0,0,11,4.67q0.57,0,1.18,0A31.1,31.1,0,0,0,300,57.74V96.47H286.26v8.39h2.12l1.4,16.14h-7V69.15H266.91l1.82-21h3.44V38H251.55V17.91a27.41,27.41,0,0,0,7.88,1.48c0.35,0,.69,0,1,0A12.39,12.39,0,0,0,270,15.35l0.46-.58L270,14.16c-0.11-.16-2.86-4-10-3.76a12.1,12.1,0,0,0-9.37,4.51,12.1,12.1,0,0,0-9.37-4.51c-7.14-.23-9.89,3.6-10,3.76l-0.42.61,0.46,0.58a12.39,12.39,0,0,0,9.52,4.07q0.5,0,1,0A28,28,0,0,0,249.55,18V38H231.76V48.19h2.69l1.82,21H221.12v67.59h-23v49.85h7V187h11.28v-0.36h7.1v-0.06H323.9V121h-9.82Zm-25-47.05a13.06,13.06,0,0,1-10.17-3.45c1-1,3.93-3.21,9.57-3a12.19,12.19,0,0,1,9.66,4.74A28.8,28.8,0,0,1,290.5,57.82Zm21.58-6.5c5.67-.17,8.54,2,9.57,3a13.18,13.18,0,0,1-10.17,3.46,28.86,28.86,0,0,1-9-1.75A12.29,12.29,0,0,1,312.08,51.32ZM288.26,98.47h27.93v4.39H288.26V98.47Zm25.22,6.39-1.37,15.82H291.76l-1.37-15.82h23.1ZM260.06,12.39c4.39-.14,6.76,1.43,7.74,2.32a11,11,0,0,1-8.25,2.68A25.66,25.66,0,0,1,252.28,16,10.22,10.22,0,0,1,260.06,12.39Zm-18.37,5a10.89,10.89,0,0,1-8.25-2.68c1-.89,3.35-2.47,7.75-2.32A10.17,10.17,0,0,1,249,16,25.6,25.6,0,0,1,241.7,17.39ZM233.76,40h36.41v6.21H233.76V40Zm33,8.21-1.81,20.87H238.27l-1.81-20.87h30.27ZM223.12,81.5h8.27v70.33h-8.27V81.5Zm10.27,0h11v70.33h-11V81.5Zm13,0h11v70.33h-11V81.5Zm13,0h11v70.33h-11V81.5Zm13,0h8.35v70.33H272.4V81.5Zm8.35-10.34V79.5H223.12V71.15h57.63Zm-59.63,67.59v13.08h-21V138.75h21Zm-6.75,45.85h-7.28V164.86h7.28v19.73Zm-9.28-21.73v21.73h-5V153.82h21v30.77h-4.75V162.86H205.09Zm41.16,21.64V163.76h11.38V184.5H246.24Zm13.38,0V161.76H244.24v22.78H223.12V153.82h57.63v30.71H259.62Zm40.16,0V174h7.28V184.5h-7.28Zm22.12,0H309.06V172H297.78v12.57h-15V123H321.9v61.53Z"/><path class="cls-1" d="M317,128.95h-7.69V166.3H317V128.95Zm-2,35.35h-3.69V130.95H315V164.3Z"/><path class="cls-1" d="M306.33,128.95h-7.69V166.3h7.69V128.95Zm-2,35.35h-3.69V130.95h3.69V164.3Z"/><path class="cls-1" d="M295.7,166.3V128.95H288V166.3h7.69ZM290,130.95h3.69V164.3H290V130.95Z"/><path class="cls-1" d="M147.86,149.25h-6.5l-0.83,30.91h5.95Zm-3.3,28.91h-2l0.72-26.91h2.47Z"/><path class="cls-1" d="M138.64,180.16l0.28-30.91h-6.5l0.28,30.91h5.94Zm-1.74-28.91-0.24,26.91h-2l-0.24-26.91h2.47Z"/><path class="cls-1" d="M130.82,180.16L130,149.25h-6.5l1.39,30.91h5.94ZM128,151.25l0.72,26.91h-2l-1.21-26.91H128Z"/><path class="cls-1" d="M141.52,130.38l-3.7,3.52a11.48,11.48,0,0,0-3.51-1.51l-0.2-10.3A17.66,17.66,0,0,0,139,123l0.56,0a8.34,8.34,0,0,0,6.87-3.64l0.32-.52-0.31-.52c-0.08-.14-2.1-3.44-7.18-3.12a8.13,8.13,0,0,0-6.28,3.55,8.13,8.13,0,0,0-6.41-3.31h-0.23c-4.91,0-6.75,3.26-6.83,3.4l-0.29.54,0.34,0.5a8.35,8.35,0,0,0,6.66,3.38,9,9,0,0,0,.9,0,17.53,17.53,0,0,0,4.94-1.12l0.19,10a7.57,7.57,0,0,0-1.75.2c-2.66.63-4.85,2.7-6.54,6.1h-2.44l-3.73-7.19-1.78.92,3.26,6.27H116v7.87h2.22l0.35,4.87c-22.81,12.65-15.5,33.65-15.43,33.86l0.83,2.28L118.8,155.1,121,185.95h29.88l2.81-39.61h2.22v-7.87h-5Zm-2.1-13.16a6.11,6.11,0,0,1,4.93,1.65,6.31,6.31,0,0,1-5.18,2.14,15,15,0,0,1-4.64-.9A6.23,6.23,0,0,1,139.42,117.22Zm-12.45,4a6.29,6.29,0,0,1-5.26-1.94,6.56,6.56,0,0,1,9.87.85A15,15,0,0,1,127,121.25Zm-22.65,60.47c-1-5.43-1.39-18,12.53-27.17ZM149,183.95H122.85l-2.32-32.62,0.77-1.66-0.85.47-0.26-3.63h31.47Zm-7.42-50.87,6.25,5.38h-11.9ZM131,134.31a7.49,7.49,0,0,1,5.31,1L133,138.46h-6.76C127.59,136.15,129.18,134.75,131,134.31Zm22.9,10H118v-3.87h36v3.87Z"/><path class="cls-1" d="M84.61,156a14.53,14.53,0,0,0-8.45,2.71L67.64,148.3l1.35-4h6.33v-2H65v2h1.88l-1,2.95H42.36v-6.7h-2v6.7H39.29l1.06,1.35v4.68h-10l0.91-11.5H33V135.1H22.13V125a19.51,19.51,0,0,0,2.82.38l0.59,0A7.26,7.26,0,0,0,31.1,123l0.46-.58-0.42-.61c-0.07-.1-1.72-2.4-5.86-2.25a7.29,7.29,0,0,0-4.1,1.34,7.29,7.29,0,0,0-4.1-1.34c-4.16-.15-5.79,2.16-5.86,2.25l-0.42.61L11.26,123a7.26,7.26,0,0,0,5.56,2.4l0.59,0a19.73,19.73,0,0,0,2.73-.36v10H9.35v6.71h1.78L12,153.31H2V140.58H0v33H5.8a14.63,14.63,0,0,0,28.67,0h7.88V151.17L58.5,171.64H70A14.62,14.62,0,1,0,84.61,156ZM25.34,121.59a5.88,5.88,0,0,1,3.49.83,5.62,5.62,0,0,1-3.75,1,19.36,19.36,0,0,1-1.93-.22L23,122.89a4.49,4.49,0,0,0-.35-0.52A5.43,5.43,0,0,1,25.34,121.59Zm-8.07,1.83a5.64,5.64,0,0,1-3.75-1,5.89,5.89,0,0,1,3.49-.83,5.41,5.41,0,0,1,2.7.77,4.48,4.48,0,0,0-.35.52l-0.17.31C18.66,123.29,18,123.37,17.27,123.42ZM11.35,137.1H31v2.71H11.35V137.1Zm1.79,4.77H29.22l-0.87,11H14Zm7,41.4a12.63,12.63,0,1,1,12.63-12.63A12.64,12.64,0,0,1,20.14,183.27Zm14.58-11.73c0-.3,0-0.6,0-0.9a14.63,14.63,0,1,0-29.26,0c0,0.3,0,.6,0,0.9H2V155.31H40.36v16.23H34.72ZM74.62,160A14.57,14.57,0,0,0,70,169.64H60.38l6.5-19.11Zm1.27,1.55,6.62,8.1H72A12.58,12.58,0,0,1,75.88,161.54ZM65.19,149.29l-6.56,19.29L43.42,149.29H65.19Zm19.42,34A12.64,12.64,0,0,1,72,171.64H86.72l-9.3-11.37A12.62,12.62,0,1,1,84.61,183.27Z"/><path class="cls-1" d="M21.18,148a2.93,2.93,0,0,1-2.93-2.93h-2a4.93,4.93,0,1,0,9.86,0h-2A2.93,2.93,0,0,1,21.18,148Z"/><path class="cls-1" d="M58.49,55.17c0.49,0,1,0,1.5-.08a27.32,27.32,0,0,0,9.45-2.38L69.81,72H57.51c-5.95,0-10.26,4-10.26,9.5S51.56,91,57.51,91H63c0,0.06,0,.13,0,0.19,0,3.4-.09,6.61,1.72,8.45A5,5,0,0,0,68.42,101H91.54c5,0,13-4.67,14.27-10H121.7C127.57,91,132,84.92,132,79.49a11.63,11.63,0,0,0-8.26-11.25,3.32,3.32,0,0,0,.2-1.35C123.9,60,117,60,113.64,60H98.25C92.39,60,88,64.19,88,69.74a11.53,11.53,0,0,0,.2,2.26H71.82L71.44,52.71a27.51,27.51,0,0,0,9.47,2l0.93,0a13.82,13.82,0,0,0,11.39-6l0.32-.52-0.31-.52c-0.14-.23-3.44-5.61-11.89-5.1a13.68,13.68,0,0,0-11,6.79A13.68,13.68,0,0,0,59.08,43c-8.43-.12-11.55,5.32-11.68,5.56l-0.29.53,0.34,0.51A13.82,13.82,0,0,0,58.49,55.17ZM90,74V72a2,2,0,0,1,.47.25A6.44,6.44,0,0,1,90,69.74C90,65.33,93.53,62,98.25,62h15.4c6.1,0,8.26,1.28,8.26,4.89a2,2,0,0,1,0,.57,0.89,0.89,0,0,1-.09.13,4.72,4.72,0,0,0-.6,1l-0.61,1.35L122,70c4.53,0.19,7.92,5.16,7.92,9.49S126.35,89,121.7,89H105v1h-1c0,4-7.64,9-12.44,9H68.42a3.08,3.08,0,0,1-2.31-.72c-1.23-1.24-1.19-4-1.15-7,0-.07,0,0,0-0.12V90H64V89H57.51c-4.79,0-8.26-3.15-8.26-7.5S52.72,74,57.51,74H90Zm-8.5-29.44c5.79-.35,8.71,2.44,9.68,3.62A11.81,11.81,0,0,1,81,52.7c-5.14-.32-8-1.4-9.17-2A11.78,11.78,0,0,1,81.47,44.56ZM59,45a11.78,11.78,0,0,1,9.84,5.77c-1.17.64-4,1.83-9.08,2.35A11.81,11.81,0,0,1,49.5,49C50.43,47.76,53.26,44.86,59,45Z"/></svg>