<svg id="Capa_1" data-name="Capa 1" xmlns="http://www.w3.org/2000/svg" viewBox="0 0 383.5 324.55"><defs><style>.cls-1{fill:#fff;}</style></defs><title>Sin título-1</title><path class="cls-1" d="M90.66,321.42l-0.48-1H90.13a2.83,2.83,0,0,1-1,.85,3.38,3.38,0,0,1-1.35.23,2.11,2.11,0,0,1-1.6-.61,2.38,2.38,0,0,1-.58-1.71,2,2,0,0,1,.8-1.71,4.38,4.38,0,0,1,2.32-.63l1.2,0v-0.1a0.78,0.78,0,0,0-.88-0.89,5.24,5.24,0,0,0-2,.53l-0.72-1.64a6.9,6.9,0,0,1,3.17-.65,3.08,3.08,0,0,1,2.14.69,2.45,2.45,0,0,1,.76,1.92v4.72H90.66Zm-1.84-1.62a1.12,1.12,0,0,0,.77-0.29,1,1,0,0,0,.32-0.74v-0.56l-0.57,0q-1.22,0-1.23.9A0.6,0.6,0,0,0,88.82,319.8Z"/><path class="cls-1" d="M99.3,319.21a2,2,0,0,1-.79,1.75,3.72,3.72,0,0,1-2.26.59,9.72,9.72,0,0,1-1.39-.09,5.88,5.88,0,0,1-1.21-.31v-2a7.55,7.55,0,0,0,1.27.42,5.32,5.32,0,0,0,1.23.17q0.81,0,.81-0.37a0.42,0.42,0,0,0-.22-0.34,10.37,10.37,0,0,0-1.31-.58,3.27,3.27,0,0,1-1.38-.92,2.11,2.11,0,0,1-.39-1.31,1.81,1.81,0,0,1,.77-1.56,3.7,3.7,0,0,1,2.19-.56,5.53,5.53,0,0,1,1.34.16,7.88,7.88,0,0,1,1.3.45l-0.67,1.6a7.5,7.5,0,0,0-1-.38,3.49,3.49,0,0,0-.9-0.16c-0.41,0-.61.1-0.61,0.3a0.37,0.37,0,0,0,.21.31,11.54,11.54,0,0,0,1.23.53,4.69,4.69,0,0,1,1.13.61,1.81,1.81,0,0,1,.55.7A2.47,2.47,0,0,1,99.3,319.21Z"/><path class="cls-1" d="M100.17,313.55v-0.18q1-1,1.24-1.35c0.18-.2.32-0.38,0.44-0.54h2.72v0.13q-0.51.41-1.4,1t-1.35.91h-1.65Zm2.67,7.88h-2.48v-7.19h2.48v7.19Z"/><path class="cls-1" d="M110.58,321.55a3.53,3.53,0,0,1-2.68-1,3.8,3.8,0,0,1-.91-2.74,3.42,3.42,0,0,1,3.78-3.76,5.25,5.25,0,0,1,2.35.54l-0.73,1.83a8,8,0,0,0-.83-0.31,2.68,2.68,0,0,0-.79-0.12,1.07,1.07,0,0,0-.93.47,2.28,2.28,0,0,0-.33,1.33q0,1.73,1.28,1.73a3.86,3.86,0,0,0,2.09-.63v2A4.08,4.08,0,0,1,110.58,321.55Z"/><path class="cls-1" d="M120.85,317.81a3.81,3.81,0,0,1-.95,2.75,3.51,3.51,0,0,1-2.66,1,3.44,3.44,0,0,1-2.61-1,4.37,4.37,0,0,1,0-5.46,3.55,3.55,0,0,1,2.66-1,3.79,3.79,0,0,1,1.87.45,3.08,3.08,0,0,1,1.25,1.29A4.17,4.17,0,0,1,120.85,317.81Zm-4.66,0a3.2,3.2,0,0,0,.25,1.41,0.86,0.86,0,0,0,.83.49,0.84,0.84,0,0,0,.82-0.49,3.32,3.32,0,0,0,.24-1.41,3.13,3.13,0,0,0-.24-1.39,1,1,0,0,0-1.64,0A3.07,3.07,0,0,0,116.2,317.81Z"/><path class="cls-1" d="M126.48,321.42V317.5a2.25,2.25,0,0,0-.21-1.08,0.71,0.71,0,0,0-.66-0.37,1,1,0,0,0-.91.5,3.8,3.8,0,0,0-.28,1.72v3.15h-2.48v-7.19h1.87l0.31,0.89h0.15a2,2,0,0,1,.88-0.76,3.1,3.1,0,0,1,1.29-.25,2.45,2.45,0,0,1,1.86.69,2.7,2.7,0,0,1,.66,1.95v4.68h-2.48Z"/><path class="cls-1" d="M137.2,317.81a3.81,3.81,0,0,1-.95,2.75,3.51,3.51,0,0,1-2.66,1,3.44,3.44,0,0,1-2.61-1,4.37,4.37,0,0,1,0-5.46,3.55,3.55,0,0,1,2.66-1,3.79,3.79,0,0,1,1.87.45,3.08,3.08,0,0,1,1.25,1.29A4.17,4.17,0,0,1,137.2,317.81Zm-4.66,0a3.2,3.2,0,0,0,.25,1.41,0.86,0.86,0,0,0,.83.49,0.84,0.84,0,0,0,.82-0.49,3.32,3.32,0,0,0,.24-1.41,3.13,3.13,0,0,0-.24-1.39,1,1,0,0,0-1.64,0A3.07,3.07,0,0,0,132.54,317.81Z"/><path class="cls-1" d="M141.56,321.55a3.53,3.53,0,0,1-2.68-1,3.8,3.8,0,0,1-.91-2.74,3.42,3.42,0,0,1,3.78-3.76,5.25,5.25,0,0,1,2.35.54l-0.73,1.83a8,8,0,0,0-.83-0.31,2.68,2.68,0,0,0-.79-0.12,1.07,1.07,0,0,0-.93.47,2.28,2.28,0,0,0-.33,1.33q0,1.73,1.28,1.73a3.86,3.86,0,0,0,2.09-.63v2A4.08,4.08,0,0,1,141.56,321.55Z"/><path class="cls-1" d="M148.44,321.55a3.86,3.86,0,0,1-2.79-1,3.6,3.6,0,0,1-1-2.72,3.92,3.92,0,0,1,.92-2.8,3.44,3.44,0,0,1,2.63-1,3.49,3.49,0,0,1,2.51.85,3.22,3.22,0,0,1,.89,2.44v1.11h-4.44a1.23,1.23,0,0,0,.44.95,1.73,1.73,0,0,0,1.13.34,5.44,5.44,0,0,0,1.2-.12,5.91,5.91,0,0,0,1.19-.42V321a4.37,4.37,0,0,1-1.21.41A8.35,8.35,0,0,1,148.44,321.55Zm-0.15-5.76a1,1,0,0,0-.73.28,1.3,1.3,0,0,0-.35.87h2.13a1.23,1.23,0,0,0-.29-0.83A1,1,0,0,0,148.3,315.79Z"/><path class="cls-1" d="M158.24,319.21a2,2,0,0,1-.79,1.75,3.72,3.72,0,0,1-2.26.59,9.72,9.72,0,0,1-1.39-.09,5.88,5.88,0,0,1-1.21-.31v-2a7.55,7.55,0,0,0,1.27.42,5.32,5.32,0,0,0,1.23.17q0.81,0,.81-0.37a0.42,0.42,0,0,0-.22-0.34,10.37,10.37,0,0,0-1.31-.58,3.27,3.27,0,0,1-1.38-.92,2.11,2.11,0,0,1-.39-1.31,1.81,1.81,0,0,1,.77-1.56,3.7,3.7,0,0,1,2.19-.56,5.53,5.53,0,0,1,1.34.16,7.88,7.88,0,0,1,1.3.45l-0.67,1.6a7.5,7.5,0,0,0-1-.38,3.49,3.49,0,0,0-.9-0.16c-0.41,0-.61.1-0.61,0.3a0.37,0.37,0,0,0,.21.31,11.54,11.54,0,0,0,1.23.53,4.69,4.69,0,0,1,1.13.61,1.81,1.81,0,0,1,.55.7A2.47,2.47,0,0,1,158.24,319.21Z"/><path class="cls-1" d="M167,321.42l-0.48-1H166.5a2.83,2.83,0,0,1-1,.85,3.38,3.38,0,0,1-1.35.23,2.11,2.11,0,0,1-1.6-.61,2.38,2.38,0,0,1-.58-1.71,2,2,0,0,1,.8-1.71,4.38,4.38,0,0,1,2.32-.63l1.2,0v-0.1a0.78,0.78,0,0,0-.88-0.89,5.24,5.24,0,0,0-2,.53l-0.72-1.64a6.9,6.9,0,0,1,3.17-.65,3.08,3.08,0,0,1,2.14.69,2.45,2.45,0,0,1,.76,1.92v4.72H167Zm-1.84-1.62a1.12,1.12,0,0,0,.77-0.29,1,1,0,0,0,.32-0.74v-0.56l-0.57,0q-1.22,0-1.23.9A0.6,0.6,0,0,0,165.19,319.8Z"/><path class="cls-1" d="M176.69,319.59a3.7,3.7,0,0,0,1.2-.25v1.81a4.87,4.87,0,0,1-1,.31,5.4,5.4,0,0,1-1.06.09,2.33,2.33,0,0,1-1.8-.61,2.75,2.75,0,0,1-.55-1.88v-3h-0.87v-1l1.11-.78,0.64-1.51H176v1.44h1.76v1.86H176v2.8A0.61,0.61,0,0,0,176.69,319.59Z"/><path class="cls-1" d="M183.94,321.42l-0.31-.89h-0.15a2,2,0,0,1-.87.76,3,3,0,0,1-1.3.26,2.44,2.44,0,0,1-1.85-.69,2.7,2.7,0,0,1-.66-1.95v-4.68h2.48v3.93a2.25,2.25,0,0,0,.2,1.07,0.69,0.69,0,0,0,.66.36,1,1,0,0,0,.91-0.5,3.85,3.85,0,0,0,.27-1.7v-3.15h2.48v7.19h-1.87Z"/><path class="cls-1" d="M192.76,319.21A2,2,0,0,1,192,321a3.72,3.72,0,0,1-2.26.59,9.72,9.72,0,0,1-1.39-.09,5.88,5.88,0,0,1-1.21-.31v-2a7.55,7.55,0,0,0,1.27.42,5.32,5.32,0,0,0,1.23.17q0.81,0,.81-0.37a0.42,0.42,0,0,0-.22-0.34,10.37,10.37,0,0,0-1.31-.58,3.27,3.27,0,0,1-1.38-.92,2.11,2.11,0,0,1-.39-1.31,1.81,1.81,0,0,1,.77-1.56,3.7,3.7,0,0,1,2.19-.56,5.53,5.53,0,0,1,1.34.16,7.88,7.88,0,0,1,1.3.45l-0.67,1.6a7.5,7.5,0,0,0-1-.38,3.49,3.49,0,0,0-.9-0.16c-0.41,0-.61.1-0.61,0.3a0.37,0.37,0,0,0,.21.31,11.54,11.54,0,0,0,1.23.53,4.69,4.69,0,0,1,1.13.61,1.81,1.81,0,0,1,.55.7A2.47,2.47,0,0,1,192.76,319.21Z"/><path class="cls-1" d="M200.14,321.55a3.53,3.53,0,0,1-2.68-1,3.8,3.8,0,0,1-.91-2.74,3.42,3.42,0,0,1,3.78-3.76,5.25,5.25,0,0,1,2.35.54L202,316.48a8,8,0,0,0-.83-0.31,2.68,2.68,0,0,0-.79-0.12,1.07,1.07,0,0,0-.93.47,2.28,2.28,0,0,0-.33,1.33q0,1.73,1.28,1.73a3.86,3.86,0,0,0,2.09-.63v2A4.08,4.08,0,0,1,200.14,321.55Z"/><path class="cls-1" d="M210.41,317.81a3.81,3.81,0,0,1-.95,2.75,3.51,3.51,0,0,1-2.66,1,3.44,3.44,0,0,1-2.61-1,4.37,4.37,0,0,1,0-5.46,3.55,3.55,0,0,1,2.66-1,3.79,3.79,0,0,1,1.87.45,3.08,3.08,0,0,1,1.25,1.29A4.17,4.17,0,0,1,210.41,317.81Zm-4.66,0a3.2,3.2,0,0,0,.25,1.41,0.86,0.86,0,0,0,.83.49,0.84,0.84,0,0,0,.82-0.49,3.32,3.32,0,0,0,.24-1.41,3.13,3.13,0,0,0-.24-1.39,1,1,0,0,0-1.64,0A3.07,3.07,0,0,0,205.76,317.81Z"/><path class="cls-1" d="M216,321.42V317.5a2.25,2.25,0,0,0-.21-1.08,0.71,0.71,0,0,0-.66-0.37,1,1,0,0,0-.91.5,3.8,3.8,0,0,0-.28,1.72v3.15h-2.48v-7.19h1.87l0.31,0.89h0.15a2,2,0,0,1,.88-0.76,3.1,3.1,0,0,1,1.29-.25,2.45,2.45,0,0,1,1.86.69,2.7,2.7,0,0,1,.66,1.95v4.68H216Z"/><path class="cls-1" d="M225.44,319.21a2,2,0,0,1-.79,1.75,3.72,3.72,0,0,1-2.26.59,9.72,9.72,0,0,1-1.39-.09,5.88,5.88,0,0,1-1.21-.31v-2a7.55,7.55,0,0,0,1.27.42,5.32,5.32,0,0,0,1.23.17q0.81,0,.81-0.37a0.42,0.42,0,0,0-.22-0.34,10.37,10.37,0,0,0-1.31-.58,3.27,3.27,0,0,1-1.38-.92,2.11,2.11,0,0,1-.39-1.31,1.81,1.81,0,0,1,.77-1.56,3.7,3.7,0,0,1,2.19-.56,5.53,5.53,0,0,1,1.34.16,7.88,7.88,0,0,1,1.3.45l-0.67,1.6a7.5,7.5,0,0,0-1-.38,3.49,3.49,0,0,0-.9-0.16c-0.41,0-.61.1-0.61,0.3a0.37,0.37,0,0,0,.21.31,11.54,11.54,0,0,0,1.23.53,4.69,4.69,0,0,1,1.13.61,1.81,1.81,0,0,1,.55.7A2.47,2.47,0,0,1,225.44,319.21Z"/><path class="cls-1" d="M231.62,321.42l-0.31-.89h-0.15a2,2,0,0,1-.87.76,3,3,0,0,1-1.3.26,2.44,2.44,0,0,1-1.85-.69,2.7,2.7,0,0,1-.66-1.95v-4.68H229v3.93a2.25,2.25,0,0,0,.2,1.07,0.69,0.69,0,0,0,.66.36,1,1,0,0,0,.91-0.5,3.85,3.85,0,0,0,.27-1.7v-3.15h2.48v7.19h-1.87Z"/><path class="cls-1" d="M243.71,321.42v-3.91a2.34,2.34,0,0,0-.2-1.09,0.67,0.67,0,0,0-.63-0.37,0.89,0.89,0,0,0-.84.49,3.33,3.33,0,0,0-.27,1.53v3.35h-2.49v-3.91a2.45,2.45,0,0,0-.19-1.09,0.65,0.65,0,0,0-.62-0.37,0.89,0.89,0,0,0-.85.52,4,4,0,0,0-.27,1.7v3.15h-2.48v-7.19h1.87l0.31,0.89h0.15a1.86,1.86,0,0,1,.83-0.76,2.82,2.82,0,0,1,1.24-.26,2.43,2.43,0,0,1,2.18.95h0.2a2,2,0,0,1,.85-0.7,2.82,2.82,0,0,1,1.2-.25,2.46,2.46,0,0,1,1.88.65,2.83,2.83,0,0,1,.61,2v4.68h-2.48Z"/><path class="cls-1" d="M247.5,312.44a1,1,0,0,1,.31-0.83,2,2,0,0,1,2,0,1,1,0,0,1,.32.82A1.34,1.34,0,0,1,247.5,312.44Zm2.54,9h-2.48v-7.19H250v7.19Z"/><path class="cls-1" d="M253.69,321.55a2.16,2.16,0,0,1-1.34-.44,2.78,2.78,0,0,1-.89-1.29,5.71,5.71,0,0,1-.31-2,4.67,4.67,0,0,1,.7-2.74,2.25,2.25,0,0,1,1.94-1,2.23,2.23,0,0,1,1.06.24,2.34,2.34,0,0,1,.83.81h0.05a11.82,11.82,0,0,1-.12-1.69v-1.92h2.5v9.88h-1.87l-0.53-.91h-0.1A2.1,2.1,0,0,1,253.69,321.55Zm1-2a0.93,0.93,0,0,0,.84-0.37,2.25,2.25,0,0,0,.26-1.16v-0.2a2.52,2.52,0,0,0-.27-1.36,1,1,0,0,0-.86-0.4,0.84,0.84,0,0,0-.76.46,2.62,2.62,0,0,0-.27,1.31,2.44,2.44,0,0,0,.27,1.28A0.87,0.87,0,0,0,254.71,319.59Z"/><path class="cls-1" d="M266.36,317.81a3.81,3.81,0,0,1-.95,2.75,3.51,3.51,0,0,1-2.66,1,3.44,3.44,0,0,1-2.61-1,4.37,4.37,0,0,1,0-5.46,3.55,3.55,0,0,1,2.66-1,3.79,3.79,0,0,1,1.87.45,3.08,3.08,0,0,1,1.25,1.29A4.17,4.17,0,0,1,266.36,317.81Zm-4.66,0a3.2,3.2,0,0,0,.25,1.41,0.86,0.86,0,0,0,.83.49,0.84,0.84,0,0,0,.82-0.49,3.32,3.32,0,0,0,.24-1.41,3.13,3.13,0,0,0-.24-1.39,1,1,0,0,0-1.64,0A3.07,3.07,0,0,0,261.7,317.81Z"/><path class="cls-1" d="M271.79,314.1a3.56,3.56,0,0,1,.62.05l0.14,0-0.22,2.34a3.66,3.66,0,0,0-.84-0.08,1.61,1.61,0,0,0-1.18.37,1.46,1.46,0,0,0-.37,1.07v3.54h-2.48v-7.19h1.85l0.39,1.15h0.12a2.49,2.49,0,0,1,.87-0.92A2.08,2.08,0,0,1,271.79,314.1Z"/><path class="cls-1" d="M276.7,321.55a3.86,3.86,0,0,1-2.79-1,3.6,3.6,0,0,1-1-2.72,3.92,3.92,0,0,1,.92-2.8,3.44,3.44,0,0,1,2.63-1A3.49,3.49,0,0,1,279,315a3.22,3.22,0,0,1,.89,2.44v1.11h-4.44a1.23,1.23,0,0,0,.44.95,1.73,1.73,0,0,0,1.13.34,5.44,5.44,0,0,0,1.2-.12,5.91,5.91,0,0,0,1.19-.42V321a4.37,4.37,0,0,1-1.21.41A8.35,8.35,0,0,1,276.7,321.55Zm-0.15-5.76a1,1,0,0,0-.73.28,1.3,1.3,0,0,0-.35.87h2.13a1.23,1.23,0,0,0-.29-0.83A1,1,0,0,0,276.55,315.79Z"/><path class="cls-1" d="M286.49,319.21a2,2,0,0,1-.79,1.75,3.72,3.72,0,0,1-2.26.59,9.72,9.72,0,0,1-1.39-.09,5.88,5.88,0,0,1-1.21-.31v-2a7.55,7.55,0,0,0,1.27.42,5.32,5.32,0,0,0,1.23.17q0.81,0,.81-0.37a0.42,0.42,0,0,0-.22-0.34,10.37,10.37,0,0,0-1.31-.58,3.27,3.27,0,0,1-1.38-.92,2.11,2.11,0,0,1-.39-1.31,1.81,1.81,0,0,1,.77-1.56,3.7,3.7,0,0,1,2.19-.56,5.53,5.53,0,0,1,1.34.16,7.88,7.88,0,0,1,1.3.45l-0.67,1.6a7.5,7.5,0,0,0-1-.38,3.49,3.49,0,0,0-.9-0.16c-0.41,0-.61.1-0.61,0.3a0.37,0.37,0,0,0,.21.31,11.54,11.54,0,0,0,1.23.53,4.69,4.69,0,0,1,1.13.61,1.81,1.81,0,0,1,.55.7A2.47,2.47,0,0,1,286.49,319.21Z"/><path class="cls-1" d="M294.94,314.1a3.56,3.56,0,0,1,.62.05l0.14,0-0.22,2.34a3.66,3.66,0,0,0-.84-0.08,1.61,1.61,0,0,0-1.18.37,1.46,1.46,0,0,0-.37,1.07v3.54H290.6v-7.19h1.85l0.39,1.15H293a2.49,2.49,0,0,1,.87-0.92A2.08,2.08,0,0,1,294.94,314.1Z"/><path class="cls-1" d="M299.84,321.55a3.86,3.86,0,0,1-2.79-1,3.6,3.6,0,0,1-1-2.72,3.92,3.92,0,0,1,.92-2.8,3.44,3.44,0,0,1,2.63-1,3.49,3.49,0,0,1,2.51.85,3.22,3.22,0,0,1,.89,2.44v1.11h-4.44a1.23,1.23,0,0,0,.44.95,1.73,1.73,0,0,0,1.13.34,5.44,5.44,0,0,0,1.2-.12,5.91,5.91,0,0,0,1.19-.42V321a4.37,4.37,0,0,1-1.21.41A8.35,8.35,0,0,1,299.84,321.55Zm-0.15-5.76a1,1,0,0,0-.73.28,1.3,1.3,0,0,0-.35.87h2.13a1.23,1.23,0,0,0-.29-0.83A1,1,0,0,0,299.7,315.79Z"/><path class="cls-1" d="M309.64,319.21a2,2,0,0,1-.79,1.75,3.72,3.72,0,0,1-2.26.59,9.72,9.72,0,0,1-1.39-.09,5.88,5.88,0,0,1-1.21-.31v-2a7.55,7.55,0,0,0,1.27.42,5.32,5.32,0,0,0,1.23.17q0.81,0,.81-0.37a0.42,0.42,0,0,0-.22-0.34,10.37,10.37,0,0,0-1.31-.58,3.27,3.27,0,0,1-1.38-.92,2.11,2.11,0,0,1-.39-1.31,1.81,1.81,0,0,1,.77-1.56,3.7,3.7,0,0,1,2.19-.56,5.53,5.53,0,0,1,1.34.16,7.88,7.88,0,0,1,1.3.45l-0.67,1.6a7.5,7.5,0,0,0-1-.38,3.49,3.49,0,0,0-.9-0.16c-0.41,0-.61.1-0.61,0.3a0.37,0.37,0,0,0,.21.31,11.54,11.54,0,0,0,1.23.53,4.69,4.69,0,0,1,1.13.61,1.81,1.81,0,0,1,.55.7A2.47,2.47,0,0,1,309.64,319.21Z"/><path class="cls-1" d="M315,321.55a2.52,2.52,0,0,1-1-.18,2.5,2.5,0,0,1-.86-0.65h-0.11a9.16,9.16,0,0,1,.11.94v2.89h-2.48V314.23h2l0.35,0.91h0.11a2.18,2.18,0,0,1,1.91-1,2.15,2.15,0,0,1,1.87,1,4.74,4.74,0,0,1,.68,2.72,4.67,4.67,0,0,1-.71,2.74A2.23,2.23,0,0,1,315,321.55Zm-0.83-5.5a0.8,0.8,0,0,0-.76.39,2.55,2.55,0,0,0-.24,1.16v0.2a2.73,2.73,0,0,0,.25,1.34,0.84,0.84,0,0,0,.78.41,0.73,0.73,0,0,0,.69-0.41,3.09,3.09,0,0,0,.22-1.35,3,3,0,0,0-.22-1.33A0.75,0.75,0,0,0,314.17,316.05Z"/><path class="cls-1" d="M325.59,317.81a3.81,3.81,0,0,1-.95,2.75,3.51,3.51,0,0,1-2.66,1,3.44,3.44,0,0,1-2.61-1,4.37,4.37,0,0,1,0-5.46,3.55,3.55,0,0,1,2.66-1,3.79,3.79,0,0,1,1.87.45,3.08,3.08,0,0,1,1.25,1.29A4.17,4.17,0,0,1,325.59,317.81Zm-4.66,0a3.2,3.2,0,0,0,.25,1.41,0.86,0.86,0,0,0,.83.49,0.84,0.84,0,0,0,.82-0.49,3.32,3.32,0,0,0,.24-1.41,3.13,3.13,0,0,0-.24-1.39,1,1,0,0,0-1.64,0A3.07,3.07,0,0,0,320.93,317.81Z"/><path class="cls-1" d="M331.22,321.42V317.5a2.25,2.25,0,0,0-.21-1.08,0.71,0.71,0,0,0-.66-0.37,1,1,0,0,0-.91.5,3.8,3.8,0,0,0-.28,1.72v3.15h-2.48v-7.19h1.87l0.31,0.89H329a2,2,0,0,1,.88-0.76,3.1,3.1,0,0,1,1.29-.25,2.45,2.45,0,0,1,1.86.69,2.7,2.7,0,0,1,.66,1.95v4.68h-2.48Z"/><path class="cls-1" d="M340.62,319.21a2,2,0,0,1-.79,1.75,3.72,3.72,0,0,1-2.26.59,9.72,9.72,0,0,1-1.39-.09,5.88,5.88,0,0,1-1.21-.31v-2a7.55,7.55,0,0,0,1.27.42,5.32,5.32,0,0,0,1.23.17q0.81,0,.81-0.37a0.42,0.42,0,0,0-.22-0.34,10.37,10.37,0,0,0-1.31-.58,3.27,3.27,0,0,1-1.38-.92,2.11,2.11,0,0,1-.39-1.31,1.81,1.81,0,0,1,.77-1.56,3.7,3.7,0,0,1,2.19-.56,5.53,5.53,0,0,1,1.34.16,7.88,7.88,0,0,1,1.3.45l-0.67,1.6a7.5,7.5,0,0,0-1-.38,3.49,3.49,0,0,0-.9-0.16c-0.41,0-.61.1-0.61,0.3a0.37,0.37,0,0,0,.21.31,11.54,11.54,0,0,0,1.23.53,4.69,4.69,0,0,1,1.13.61,1.81,1.81,0,0,1,.55.7A2.47,2.47,0,0,1,340.62,319.21Z"/><path class="cls-1" d="M346.36,321.42l-0.48-1h-0.05a2.83,2.83,0,0,1-1,.85,3.38,3.38,0,0,1-1.35.23,2.11,2.11,0,0,1-1.6-.61,2.38,2.38,0,0,1-.58-1.71,2,2,0,0,1,.8-1.71,4.38,4.38,0,0,1,2.32-.63l1.2,0v-0.1a0.78,0.78,0,0,0-.88-0.89,5.24,5.24,0,0,0-2,.53L342,314.75a6.9,6.9,0,0,1,3.17-.65,3.08,3.08,0,0,1,2.14.69,2.45,2.45,0,0,1,.76,1.92v4.72h-1.72Zm-1.84-1.62a1.12,1.12,0,0,0,.77-0.29,1,1,0,0,0,.32-0.74v-0.56l-0.57,0q-1.22,0-1.23.9A0.6,0.6,0,0,0,344.52,319.8Z"/><path class="cls-1" d="M353.84,314.1a2.16,2.16,0,0,1,1.86,1,5.75,5.75,0,0,1,0,5.47,2.23,2.23,0,0,1-1.93,1,2.66,2.66,0,0,1-.71-0.09,2.07,2.07,0,0,1-.56-0.24,2.89,2.89,0,0,1-.57-0.51h-0.15l-0.39.71h-1.94v-9.88h2.48v2.23q0,0.4-.09,1.38h0.09A2.12,2.12,0,0,1,353.84,314.1Zm-0.91,1.95a0.85,0.85,0,0,0-.76.36,2.08,2.08,0,0,0-.24,1.14v0.35a2.48,2.48,0,0,0,.24,1.27,0.86,0.86,0,0,0,.79.38,0.73,0.73,0,0,0,.67-0.45,2.91,2.91,0,0,0,.24-1.32Q353.87,316.05,352.93,316.05Z"/><path class="cls-1" d="M360,321.42h-2.48v-9.88H360v9.88Z"/><path class="cls-1" d="M364.83,321.55a3.86,3.86,0,0,1-2.79-1,3.6,3.6,0,0,1-1-2.72,3.92,3.92,0,0,1,.92-2.8,3.44,3.44,0,0,1,2.63-1,3.49,3.49,0,0,1,2.51.85,3.22,3.22,0,0,1,.89,2.44v1.11h-4.44a1.23,1.23,0,0,0,.44.95,1.73,1.73,0,0,0,1.13.34,5.44,5.44,0,0,0,1.2-.12,5.91,5.91,0,0,0,1.19-.42V321a4.37,4.37,0,0,1-1.21.41A8.35,8.35,0,0,1,364.83,321.55Zm-0.15-5.76a1,1,0,0,0-.73.28,1.3,1.3,0,0,0-.35.87h2.13a1.23,1.23,0,0,0-.29-0.83A1,1,0,0,0,364.69,315.79Z"/><path class="cls-1" d="M374.62,319.21a2,2,0,0,1-.79,1.75,3.72,3.72,0,0,1-2.26.59,9.72,9.72,0,0,1-1.39-.09,5.88,5.88,0,0,1-1.21-.31v-2a7.55,7.55,0,0,0,1.27.42,5.32,5.32,0,0,0,1.23.17q0.81,0,.81-0.37a0.42,0.42,0,0,0-.22-0.34,10.37,10.37,0,0,0-1.31-.58,3.27,3.27,0,0,1-1.38-.92,2.11,2.11,0,0,1-.39-1.31,1.81,1.81,0,0,1,.77-1.56,3.7,3.7,0,0,1,2.19-.56,5.53,5.53,0,0,1,1.34.16,7.88,7.88,0,0,1,1.3.45l-0.67,1.6a7.5,7.5,0,0,0-1-.38,3.49,3.49,0,0,0-.9-0.16c-0.41,0-.61.1-0.61,0.3a0.37,0.37,0,0,0,.21.31,11.54,11.54,0,0,0,1.23.53,4.69,4.69,0,0,1,1.13.61,1.81,1.81,0,0,1,.55.7A2.47,2.47,0,0,1,374.62,319.21Z"/><path class="cls-1" d="M72.52,19V0.29h5.07V15h7.22V19H72.52Z"/><path class="cls-1" d="M87.81,19V0.29h5.07V15h7.22V19H87.81Z"/><path class="cls-1" d="M114.24,19H103.1V0.29h11.13V4.36h-6.07v3h5.62v4.07h-5.62v3.54h6.07V19Z"/><path class="cls-1" d="M135.38,19h-6.64L121.88,5.84h-0.12Q122,9,122,10.6V19h-4.49V0.29h6.62l6.82,13H131q-0.18-2.84-.18-4.55V0.29h4.52V19Z"/><path class="cls-1" d="M150.94,19L150,15.53h-6.09L143,19H137.4l6.12-18.83h6.76L156.48,19h-5.54Zm-2-7.67L148.15,8.3q-0.28-1-.69-2.66t-0.53-2.33q-0.11.65-.46,2.16T145,11.38h4Z"/><path class="cls-1" d="M176.46,19H165.33V0.29h11.13V4.36H170.4v3H176v4.07H170.4v3.54h6.07V19Z"/><path class="cls-1" d="M179.75,19V0.29h5.07V15H192V19H179.75Z"/><path class="cls-1" d="M206.85,19h-5V0.29h11.08V4.36h-6.09V7.94h5.62V12h-5.62v7Z"/><path class="cls-1" d="M233.57,9.65q0,4.73-2.32,7.2t-6.8,2.46q-4.41,0-6.77-2.48t-2.35-7.21q0-4.68,2.34-7.15T224.48,0q4.48,0,6.79,2.45T233.57,9.65Zm-12.9,0q0,5.44,3.78,5.44a3.25,3.25,0,0,0,2.85-1.32,7.24,7.24,0,0,0,.93-4.12,7.29,7.29,0,0,0-.94-4.15,3.22,3.22,0,0,0-2.82-1.34Q220.67,4.16,220.66,9.65Z"/><path class="cls-1" d="M242,12.22V19H237V0.29h6.14q7.65,0,7.65,5.54a5.54,5.54,0,0,1-3.18,5L253,19h-5.75l-4-6.82H242Zm0-3.81H243q2.65,0,2.66-2.35,0-1.94-2.6-1.94h-1V8.42Z"/><path class="cls-1" d="M262.91,19L259.07,5.54H259q0.27,3.45.27,5.36V19h-4.49V0.29h6.75l3.91,13.32h0.1l3.83-13.32h6.76V19h-4.66V10.83q0-.64,0-1.42t0.17-3.83h-0.12L267.73,19h-4.82Z"/><path class="cls-1" d="M296.08,0.29V11.58a7.57,7.57,0,0,1-2.08,5.7,9.89,9.89,0,0,1-11.9.06A7.43,7.43,0,0,1,280,11.7V0.29h5.09v11a4.51,4.51,0,0,0,.74,2.89,3.21,3.21,0,0,0,4.44,0,4.77,4.77,0,0,0,.7-2.92v-11h5.07Z"/><path class="cls-1" d="M300,19V0.29h5.07V15h7.22V19H300Z"/><path class="cls-1" d="M326.81,19l-0.92-3.51H319.8L318.85,19h-5.57L319.4,0.22h6.76L332.35,19h-5.54Zm-2-7.67L324,8.3q-0.28-1-.69-2.66t-0.53-2.33q-0.11.65-.46,2.16t-1.51,5.91h4Z"/><path class="cls-1" d="M339.45,12.22V19h-5.07V0.29h6.14q7.65,0,7.65,5.54a5.54,5.54,0,0,1-3.18,5L350.45,19h-5.75l-4-6.82h-1.28Zm0-3.81h0.95q2.65,0,2.66-2.35,0-1.94-2.6-1.94h-1V8.42Z"/><path class="cls-1" d="M352.16,19V0.29h5.09V19h-5.09Z"/><path class="cls-1" d="M378.85,9.65q0,4.73-2.32,7.2t-6.8,2.46q-4.41,0-6.77-2.48t-2.35-7.21q0-4.68,2.34-7.15T369.76,0q4.48,0,6.79,2.45T378.85,9.65Zm-12.9,0q0,5.44,3.78,5.44a3.25,3.25,0,0,0,2.85-1.32,7.24,7.24,0,0,0,.93-4.12,7.29,7.29,0,0,0-.94-4.15,3.22,3.22,0,0,0-2.82-1.34Q365.95,4.16,365.95,9.65Z"/><path class="cls-1" d="M70.15,31.33l3.23-7h5.49L72.7,35.81v7.32H67.6V36L61.43,24.38h5.52Z"/><path class="cls-1" d="M100,37.43a5.53,5.53,0,0,1-.89,3.1,5.79,5.79,0,0,1-2.55,2.1,9.45,9.45,0,0,1-3.91.75,15.79,15.79,0,0,1-3.14-.26,11.62,11.62,0,0,1-2.64-.92V37.69a15,15,0,0,0,3,1.16,11.21,11.21,0,0,0,2.87.42,2.79,2.79,0,0,0,1.66-.39,1.2,1.2,0,0,0,.53-1,1.11,1.11,0,0,0-.21-0.67A2.48,2.48,0,0,0,94,36.61q-0.47-.29-2.49-1.21a12,12,0,0,1-2.75-1.62A5,5,0,0,1,87.42,32,6,6,0,0,1,87,29.6a4.81,4.81,0,0,1,1.88-4A8.31,8.31,0,0,1,94,24.11,14.54,14.54,0,0,1,100,25.45l-1.55,3.91a11.25,11.25,0,0,0-4.54-1.21,2.36,2.36,0,0,0-1.44.35,1,1,0,0,0-.45.86,1.24,1.24,0,0,0,.57,1,21.73,21.73,0,0,0,3.1,1.59A8.56,8.56,0,0,1,99,34.29,5.08,5.08,0,0,1,100,37.43Z"/><path class="cls-1" d="M118.83,24.38V35.66a7.57,7.57,0,0,1-2.08,5.7,8.29,8.29,0,0,1-6,2,8.21,8.21,0,0,1-5.89-2,7.43,7.43,0,0,1-2.06-5.64V24.38h5.09v11a4.51,4.51,0,0,0,.74,2.89,3.21,3.21,0,0,0,4.44,0,4.77,4.77,0,0,0,.7-2.92v-11h5.07Z"/><path class="cls-1" d="M122.77,24.38h6.54A11.13,11.13,0,0,1,135,25.51,3.85,3.85,0,0,1,136.84,29a4.47,4.47,0,0,1-.81,2.69,3.6,3.6,0,0,1-2.13,1.44V33.3a4.36,4.36,0,0,1,2.53,1.54,4.65,4.65,0,0,1,.78,2.8,4.79,4.79,0,0,1-1.92,4,8.4,8.4,0,0,1-5.23,1.47h-7.3V24.38Zm5.07,7.2h1.53a2.75,2.75,0,0,0,1.69-.45,1.56,1.56,0,0,0,.6-1.33q0-1.58-2.39-1.58h-1.42v3.36Zm0,3.71v3.94h1.78q2.37,0,2.37-2a1.72,1.72,0,0,0-.64-1.44,2.92,2.92,0,0,0-1.84-.5h-1.68Z"/><path class="cls-1" d="M151.6,43.13H140.47V24.38H151.6v4.07h-6.07v3h5.62v4.07h-5.62V39h6.07v4.13Z"/><path class="cls-1" d="M170,43.13h-5.07V28.52h-4.58V24.38h14.21v4.14H170V43.13Z"/><path class="cls-1" d="M193.18,24.38V35.66a7.57,7.57,0,0,1-2.08,5.7,9.89,9.89,0,0,1-11.9.06,7.43,7.43,0,0,1-2.06-5.64V24.38h5.09v11a4.51,4.51,0,0,0,.74,2.89,3.21,3.21,0,0,0,4.44,0,4.77,4.77,0,0,0,.7-2.92v-11h5.07Z"/><path class="cls-1" d="M209.38,37.43a5.53,5.53,0,0,1-.89,3.1,5.79,5.79,0,0,1-2.55,2.1,9.45,9.45,0,0,1-3.91.75,15.79,15.79,0,0,1-3.14-.26,11.62,11.62,0,0,1-2.64-.92V37.69a15,15,0,0,0,3,1.16,11.21,11.21,0,0,0,2.87.42,2.79,2.79,0,0,0,1.66-.39,1.2,1.2,0,0,0,.53-1,1.11,1.11,0,0,0-.21-0.67,2.48,2.48,0,0,0-.68-0.58q-0.47-.29-2.49-1.21a12,12,0,0,1-2.75-1.62,5,5,0,0,1-1.36-1.8,6,6,0,0,1-.44-2.4,4.81,4.81,0,0,1,1.88-4,8.31,8.31,0,0,1,5.18-1.45,14.54,14.54,0,0,1,5.94,1.35l-1.55,3.91a11.25,11.25,0,0,0-4.54-1.21,2.36,2.36,0,0,0-1.44.35,1,1,0,0,0-.45.86,1.24,1.24,0,0,0,.57,1,21.73,21.73,0,0,0,3.1,1.59,8.56,8.56,0,0,1,3.37,2.34A5.08,5.08,0,0,1,209.38,37.43Z"/><path class="cls-1" d="M232.71,30.34a6.28,6.28,0,0,1-1.85,4.86,7.48,7.48,0,0,1-5.27,1.71h-1.42v6.22H219.1V24.38h6.49a7.93,7.93,0,0,1,5.34,1.55A5.54,5.54,0,0,1,232.71,30.34Zm-8.54,2.44h0.92a2.52,2.52,0,0,0,1.81-.64,2.33,2.33,0,0,0,.67-1.77q0-1.9-2.1-1.9h-1.31v4.31Z"/><path class="cls-1" d="M240.77,36.31v6.82H235.7V24.38h6.14q7.65,0,7.65,5.54a5.54,5.54,0,0,1-3.18,5l5.46,8.17H246l-4-6.82h-1.28Zm0-3.81h0.95q2.65,0,2.66-2.35,0-1.94-2.6-1.94h-1V32.5Z"/><path class="cls-1" d="M271,33.73q0,4.73-2.32,7.2t-6.8,2.46q-4.41,0-6.77-2.48t-2.35-7.21q0-4.68,2.34-7.15t6.81-2.47q4.48,0,6.79,2.45T271,33.73Zm-12.9,0q0,5.44,3.78,5.44a3.25,3.25,0,0,0,2.85-1.32,7.24,7.24,0,0,0,.93-4.12,7.29,7.29,0,0,0-.94-4.15,3.22,3.22,0,0,0-2.82-1.34Q258.12,28.24,258.12,33.73Z"/><path class="cls-1" d="M290.33,33.36q0,4.69-2.58,7.23t-7.27,2.54h-6.07V24.38h6.49q4.51,0,7,2.31T290.33,33.36Zm-5.26.18a6,6,0,0,0-1-3.82,3.77,3.77,0,0,0-3.1-1.25h-1.47V39h1.13A4.08,4.08,0,0,0,284,37.63,6.47,6.47,0,0,0,285.07,33.54Z"/><path class="cls-1" d="M309.64,24.38V35.66a7.57,7.57,0,0,1-2.08,5.7,9.89,9.89,0,0,1-11.9.06,7.43,7.43,0,0,1-2.06-5.64V24.38h5.09v11a4.51,4.51,0,0,0,.74,2.89,3.21,3.21,0,0,0,4.44,0,4.77,4.77,0,0,0,.7-2.92v-11h5.07Z"/><path class="cls-1" d="M321.92,28.26a3.23,3.23,0,0,0-2.82,1.48,7.15,7.15,0,0,0-1,4.09q0,5.41,4.12,5.41a8.42,8.42,0,0,0,2.41-.35,24.23,24.23,0,0,0,2.35-.83v4.28a13,13,0,0,1-5.31,1,8.4,8.4,0,0,1-6.51-2.46q-2.26-2.46-2.26-7.12a11.35,11.35,0,0,1,1.1-5.12,7.85,7.85,0,0,1,3.16-3.39A9.54,9.54,0,0,1,322,24.11a13.35,13.35,0,0,1,5.81,1.32l-1.55,4a17.63,17.63,0,0,0-2.08-.82A7.25,7.25,0,0,0,321.92,28.26Z"/><path class="cls-1" d="M338.9,43.13h-5.07V28.52h-4.58V24.38h14.21v4.14H338.9V43.13Z"/><path class="cls-1" d="M363.69,33.73q0,4.73-2.32,7.2t-6.8,2.46q-4.41,0-6.77-2.48t-2.35-7.21q0-4.68,2.34-7.15t6.81-2.47q4.48,0,6.79,2.45T363.69,33.73Zm-12.9,0q0,5.44,3.78,5.44a3.25,3.25,0,0,0,2.85-1.32,7.24,7.24,0,0,0,.93-4.12,7.29,7.29,0,0,0-.94-4.15,3.22,3.22,0,0,0-2.82-1.34Q350.79,28.24,350.79,33.73Z"/><path class="cls-1" d="M379.34,37.43a5.53,5.53,0,0,1-.89,3.1,5.79,5.79,0,0,1-2.55,2.1,9.45,9.45,0,0,1-3.91.75,15.79,15.79,0,0,1-3.14-.26,11.62,11.62,0,0,1-2.64-.92V37.69a15,15,0,0,0,3,1.16,11.21,11.21,0,0,0,2.87.42,2.79,2.79,0,0,0,1.66-.39,1.2,1.2,0,0,0,.53-1,1.11,1.11,0,0,0-.21-0.67,2.48,2.48,0,0,0-.68-0.58q-0.47-.29-2.49-1.21a12,12,0,0,1-2.75-1.62,5,5,0,0,1-1.36-1.8,6,6,0,0,1-.44-2.4,4.81,4.81,0,0,1,1.88-4,8.31,8.31,0,0,1,5.18-1.45,14.54,14.54,0,0,1,5.94,1.35l-1.55,3.91a11.25,11.25,0,0,0-4.54-1.21,2.36,2.36,0,0,0-1.44.35,1,1,0,0,0-.45.86,1.24,1.24,0,0,0,.57,1,21.73,21.73,0,0,0,3.1,1.59,8.56,8.56,0,0,1,3.37,2.34A5.08,5.08,0,0,1,379.34,37.43Z"/><path class="cls-1" d="M185.8,67.21l-0.92-3.51h-6.09l-0.95,3.51h-5.57l6.12-18.83h6.76l6.2,18.83H185.8Zm-2-7.67L183,56.46q-0.28-1-.69-2.66t-0.53-2.33q-0.11.65-.46,2.16t-1.51,5.91h4Z"/><path class="cls-1" d="M218,67.21H211.4L204.55,54h-0.12q0.24,3.12.24,4.76v8.45h-4.49V48.46h6.62l6.82,13h0.08q-0.18-2.84-.18-4.55V48.46H218V67.21Z"/><path class="cls-1" d="M238,48.46V59.75a7.57,7.57,0,0,1-2.08,5.7,9.89,9.89,0,0,1-11.9.06A7.43,7.43,0,0,1,222,59.86V48.46h5.09v11a4.51,4.51,0,0,0,.74,2.89,3.21,3.21,0,0,0,4.44,0,4.77,4.77,0,0,0,.7-2.92v-11H238Z"/><path class="cls-1" d="M253.12,67.21H242V48.46h11.13v4.07h-6.07v3h5.62v4.07h-5.62v3.54h6.07v4.13Z"/><path class="cls-1" d="M268.67,61.52a5.53,5.53,0,0,1-.89,3.1,5.79,5.79,0,0,1-2.55,2.1,9.45,9.45,0,0,1-3.91.75,15.79,15.79,0,0,1-3.14-.26,11.62,11.62,0,0,1-2.64-.92V61.77a15,15,0,0,0,3,1.16,11.21,11.21,0,0,0,2.87.42,2.79,2.79,0,0,0,1.66-.39,1.2,1.2,0,0,0,.53-1,1.11,1.11,0,0,0-.21-0.67,2.48,2.48,0,0,0-.68-0.58q-0.47-.29-2.49-1.21a12,12,0,0,1-2.75-1.62,5,5,0,0,1-1.36-1.8,6,6,0,0,1-.44-2.4,4.81,4.81,0,0,1,1.88-4,8.31,8.31,0,0,1,5.18-1.45,14.54,14.54,0,0,1,5.94,1.35l-1.55,3.91a11.25,11.25,0,0,0-4.54-1.21,2.36,2.36,0,0,0-1.44.35,1,1,0,0,0-.45.86,1.24,1.24,0,0,0,.57,1,21.73,21.73,0,0,0,3.1,1.59,8.56,8.56,0,0,1,3.37,2.34A5.08,5.08,0,0,1,268.67,61.52Z"/><path class="cls-1" d="M279.84,67.21h-5.07V52.6h-4.58V48.46h14.21V52.6h-4.57V67.21Z"/><path class="cls-1" d="M292.15,60.39v6.82h-5.07V48.46h6.14q7.65,0,7.65,5.54a5.54,5.54,0,0,1-3.18,5l5.46,8.17h-5.75l-4-6.82h-1.28Zm0-3.81h0.95q2.65,0,2.66-2.35,0-1.94-2.6-1.94h-1v4.28Z"/><path class="cls-1" d="M316.37,67.21l-0.92-3.51h-6.09l-0.95,3.51h-5.57L309,48.38h6.76l6.2,18.83h-5.54Zm-2-7.67-0.81-3.08q-0.28-1-.69-2.66t-0.53-2.33q-0.11.65-.46,2.16t-1.51,5.91h4Z"/><path class="cls-1" d="M335.83,60.39v6.82h-5.07V48.46h6.14q7.65,0,7.65,5.54a5.54,5.54,0,0,1-3.18,5l5.46,8.17h-5.75l-4-6.82h-1.28Zm0-3.81h0.95q2.65,0,2.66-2.35,0-1.94-2.6-1.94h-1v4.28Z"/><path class="cls-1" d="M359.68,67.21H348.54V48.46h11.13v4.07h-6.07v3h5.62v4.07h-5.62v3.54h6.07v4.13Z"/><path class="cls-1" d="M378.88,57.44q0,4.69-2.58,7.23T369,67.21H363V48.46h6.49q4.51,0,7,2.31T378.88,57.44Zm-5.26.18a6,6,0,0,0-1-3.82,3.77,3.77,0,0,0-3.1-1.25H368V63.06h1.13a4.08,4.08,0,0,0,3.39-1.34A6.47,6.47,0,0,0,373.62,57.62Z"/><path class="cls-1" d="M22.74,58.68A22.74,22.74,0,1,0,45.48,81.41,22.74,22.74,0,0,0,22.74,58.68Zm5.5,35.83h-7V81.08q0-2.45.1-4.47a14.94,14.94,0,0,1-1.6,1.63l-2.88,2.38-3.56-4.37,8.71-7.09h6.17V94.5Z"/><path class="cls-1" d="M124.14,91.88H102a6.51,6.51,0,0,1,0-13h0.33a6.13,6.13,0,0,1,6.25-5.79h2.08a5.27,5.27,0,0,1,5.39-4.2h1.71c3,0,5.15,1.84,5.45,4.45a6.24,6.24,0,0,1,3.48,5.58c0,0.13,0,.25,0,0.38a6.8,6.8,0,0,1,3.68,6A6.5,6.5,0,0,1,124.14,91.88ZM102,80.88a4.51,4.51,0,0,0,0,9h22.12a4.53,4.53,0,0,0,4.23-4.58,4.68,4.68,0,0,0-3-4.41l-0.88-.26,0.18-.9A4.22,4.22,0,0,0,122.08,75l-0.63.06-0.06-.31-0.24-.09,0.11-.94c-0.12-2-1.85-2.84-3.47-2.84h-1.71a3.31,3.31,0,0,0-3.56,3.2v1l-3.94,0a4.12,4.12,0,0,0-4.24,4.1l0.11,1.69H102Z"/><path class="cls-1" d="M161.11,121.24H62.65V52.74h98.46v68.49Zm-96.46-2h94.46V54.74H64.65v64.49Z"/><path class="cls-1" d="M155.4,107.1h-87v-49h87v49Zm-85-2h83v-45h-83v45Z"/><path class="cls-1" d="M121.94,128.47H103v-9.23h19v9.23Zm-17-2h15v-5.23H105v5.23Z"/><path class="cls-1" d="M127.79,131.79H97.11v-5.32h30.68v5.32Zm-28.68-2h26.68v-1.32H99.11v1.32Z"/><path class="cls-1" d="M155.4,134.36H138.19v-1c0-3.44,3.78-6.14,8.61-6.14s8.61,2.7,8.61,6.14v1Zm-15-2H153.2c-0.74-1.78-3.37-3.14-6.4-3.14S141.13,130.58,140.39,132.36Z"/><rect class="cls-1" x="153.38" y="129.79" width="17.77" height="2"/><rect class="cls-1" x="56.85" y="129.79" width="83.35" height="2"/><polygon class="cls-1" points="120.75 86.11 113.87 79.96 106.99 86.11 109.69 86.34 109.69 95.25 118.05 95.25 118.05 86.34 120.75 86.11"/><path class="cls-1" d="M210.57,84a3.86,3.86,0,0,1-2.79-1,3.6,3.6,0,0,1-1-2.72,3.92,3.92,0,0,1,.92-2.8,3.44,3.44,0,0,1,2.63-1,3.49,3.49,0,0,1,2.51.85,3.22,3.22,0,0,1,.89,2.44V81H209.3a1.23,1.23,0,0,0,.44.95,1.73,1.73,0,0,0,1.13.34,5.44,5.44,0,0,0,1.2-.12,5.91,5.91,0,0,0,1.19-.42v1.78a4.37,4.37,0,0,1-1.21.41A8.35,8.35,0,0,1,210.57,84Zm-0.15-5.76a1,1,0,0,0-.73.28,1.3,1.3,0,0,0-.35.87h2.13a1.23,1.23,0,0,0-.29-0.83A1,1,0,0,0,210.43,78.25Z"/><path class="cls-1" d="M220.37,81.67a2,2,0,0,1-.79,1.75,3.72,3.72,0,0,1-2.26.59,9.72,9.72,0,0,1-1.39-.09,5.88,5.88,0,0,1-1.21-.31v-2A7.55,7.55,0,0,0,216,82a5.32,5.32,0,0,0,1.23.17q0.81,0,.81-0.37a0.42,0.42,0,0,0-.22-0.34,10.37,10.37,0,0,0-1.31-.58A3.27,3.27,0,0,1,215.1,80a2.11,2.11,0,0,1-.39-1.31,1.81,1.81,0,0,1,.77-1.56,3.7,3.7,0,0,1,2.19-.56,5.53,5.53,0,0,1,1.34.16,7.88,7.88,0,0,1,1.3.45l-0.67,1.6a7.5,7.5,0,0,0-1-.38,3.49,3.49,0,0,0-.9-0.16c-0.41,0-.61.1-0.61,0.3a0.37,0.37,0,0,0,.21.31,11.54,11.54,0,0,0,1.23.53,4.69,4.69,0,0,1,1.13.61,1.81,1.81,0,0,1,.55.7A2.47,2.47,0,0,1,220.37,81.67Z"/><path class="cls-1" d="M225.74,84a2.52,2.52,0,0,1-1-.18,2.5,2.5,0,0,1-.86-0.65h-0.11a9.16,9.16,0,0,1,.11.94V87h-2.48V76.69h2l0.35,0.91h0.11a2.18,2.18,0,0,1,1.91-1,2.15,2.15,0,0,1,1.87,1,4.74,4.74,0,0,1,.68,2.72,4.67,4.67,0,0,1-.71,2.74A2.23,2.23,0,0,1,225.74,84Zm-0.83-5.5a0.8,0.8,0,0,0-.76.39,2.55,2.55,0,0,0-.24,1.16v0.2a2.73,2.73,0,0,0,.25,1.34,0.84,0.84,0,0,0,.78.41,0.73,0.73,0,0,0,.69-0.41,3.09,3.09,0,0,0,.22-1.35,3,3,0,0,0-.22-1.33A0.75,0.75,0,0,0,224.9,78.51Z"/><path class="cls-1" d="M232.93,84a3.86,3.86,0,0,1-2.79-1,3.6,3.6,0,0,1-1-2.72,3.92,3.92,0,0,1,.92-2.8,3.44,3.44,0,0,1,2.63-1,3.49,3.49,0,0,1,2.51.85,3.22,3.22,0,0,1,.89,2.44V81h-4.44a1.23,1.23,0,0,0,.44.95,1.73,1.73,0,0,0,1.13.34,5.44,5.44,0,0,0,1.2-.12,5.91,5.91,0,0,0,1.19-.42v1.78a4.37,4.37,0,0,1-1.21.41A8.35,8.35,0,0,1,232.93,84Zm-0.15-5.76a1,1,0,0,0-.73.28,1.3,1.3,0,0,0-.35.87h2.13a1.23,1.23,0,0,0-.29-0.83A1,1,0,0,0,232.78,78.25Z"/><path class="cls-1" d="M241.51,76.56a3.56,3.56,0,0,1,.62.05l0.14,0L242,79a3.66,3.66,0,0,0-.84-0.08,1.61,1.61,0,0,0-1.18.37,1.46,1.46,0,0,0-.37,1.07v3.54h-2.48V76.69H239l0.39,1.15h0.12a2.49,2.49,0,0,1,.87-0.92A2.08,2.08,0,0,1,241.51,76.56Z"/><path class="cls-1" d="M247.63,83.88l-0.48-1h-0.05a2.83,2.83,0,0,1-1,.85,3.38,3.38,0,0,1-1.35.23,2.11,2.11,0,0,1-1.6-.61,2.38,2.38,0,0,1-.58-1.71,2,2,0,0,1,.8-1.71,4.38,4.38,0,0,1,2.32-.63l1.2,0V79.2a0.78,0.78,0,0,0-.88-0.89,5.24,5.24,0,0,0-2,.53l-0.72-1.64a6.9,6.9,0,0,1,3.17-.65,3.08,3.08,0,0,1,2.14.69,2.45,2.45,0,0,1,.76,1.92v4.72h-1.72Zm-1.84-1.62a1.12,1.12,0,0,0,.77-0.29,1,1,0,0,0,.32-0.74V80.67l-0.57,0q-1.22,0-1.23.9A0.6,0.6,0,0,0,245.79,82.26Z"/><path class="cls-1" d="M258.31,83.88V80a2.25,2.25,0,0,0-.21-1.08,0.71,0.71,0,0,0-.66-0.37,1,1,0,0,0-.91.5,3.8,3.8,0,0,0-.28,1.72v3.15h-2.48V76.69h1.87L256,77.58h0.15a2,2,0,0,1,.88-0.76,3.1,3.1,0,0,1,1.29-.25,2.45,2.45,0,0,1,1.86.69,2.7,2.7,0,0,1,.66,1.95v4.68h-2.48Z"/><path class="cls-1" d="M267.27,83.88L267,83h-0.15a2,2,0,0,1-.87.76,3,3,0,0,1-1.3.26,2.44,2.44,0,0,1-1.85-.69,2.7,2.7,0,0,1-.66-1.95V76.69h2.48v3.93a2.25,2.25,0,0,0,.2,1.07,0.69,0.69,0,0,0,.66.36,1,1,0,0,0,.91-0.5,3.85,3.85,0,0,0,.27-1.7V76.69h2.48v7.19h-1.87Z"/><path class="cls-1" d="M274,84a3.86,3.86,0,0,1-2.79-1,3.6,3.6,0,0,1-1-2.72,3.92,3.92,0,0,1,.92-2.8,3.44,3.44,0,0,1,2.63-1,3.49,3.49,0,0,1,2.51.85,3.22,3.22,0,0,1,.89,2.44V81h-4.44a1.23,1.23,0,0,0,.44.95,1.73,1.73,0,0,0,1.13.34,5.44,5.44,0,0,0,1.2-.12,5.91,5.91,0,0,0,1.19-.42v1.78a4.37,4.37,0,0,1-1.21.41A8.35,8.35,0,0,1,274,84Zm-0.15-5.76a1,1,0,0,0-.73.28,1.3,1.3,0,0,0-.35.87h2.13a1.23,1.23,0,0,0-.29-0.83A1,1,0,0,0,273.86,78.25Z"/><path class="cls-1" d="M283.8,81.67a2,2,0,0,1-.79,1.75,3.72,3.72,0,0,1-2.26.59,9.72,9.72,0,0,1-1.39-.09,5.88,5.88,0,0,1-1.21-.31v-2a7.55,7.55,0,0,0,1.27.42,5.32,5.32,0,0,0,1.23.17q0.81,0,.81-0.37a0.42,0.42,0,0,0-.22-0.34,10.37,10.37,0,0,0-1.31-.58,3.27,3.27,0,0,1-1.38-.92,2.11,2.11,0,0,1-.39-1.31,1.81,1.81,0,0,1,.77-1.56,3.7,3.7,0,0,1,2.19-.56,5.53,5.53,0,0,1,1.34.16,7.88,7.88,0,0,1,1.3.45l-0.67,1.6a7.5,7.5,0,0,0-1-.38,3.49,3.49,0,0,0-.9-0.16c-0.41,0-.61.1-0.61,0.3a0.37,0.37,0,0,0,.21.31,11.54,11.54,0,0,0,1.23.53,4.69,4.69,0,0,1,1.13.61,1.81,1.81,0,0,1,.55.7A2.47,2.47,0,0,1,283.8,81.67Z"/><path class="cls-1" d="M288.38,82a3.7,3.7,0,0,0,1.2-.25v1.81a4.87,4.87,0,0,1-1,.31,5.4,5.4,0,0,1-1.06.09,2.33,2.33,0,0,1-1.8-.61,2.75,2.75,0,0,1-.55-1.88v-3h-0.87v-1l1.11-.78,0.64-1.51h1.63v1.44h1.76v1.86H287.7v2.8A0.61,0.61,0,0,0,288.38,82Z"/><path class="cls-1" d="M294.85,76.56a3.56,3.56,0,0,1,.62.05l0.14,0L295.38,79a3.66,3.66,0,0,0-.84-0.08,1.61,1.61,0,0,0-1.18.37,1.46,1.46,0,0,0-.37,1.07v3.54h-2.48V76.69h1.85l0.39,1.15h0.12a2.49,2.49,0,0,1,.87-0.92A2.08,2.08,0,0,1,294.85,76.56Z"/><path class="cls-1" d="M301,83.88l-0.48-1h-0.05a2.83,2.83,0,0,1-1,.85,3.38,3.38,0,0,1-1.35.23,2.11,2.11,0,0,1-1.6-.61,2.38,2.38,0,0,1-.58-1.71,2,2,0,0,1,.8-1.71,4.38,4.38,0,0,1,2.32-.63l1.2,0V79.2a0.78,0.78,0,0,0-.88-0.89,5.24,5.24,0,0,0-2,.53l-0.72-1.64a6.9,6.9,0,0,1,3.17-.65,3.08,3.08,0,0,1,2.14.69,2.45,2.45,0,0,1,.76,1.92v4.72H301Zm-1.84-1.62A1.12,1.12,0,0,0,299.9,82a1,1,0,0,0,.32-0.74V80.67l-0.57,0q-1.22,0-1.23.9A0.6,0.6,0,0,0,299.13,82.26Z"/><path class="cls-1" d="M311.45,76.56a3.56,3.56,0,0,1,.62.05l0.14,0L312,79a3.66,3.66,0,0,0-.84-0.08,1.61,1.61,0,0,0-1.18.37,1.46,1.46,0,0,0-.37,1.07v3.54h-2.48V76.69H309l0.39,1.15h0.12a2.49,2.49,0,0,1,.87-0.92A2.08,2.08,0,0,1,311.45,76.56Z"/><path class="cls-1" d="M316.36,84a3.86,3.86,0,0,1-2.79-1,3.6,3.6,0,0,1-1-2.72,3.92,3.92,0,0,1,.92-2.8,3.44,3.44,0,0,1,2.63-1,3.49,3.49,0,0,1,2.51.85,3.22,3.22,0,0,1,.89,2.44V81h-4.44a1.23,1.23,0,0,0,.44.95,1.73,1.73,0,0,0,1.13.34,5.44,5.44,0,0,0,1.2-.12A5.91,5.91,0,0,0,319,81.7v1.78a4.37,4.37,0,0,1-1.21.41A8.35,8.35,0,0,1,316.36,84Zm-0.15-5.76a1,1,0,0,0-.73.28,1.3,1.3,0,0,0-.35.87h2.13a1.23,1.23,0,0,0-.29-0.83A1,1,0,0,0,316.21,78.25Z"/><path class="cls-1" d="M326.15,81.67a2,2,0,0,1-.79,1.75,3.72,3.72,0,0,1-2.26.59,9.72,9.72,0,0,1-1.39-.09,5.88,5.88,0,0,1-1.21-.31v-2a7.55,7.55,0,0,0,1.27.42,5.32,5.32,0,0,0,1.23.17q0.81,0,.81-0.37a0.42,0.42,0,0,0-.22-0.34,10.37,10.37,0,0,0-1.31-.58,3.27,3.27,0,0,1-1.38-.92,2.11,2.11,0,0,1-.39-1.31,1.81,1.81,0,0,1,.77-1.56,3.7,3.7,0,0,1,2.19-.56,5.53,5.53,0,0,1,1.34.16,7.88,7.88,0,0,1,1.3.45l-0.67,1.6a7.5,7.5,0,0,0-1-.38,3.49,3.49,0,0,0-.9-0.16c-0.41,0-.61.1-0.61,0.3a0.37,0.37,0,0,0,.21.31,11.54,11.54,0,0,0,1.23.53,4.69,4.69,0,0,1,1.13.61,1.81,1.81,0,0,1,.55.7A2.47,2.47,0,0,1,326.15,81.67Z"/><path class="cls-1" d="M331.52,84a2.52,2.52,0,0,1-1-.18,2.5,2.5,0,0,1-.86-0.65h-0.11a9.16,9.16,0,0,1,.11.94V87H327.2V76.69h2l0.35,0.91h0.11a2.18,2.18,0,0,1,1.91-1,2.15,2.15,0,0,1,1.87,1,4.74,4.74,0,0,1,.68,2.72,4.67,4.67,0,0,1-.71,2.74A2.23,2.23,0,0,1,331.52,84Zm-0.83-5.5a0.8,0.8,0,0,0-.76.39,2.55,2.55,0,0,0-.24,1.16v0.2a2.73,2.73,0,0,0,.25,1.34,0.84,0.84,0,0,0,.78.41,0.73,0.73,0,0,0,.69-0.41,3.09,3.09,0,0,0,.22-1.35,3,3,0,0,0-.22-1.33A0.75,0.75,0,0,0,330.69,78.51Z"/><path class="cls-1" d="M340.36,83.88L340,83H339.9a2,2,0,0,1-.87.76,3,3,0,0,1-1.3.26,2.44,2.44,0,0,1-1.85-.69,2.7,2.7,0,0,1-.66-1.95V76.69h2.48v3.93a2.25,2.25,0,0,0,.2,1.07,0.69,0.69,0,0,0,.66.36,1,1,0,0,0,.91-0.5,3.85,3.85,0,0,0,.27-1.7V76.69h2.48v7.19h-1.87Z"/><path class="cls-1" d="M347.09,84a3.86,3.86,0,0,1-2.79-1,3.6,3.6,0,0,1-1-2.72,3.92,3.92,0,0,1,.92-2.8,3.44,3.44,0,0,1,2.63-1,3.49,3.49,0,0,1,2.51.85,3.22,3.22,0,0,1,.89,2.44V81h-4.44a1.23,1.23,0,0,0,.44.95,1.73,1.73,0,0,0,1.13.34,5.44,5.44,0,0,0,1.2-.12,5.91,5.91,0,0,0,1.19-.42v1.78a4.37,4.37,0,0,1-1.21.41A8.35,8.35,0,0,1,347.09,84Zm-0.15-5.76a1,1,0,0,0-.73.28,1.3,1.3,0,0,0-.35.87H348a1.23,1.23,0,0,0-.29-0.83A1,1,0,0,0,346.95,78.25Z"/><path class="cls-1" d="M356.89,81.67a2,2,0,0,1-.79,1.75,3.72,3.72,0,0,1-2.26.59,9.72,9.72,0,0,1-1.39-.09,5.88,5.88,0,0,1-1.21-.31v-2a7.55,7.55,0,0,0,1.27.42,5.32,5.32,0,0,0,1.23.17q0.81,0,.81-0.37a0.42,0.42,0,0,0-.22-0.34,10.37,10.37,0,0,0-1.31-.58,3.27,3.27,0,0,1-1.38-.92,2.11,2.11,0,0,1-.39-1.31,1.81,1.81,0,0,1,.77-1.56,3.7,3.7,0,0,1,2.19-.56,5.53,5.53,0,0,1,1.34.16,7.88,7.88,0,0,1,1.3.45l-0.67,1.6a7.5,7.5,0,0,0-1-.38,3.49,3.49,0,0,0-.9-0.16c-0.41,0-.61.1-0.61,0.3a0.37,0.37,0,0,0,.21.31,11.54,11.54,0,0,0,1.23.53,4.69,4.69,0,0,1,1.13.61,1.81,1.81,0,0,1,.55.7A2.47,2.47,0,0,1,356.89,81.67Z"/><path class="cls-1" d="M361.46,82a3.7,3.7,0,0,0,1.2-.25v1.81a4.87,4.87,0,0,1-1,.31,5.4,5.4,0,0,1-1.06.09,2.33,2.33,0,0,1-1.8-.61,2.75,2.75,0,0,1-.55-1.88v-3h-0.87v-1l1.11-.78,0.64-1.51h1.63v1.44h1.76v1.86h-1.76v2.8A0.61,0.61,0,0,0,361.46,82Z"/><path class="cls-1" d="M368.28,83.88l-0.48-1h-0.05a2.83,2.83,0,0,1-1,.85,3.38,3.38,0,0,1-1.35.23,2.11,2.11,0,0,1-1.6-.61,2.38,2.38,0,0,1-.58-1.71A2,2,0,0,1,364,80a4.38,4.38,0,0,1,2.32-.63l1.2,0V79.2a0.78,0.78,0,0,0-.88-0.89,5.24,5.24,0,0,0-2,.53l-0.72-1.64a6.9,6.9,0,0,1,3.17-.65,3.08,3.08,0,0,1,2.14.69,2.45,2.45,0,0,1,.76,1.92v4.72h-1.72Zm-1.84-1.62a1.12,1.12,0,0,0,.77-0.29,1,1,0,0,0,.32-0.74V80.67l-0.57,0q-1.22,0-1.23.9A0.6,0.6,0,0,0,366.44,82.26Z"/><path class="cls-1" d="M371.06,82.83a1.16,1.16,0,0,1,.35-0.9,1.44,1.44,0,0,1,1-.32,1.35,1.35,0,0,1,1,.32,1.18,1.18,0,0,1,.34.9,1.16,1.16,0,0,1-.35.89,1.35,1.35,0,0,1-1,.32,1.45,1.45,0,0,1-1-.32A1.13,1.13,0,0,1,371.06,82.83Z"/><path class="cls-1" d="M374.49,82.83a1.16,1.16,0,0,1,.35-0.9,1.44,1.44,0,0,1,1-.32,1.35,1.35,0,0,1,1,.32,1.18,1.18,0,0,1,.34.9,1.16,1.16,0,0,1-.35.89,1.35,1.35,0,0,1-1,.32,1.45,1.45,0,0,1-1-.32A1.13,1.13,0,0,1,374.49,82.83Z"/><path class="cls-1" d="M377.92,82.83a1.16,1.16,0,0,1,.35-0.9,1.44,1.44,0,0,1,1-.32,1.35,1.35,0,0,1,1,.32,1.18,1.18,0,0,1,.34.9,1.16,1.16,0,0,1-.35.89,1.35,1.35,0,0,1-1,.32,1.45,1.45,0,0,1-1-.32A1.13,1.13,0,0,1,377.92,82.83Z"/><path class="cls-1" d="M139.61,164.9q0,4.5-2.48,6.93a9.51,9.51,0,0,1-7,2.43h-5.81v-18h6.22a9.38,9.38,0,0,1,6.68,2.21A8.35,8.35,0,0,1,139.61,164.9Zm-5,.17a5.71,5.71,0,0,0-1-3.66,3.61,3.61,0,0,0-3-1.19h-1.41v10.06h1.08a3.91,3.91,0,0,0,3.24-1.28A6.2,6.2,0,0,0,134.57,165.07Z"/><path class="cls-1" d="M152.24,174.26H141.57v-18h10.67v3.9h-5.81V163h5.38v3.9h-5.38v3.39h5.81v4Z"/><path class="cls-1" d="M158.91,174.26h-4.78v-18h10.62v3.9h-5.84v3.43h5.38v3.9h-5.38v6.75Z"/><path class="cls-1" d="M166.43,174.26v-18h4.88v18h-4.88Z"/><path class="cls-1" d="M191,174.26h-6.37l-6.56-12.66H178q0.23,3,.23,4.56v8.1h-4.3v-18h6.34l6.54,12.49h0.07q-0.17-2.72-.17-4.36V156.3H191v18Z"/><path class="cls-1" d="M204.34,174.26H193.67v-18h10.67v3.9h-5.81V163h5.38v3.9h-5.38v3.39h5.81v4Z"/><path class="cls-1" d="M219.43,174.26h-4.85v-14h-4.39v-4H223.8v4h-4.37v14Z"/><path class="cls-1" d="M240.39,156.3v10.81a7.26,7.26,0,0,1-2,5.46,8,8,0,0,1-5.76,1.94,7.87,7.87,0,0,1-5.65-1.88,7.12,7.12,0,0,1-2-5.41V156.3h4.88v10.54a4.32,4.32,0,0,0,.71,2.77,3.07,3.07,0,0,0,4.26,0,4.57,4.57,0,0,0,.67-2.8V156.3h4.85Z"/><path class="cls-1" d="M254.65,168.81a5.3,5.3,0,0,1-.85,3,5.56,5.56,0,0,1-2.45,2,9.08,9.08,0,0,1-3.75.72,15.16,15.16,0,0,1-3-.25,11.15,11.15,0,0,1-2.53-.88v-4.33a14.41,14.41,0,0,0,2.89,1.11,10.74,10.74,0,0,0,2.75.4,2.67,2.67,0,0,0,1.59-.37,1.15,1.15,0,0,0,.5-1,1.07,1.07,0,0,0-.2-0.65,2.35,2.35,0,0,0-.65-0.56q-0.45-.28-2.39-1.16a11.49,11.49,0,0,1-2.64-1.55,4.75,4.75,0,0,1-1.3-1.72,5.71,5.71,0,0,1-.42-2.3,4.61,4.61,0,0,1,1.81-3.87,8,8,0,0,1,5-1.39,13.93,13.93,0,0,1,5.69,1.29l-1.49,3.75a10.77,10.77,0,0,0-4.35-1.16,2.26,2.26,0,0,0-1.38.33,1,1,0,0,0-.43.82,1.19,1.19,0,0,0,.55.95,20.85,20.85,0,0,0,3,1.52,8.2,8.2,0,0,1,3.23,2.24A4.87,4.87,0,0,1,254.65,168.81Z"/><path class="cls-1" d="M274.49,162a6,6,0,0,1-1.78,4.65,7.16,7.16,0,0,1-5,1.64H266.3v6h-4.85v-18h6.22a7.6,7.6,0,0,1,5.11,1.49A5.31,5.31,0,0,1,274.49,162Zm-8.18,2.33h0.88a2.42,2.42,0,0,0,1.74-.61,2.23,2.23,0,0,0,.65-1.7q0-1.82-2-1.82H266.3v4.13Z"/><path class="cls-1" d="M280.95,167.72v6.54h-4.85v-18H282q7.32,0,7.32,5.31a5.31,5.31,0,0,1-3,4.83l5.23,7.83H286l-3.81-6.54h-1.23Zm0-3.65h0.91q2.54,0,2.54-2.25,0-1.85-2.5-1.86h-1v4.1Z"/><path class="cls-1" d="M302.53,174.26H291.86v-18h10.67v3.9h-5.81V163h5.38v3.9h-5.38v3.39h5.81v4Z"/><path class="cls-1" d="M312.42,160a3.09,3.09,0,0,0-2.7,1.42,6.85,6.85,0,0,0-1,3.91q0,5.19,3.94,5.19a8.07,8.07,0,0,0,2.31-.33,23,23,0,0,0,2.25-.8v4.1a12.44,12.44,0,0,1-5.09,1,8,8,0,0,1-6.24-2.36q-2.17-2.36-2.17-6.82a10.87,10.87,0,0,1,1.05-4.9,7.52,7.52,0,0,1,3-3.25,9.14,9.14,0,0,1,4.64-1.14A12.78,12.78,0,0,1,318,157.3l-1.49,3.82a16.65,16.65,0,0,0-2-.79A7,7,0,0,0,312.42,160Z"/><path class="cls-1" d="M319.49,174.26v-18h4.88v18h-4.88Z"/><path class="cls-1" d="M343.81,165.25q0,4.54-2.22,6.89t-6.51,2.36a8.52,8.52,0,0,1-6.48-2.37q-2.26-2.37-2.25-6.91t2.24-6.85q2.24-2.37,6.52-2.37t6.5,2.35Q343.81,160.71,343.81,165.25Zm-12.36,0q0,5.21,3.63,5.21a3.12,3.12,0,0,0,2.73-1.27,9.19,9.19,0,0,0,0-7.92,3.08,3.08,0,0,0-2.7-1.28Q331.44,160,331.44,165.25Z"/><path class="cls-1" d="M357.54,168.81a5.3,5.3,0,0,1-.85,3,5.56,5.56,0,0,1-2.45,2,9.08,9.08,0,0,1-3.75.72,15.16,15.16,0,0,1-3-.25,11.15,11.15,0,0,1-2.53-.88v-4.33a14.41,14.41,0,0,0,2.89,1.11,10.74,10.74,0,0,0,2.75.4,2.67,2.67,0,0,0,1.59-.37,1.15,1.15,0,0,0,.5-1,1.07,1.07,0,0,0-.2-0.65,2.35,2.35,0,0,0-.65-0.56q-0.45-.28-2.39-1.16a11.49,11.49,0,0,1-2.64-1.55,4.75,4.75,0,0,1-1.3-1.72,5.71,5.71,0,0,1-.42-2.3,4.61,4.61,0,0,1,1.81-3.87,8,8,0,0,1,5-1.39,13.93,13.93,0,0,1,5.69,1.29l-1.49,3.75a10.77,10.77,0,0,0-4.35-1.16,2.26,2.26,0,0,0-1.38.33,1,1,0,0,0-.43.82,1.19,1.19,0,0,0,.55.95,20.85,20.85,0,0,0,3,1.52,8.2,8.2,0,0,1,3.23,2.24A4.87,4.87,0,0,1,357.54,168.81Z"/><path class="cls-1" d="M370.75,163l3.1-6.66h5.26l-5.91,10.95v7h-4.89v-6.87l-5.91-11.1h5.28Z"/><path class="cls-1" d="M153,181v10.81a7.26,7.26,0,0,1-2,5.46,8,8,0,0,1-5.76,1.94,7.87,7.87,0,0,1-5.65-1.88,7.12,7.12,0,0,1-2-5.41V181h4.88v10.54a4.32,4.32,0,0,0,.71,2.77,3.07,3.07,0,0,0,4.26,0,4.57,4.57,0,0,0,.67-2.8V181H153Z"/><path class="cls-1" d="M172.58,199h-6.37l-6.56-12.66h-0.11q0.23,3,.23,4.56V199h-4.3V181h6.34l6.54,12.49h0.07q-0.17-2.72-.17-4.36V181h4.33v18Z"/><path class="cls-1" d="M186.23,199l-0.88-3.37h-5.84L178.6,199h-5.33l5.86-18h6.48l5.94,18h-5.31Zm-1.89-7.35-0.77-2.95q-0.27-1-.66-2.54t-0.51-2.24q-0.11.63-.44,2.06t-1.44,5.67h3.82Z"/><path class="cls-1" d="M207.59,181H213l-5.89,18h-5.71l-5.86-18H201l2.45,9.11a27.77,27.77,0,0,1,.84,4.23q0.09-.86.34-2.15t0.46-2Z"/><path class="cls-1" d="M224.37,199H213.71V181h10.67v3.9h-5.81v2.83h5.38v3.9h-5.38V195h5.81v4Z"/><path class="cls-1" d="M243.37,199H237l-6.56-12.66h-0.11q0.23,3,.23,4.56V199h-4.3V181h6.34l6.54,12.49h0.07q-0.17-2.72-.17-4.36V181h4.33v18Z"/><path class="cls-1" d="M253.92,199h-4.85V185h-4.39v-4h13.62v4h-4.37v14Z"/><path class="cls-1" d="M270.62,199l-0.88-3.37H263.9L263,199h-5.33l5.86-18H270l5.94,18h-5.31Zm-1.89-7.35L268,188.69q-0.27-1-.66-2.54t-0.51-2.24q-0.11.63-.44,2.06t-1.44,5.67h3.82Z"/><path class="cls-1" d="M289.72,199L286,186h-0.11q0.26,3.31.26,5.14V199h-4.3V181h6.46l3.75,12.76h0.1L295.88,181h6.48v18H297.9v-7.88q0-.61,0-1.36t0.17-3.67H298L294.34,199h-4.62Z"/><path class="cls-1" d="M304.94,179.58v-0.36q1.89-2,2.4-2.62t0.84-1.06h5.26v0.26q-1,.79-2.7,2t-2.61,1.77h-3.2Zm0,19.4V181h4.88v18H305Z"/><path class="cls-1" d="M329.58,199h-6.37l-6.56-12.66h-0.11q0.23,3,.23,4.56V199h-4.3V181h6.34l6.54,12.49h0.07q-0.17-2.72-.17-4.36V181h4.33v18Z"/><path class="cls-1" d="M332.2,199V181h4.88v18H332.2Z"/><path class="cls-1" d="M347.53,199L343.86,186h-0.11q0.26,3.31.26,5.14V199h-4.3V181h6.46l3.75,12.76H350L353.69,181h6.48v18h-4.46v-7.88q0-.61,0-1.36t0.17-3.67h-0.11L352.15,199h-4.62Z"/><path class="cls-1" d="M373.8,199l-0.88-3.37h-5.84L366.17,199h-5.33l5.86-18h6.48l5.94,18H373.8Zm-1.89-7.35-0.77-2.95q-0.27-1-.66-2.54T370,183.91q-0.11.63-.44,2.06t-1.44,5.67h3.82Z"/><path class="cls-1" d="M85.33,155.16a23.57,23.57,0,1,0,23.57,23.57A23.57,23.57,0,0,0,85.33,155.16ZM94,191.79H75.63v-4.51L81.83,181q2.65-2.77,3.47-3.79a8.34,8.34,0,0,0,1.14-1.74,3.75,3.75,0,0,0,.32-1.53,2,2,0,0,0-.64-1.56,2.62,2.62,0,0,0-1.8-.57,4.92,4.92,0,0,0-2.42.69,17.34,17.34,0,0,0-2.77,2l-3.76-4.41a20.33,20.33,0,0,1,3.3-2.51,11.74,11.74,0,0,1,2.91-1.15,14.36,14.36,0,0,1,3.53-.4,10.65,10.65,0,0,1,4.4.87,6.89,6.89,0,0,1,3,2.47,6.36,6.36,0,0,1,1.07,3.6A9.26,9.26,0,0,1,92,178.25,17.29,17.29,0,0,1,90,180.83q-1.29,1.35-5.51,5.13v0.17H94v5.65Z"/><path class="cls-1" d="M75.39,230a5.3,5.3,0,0,1-.85,3,5.56,5.56,0,0,1-2.45,2,9.08,9.08,0,0,1-3.75.72,15.16,15.16,0,0,1-3-.25,11.15,11.15,0,0,1-2.53-.88v-4.33a14.41,14.41,0,0,0,2.89,1.11,10.74,10.74,0,0,0,2.75.4,2.67,2.67,0,0,0,1.59-.37,1.15,1.15,0,0,0,.5-1,1.07,1.07,0,0,0-.2-0.65,2.35,2.35,0,0,0-.65-0.56q-0.45-.28-2.39-1.16a11.49,11.49,0,0,1-2.64-1.55,4.75,4.75,0,0,1-1.3-1.72,5.71,5.71,0,0,1-.42-2.3,4.61,4.61,0,0,1,1.81-3.87,8,8,0,0,1,5-1.39,13.93,13.93,0,0,1,5.69,1.29l-1.49,3.75a10.77,10.77,0,0,0-4.35-1.16,2.26,2.26,0,0,0-1.38.33,1,1,0,0,0-.43.82,1.19,1.19,0,0,0,.55.95,20.85,20.85,0,0,0,3,1.52A8.2,8.2,0,0,1,74.49,227,4.87,4.87,0,0,1,75.39,230Z"/><path class="cls-1" d="M78.17,235.5v-18h4.88v18H78.17Z"/><path class="cls-1" d="M101.47,221.25a3.09,3.09,0,0,0-2.7,1.42,6.85,6.85,0,0,0-1,3.91q0,5.19,3.94,5.19a8.07,8.07,0,0,0,2.31-.33,23,23,0,0,0,2.25-.8v4.1a12.44,12.44,0,0,1-5.09,1A8,8,0,0,1,95,233.38q-2.17-2.36-2.17-6.82a10.87,10.87,0,0,1,1.05-4.9,7.52,7.52,0,0,1,3-3.25,9.14,9.14,0,0,1,4.64-1.14,12.78,12.78,0,0,1,5.57,1.27l-1.49,3.82a16.65,16.65,0,0,0-2-.79A7,7,0,0,0,101.47,221.25Z"/><path class="cls-1" d="M126.62,226.49q0,4.54-2.22,6.89t-6.51,2.36a8.52,8.52,0,0,1-6.48-2.37q-2.26-2.37-2.25-6.91t2.24-6.85q2.24-2.37,6.52-2.37t6.5,2.35Q126.62,221.94,126.62,226.49Zm-12.36,0q0,5.21,3.63,5.21a3.12,3.12,0,0,0,2.73-1.27,9.19,9.19,0,0,0,0-7.92,3.08,3.08,0,0,0-2.7-1.28Q114.25,221.23,114.25,226.49Z"/><path class="cls-1" d="M137.69,235.5L134,222.56H133.9q0.26,3.31.26,5.14v7.8h-4.3v-18h6.46l3.75,12.76h0.1l3.67-12.76h6.48v18h-4.46v-7.88q0-.61,0-1.36t0.17-3.67h-0.11l-3.63,12.92h-4.62Z"/><path class="cls-1" d="M167.23,223.24a6,6,0,0,1-1.78,4.65,7.16,7.16,0,0,1-5,1.64H159v6h-4.85v-18h6.22a7.6,7.6,0,0,1,5.11,1.49A5.31,5.31,0,0,1,167.23,223.24ZM159,225.58h0.88a2.42,2.42,0,0,0,1.74-.61,2.23,2.23,0,0,0,.65-1.7q0-1.82-2-1.82H159v4.13Z"/><path class="cls-1" d="M170.09,235.5v-18h4.85v14h6.92v3.92H170.09Z"/><path class="cls-1" d="M195.41,235.5H184.74v-18h10.67v3.9h-5.81v2.83H195v3.9h-5.38v3.39h5.81v4Z"/><path class="cls-1" d="M206.48,235.5h-4.85v-14h-4.39v-4h13.62v4h-4.37v14Z"/><path class="cls-1" d="M224.45,235.5l-0.88-3.37h-5.84l-0.91,3.37h-5.33l5.86-18h6.48l5.94,18h-5.31Zm-1.89-7.35-0.77-2.95q-0.27-1-.66-2.54t-0.51-2.24q-0.11.63-.44,2.06t-1.44,5.67h3.82Z"/><path class="cls-1" d="M243.44,230a5.3,5.3,0,0,1-.85,3,5.56,5.56,0,0,1-2.45,2,9.08,9.08,0,0,1-3.75.72,15.16,15.16,0,0,1-3-.25,11.15,11.15,0,0,1-2.53-.88v-4.33a14.41,14.41,0,0,0,2.89,1.11,10.74,10.74,0,0,0,2.75.4,2.67,2.67,0,0,0,1.59-.37,1.15,1.15,0,0,0,.5-1,1.07,1.07,0,0,0-.2-0.65,2.35,2.35,0,0,0-.65-0.56q-0.45-.28-2.39-1.16a11.49,11.49,0,0,1-2.64-1.55,4.75,4.75,0,0,1-1.3-1.72,5.71,5.71,0,0,1-.42-2.3,4.61,4.61,0,0,1,1.81-3.87,8,8,0,0,1,5-1.39,13.93,13.93,0,0,1,5.69,1.29L242,222.31a10.77,10.77,0,0,0-4.35-1.16,2.26,2.26,0,0,0-1.38.33,1,1,0,0,0-.43.82,1.19,1.19,0,0,0,.55.95,20.85,20.85,0,0,0,3,1.52,8.2,8.2,0,0,1,3.23,2.24A4.87,4.87,0,0,1,243.44,230Z"/><path class="cls-1" d="M260.68,235.5h-4.85v-14h-4.39v-4h13.62v4h-4.37v14Z"/><path class="cls-1" d="M282.9,217.53v10.81a7.26,7.26,0,0,1-2,5.46,8,8,0,0,1-5.76,1.94,7.87,7.87,0,0,1-5.65-1.88,7.12,7.12,0,0,1-2-5.41V217.53h4.88v10.54a4.32,4.32,0,0,0,.71,2.77,3.07,3.07,0,0,0,4.26,0A4.57,4.57,0,0,0,278,228V217.53h4.85Z"/><path class="cls-1" d="M91.59,241.51H97l-5.89,18H85.42l-5.86-18H85l2.45,9.11a27.77,27.77,0,0,1,.84,4.23q0.09-.86.34-2.15t0.46-2Z"/><path class="cls-1" d="M109.63,259.47H99v-18h10.67v3.9h-5.81v2.83h5.38v3.9h-5.38v3.39h5.81v4Z"/><path class="cls-1" d="M129.88,259.47h-6.37L117,246.82h-0.11q0.23,3,.23,4.56v8.1h-4.3v-18h6.34L125.66,254h0.07q-0.17-2.72-.17-4.36v-8.12h4.33v18Z"/><path class="cls-1" d="M141.69,259.47h-4.85v-14h-4.39v-4h13.62v4h-4.37v14Z"/><path class="cls-1" d="M159.66,259.47l-0.88-3.37h-5.84L152,259.47h-5.33l5.86-18H159l5.94,18h-5.31Zm-1.89-7.35L157,249.18q-0.27-1-.66-2.54t-0.51-2.24q-0.11.63-.44,2.06t-1.44,5.67h3.82Z"/><path class="cls-1" d="M181.27,259.47l-3.67-12.94h-0.11q0.26,3.31.26,5.14v7.8h-4.3v-18h6.46l3.75,12.76h0.1l3.67-12.76h6.48v18h-4.46V251.6q0-.61,0-1.36t0.17-3.67h-0.11l-3.63,12.92h-4.62Z"/><path class="cls-1" d="M197.75,240.07v-0.36q1.89-2,2.4-2.62T201,236h5.26v0.26q-1,.79-2.7,2t-2.61,1.77h-3.2Zm0,19.4v-18h4.88v18h-4.88Z"/><path class="cls-1" d="M223.65,259.47h-6.37l-6.56-12.66h-0.11q0.23,3,.23,4.56v8.1h-4.3v-18h6.34L219.42,254h0.07q-0.17-2.72-.17-4.36v-8.12h4.33v18Z"/><path class="cls-1" d="M227.53,259.47v-18h4.88v18h-4.88Z"/><path class="cls-1" d="M244.12,259.47l-3.67-12.94h-0.11q0.26,3.31.26,5.14v7.8h-4.3v-18h6.46l3.75,12.76h0.1l3.67-12.76h6.48v18h-4.46V251.6q0-.61,0-1.36t0.17-3.67h-0.11l-3.63,12.92h-4.62Z"/><path class="cls-1" d="M271.65,259.47l-0.88-3.37h-5.84L264,259.47h-5.33l5.86-18H271l5.94,18h-5.31Zm-1.89-7.35L269,249.18q-0.27-1-.66-2.54t-0.51-2.24q-0.11.63-.44,2.06t-1.44,5.67h3.82Z"/><path class="cls-1" d="M283.07,255.8l0.17,0.28a48.08,48.08,0,0,1-2.16,6.89h-3.43q0.36-1.69.72-3.8t0.5-3.37h4.2Z"/><path class="cls-1" d="M82.17,283.45l-0.88-3.37H75.45l-0.91,3.37H69.21l5.86-18h6.48l5.94,18H82.17Zm-1.89-7.35-0.77-2.95q-0.27-1-.66-2.54t-0.51-2.24q-0.11.63-.44,2.06t-1.44,5.67h3.82Z"/><path class="cls-1" d="M96.16,269.21a3.09,3.09,0,0,0-2.7,1.42,6.85,6.85,0,0,0-1,3.91q0,5.19,3.94,5.19a8.07,8.07,0,0,0,2.31-.33,23,23,0,0,0,2.25-.8v4.1a12.44,12.44,0,0,1-5.09,1,8,8,0,0,1-6.24-2.36Q87.5,279,87.5,274.52a10.87,10.87,0,0,1,1.05-4.9,7.52,7.52,0,0,1,3-3.25,9.14,9.14,0,0,1,4.64-1.14,12.78,12.78,0,0,1,5.57,1.27l-1.49,3.82a16.65,16.65,0,0,0-2-.79A7,7,0,0,0,96.16,269.21Z"/><path class="cls-1" d="M118.51,265.48V276.3a7.26,7.26,0,0,1-2,5.46,8,8,0,0,1-5.76,1.94,7.87,7.87,0,0,1-5.65-1.88,7.12,7.12,0,0,1-2-5.41V265.48H108V276a4.32,4.32,0,0,0,.71,2.77,3.07,3.07,0,0,0,4.26,0,4.57,4.57,0,0,0,.67-2.8V265.48h4.85Z"/><path class="cls-1" d="M136.28,274.09q0,4.5-2.48,6.93a9.51,9.51,0,0,1-7,2.43H121v-18h6.22a9.38,9.38,0,0,1,6.68,2.21A8.35,8.35,0,0,1,136.28,274.09Zm-5,.17a5.71,5.71,0,0,0-1-3.66,3.61,3.61,0,0,0-3-1.19h-1.41v10.06H127a3.91,3.91,0,0,0,3.24-1.28A6.2,6.2,0,0,0,131.24,274.26Z"/><path class="cls-1" d="M148.91,283.45H138.24v-18h10.67v3.9h-5.81v2.83h5.38v3.9h-5.38v3.39h5.81v4Z"/><path class="cls-1" d="M162.49,272.15l3.1-6.66h5.26l-5.91,10.95v7H160v-6.87l-5.91-11.1h5.28Z"/><path class="cls-1" d="M187.47,283.45H176.81v-18h10.67v3.9h-5.81v2.83H187v3.9h-5.38v3.39h5.81v4Z"/><path class="cls-1" d="M206.47,283.45H200.1l-6.56-12.66h-0.11q0.23,3,.23,4.56v8.1h-4.3v-18h6.34L202.24,278h0.07q-0.17-2.72-.17-4.36v-8.12h4.33v18Z"/><path class="cls-1" d="M217,283.45h-4.85v-14h-4.39v-4h13.62v4H217v14Z"/><path class="cls-1" d="M227.56,276.91v6.54H222.7v-18h5.89q7.32,0,7.32,5.31a5.31,5.31,0,0,1-3,4.83l5.23,7.83h-5.5l-3.81-6.54h-1.23Zm0-3.65h0.91q2.54,0,2.54-2.25,0-1.85-2.5-1.86h-1v4.1Z"/><path class="cls-1" d="M249.14,283.45H238.48v-18h10.67v3.9h-5.81v2.83h5.38v3.9h-5.38v3.39h5.81v4Z"/><path class="cls-1" d="M258.24,272.93H266v9.68a21.3,21.3,0,0,1-6.94,1.08,8.39,8.39,0,0,1-6.42-2.41q-2.27-2.41-2.27-6.87a9,9,0,0,1,2.48-6.77,9.54,9.54,0,0,1,7-2.42,15.4,15.4,0,0,1,3.2.32,13.58,13.58,0,0,1,2.62.81l-1.54,3.81a9.51,9.51,0,0,0-4.26-1,4.05,4.05,0,0,0-3.29,1.38,6,6,0,0,0-1.16,4,6.05,6.05,0,0,0,1.05,3.84,3.64,3.64,0,0,0,3,1.32,8.87,8.87,0,0,0,2-.21v-2.81h-3.21v-3.75Z"/><path class="cls-1" d="M279.42,283.45l-0.88-3.37H272.7l-0.91,3.37h-5.33l5.86-18h6.48l5.94,18h-5.31Zm-1.89-7.35-0.77-2.95q-0.27-1-.66-2.54t-0.51-2.24q-0.11.63-.44,2.06t-1.44,5.67h3.82Z"/><path class="cls-1" d="M110.65,307.43H100v-18h10.67v3.9h-5.81v2.83h5.38v3.9h-5.38v3.39h5.81v4Z"/><path class="cls-1" d="M130.9,307.43h-6.37L118,294.77h-0.11q0.23,3,.23,4.56v8.1h-4.3v-18h6.34l6.54,12.49h0.07q-0.17-2.72-.17-4.36v-8.12h4.33v18Z"/><path class="cls-1" d="M141.32,307.43v-18h4.85v14h6.92v3.92H141.32Z"/><path class="cls-1" d="M167,307.43l-0.88-3.37h-5.84l-0.91,3.37H154l5.86-18h6.48l5.94,18H167Zm-1.89-7.35-0.77-2.95q-0.27-1-.66-2.54t-0.51-2.24q-0.11.63-.44,2.06t-1.44,5.67h3.82Z"/><path class="cls-1" d="M188.61,307.43l-3.67-12.94h-0.11q0.26,3.31.26,5.14v7.8h-4.3v-18h6.46L191,302.22h0.1l3.67-12.76h6.48v18h-4.46v-7.88q0-.61,0-1.36t0.17-3.67h-0.11l-3.63,12.92h-4.62Z"/><path class="cls-1" d="M216.14,307.43l-0.88-3.37h-5.84l-0.91,3.37h-5.33l5.86-18h6.48l5.94,18h-5.31Zm-1.89-7.35-0.77-2.95q-0.27-1-.66-2.54t-0.51-2.24q-0.11.63-.44,2.06t-1.44,5.67h3.82Z"/><path class="cls-1" d="M231.39,293.19a3.09,3.09,0,0,0-2.7,1.42,6.85,6.85,0,0,0-1,3.91q0,5.19,3.94,5.19a8.07,8.07,0,0,0,2.31-.33,23,23,0,0,0,2.25-.8v4.1a12.44,12.44,0,0,1-5.09,1,8,8,0,0,1-6.24-2.36q-2.17-2.36-2.17-6.82a10.87,10.87,0,0,1,1.05-4.9,7.52,7.52,0,0,1,3-3.25,9.14,9.14,0,0,1,4.64-1.14,12.78,12.78,0,0,1,5.57,1.27l-1.49,3.82a16.65,16.65,0,0,0-2-.79A7,7,0,0,0,231.39,293.19Z"/><path class="cls-1" d="M250.39,307.43H239.72v-18h10.67v3.9h-5.81v2.83H250v3.9h-5.38v3.39h5.81v4Z"/><path class="cls-1" d="M261.46,307.43H256.6v-14h-4.39v-4h13.62v4h-4.37v14Z"/><path class="cls-1" d="M279.43,307.43l-0.88-3.37H272.7l-0.91,3.37h-5.33l5.86-18h6.48l5.94,18h-5.31Zm-1.89-7.35-0.77-2.95q-0.27-1-.66-2.54t-0.51-2.24q-0.11.63-.44,2.06t-1.44,5.67h3.82Z"/><path class="cls-1" d="M38.46,224.64A23.57,23.57,0,1,0,62,248.21,23.57,23.57,0,0,0,38.46,224.64Zm5.81,34.94q-2.8,2-7.78,2a22.8,22.8,0,0,1-3.79-.29,19.77,19.77,0,0,1-3.77-1.08v-5.69a15,15,0,0,0,3.39,1.26,13.88,13.88,0,0,0,3.18.41,6.5,6.5,0,0,0,3.29-.63,2.16,2.16,0,0,0,1-2,2.24,2.24,0,0,0-.54-1.6,3.49,3.49,0,0,0-1.73-.85,13.88,13.88,0,0,0-3.12-.29H32.86v-5.15h1.6q5.22,0,5.22-2.67a1.64,1.64,0,0,0-.77-1.49,3.86,3.86,0,0,0-2.07-.49,9.48,9.48,0,0,0-5,1.63L29,238.11a13.82,13.82,0,0,1,4.12-2,18,18,0,0,1,4.83-.59,10.65,10.65,0,0,1,6.17,1.56,5,5,0,0,1,2.24,4.3,6,6,0,0,1-1.44,4,8.2,8.2,0,0,1-4.16,2.45V248q6.35,0.8,6.35,6A6.5,6.5,0,0,1,44.27,259.58Z"/><path class="cls-1" d="M295.8,288.38h75.41v-9.94H295.8v9.94Zm1.8-8.14h71.81v6.34H297.6v-6.34Z"/><path class="cls-1" d="M295.8,301.13h75.41V291.2H295.8v9.94Zm1.8-8.14h71.81v6.34H297.6V293Z"/><path class="cls-1" d="M321,253.73a5.68,5.68,0,1,1-11.37,0h-1.8a7.48,7.48,0,1,0,15,0H321Z"/><path class="cls-1" d="M362.71,253.75a2.64,2.64,0,0,1-.73-3.66l-1.5-1a4.44,4.44,0,0,0,7.39,4.92l-1.5-1A2.64,2.64,0,0,1,362.71,253.75Z"/><path class="cls-1" d="M339.29,252.46h-1.8a5.23,5.23,0,0,0,5.22,5.21h0a5.23,5.23,0,0,0,5.21-5.24h-1.8a3.43,3.43,0,0,1-3.42,3.43h0A3.43,3.43,0,0,1,339.29,252.46Z"/><path class="cls-1" d="M383,240.35c-0.07-.1-1.82-2.56-6.3-2.4a8,8,0,0,0-3.65,1c0.11-.66.2-1.42,0.26-2.31a7.9,7.9,0,0,0-2.55-6.63l-0.52-.41-0.55.38c-0.1.07-2.55,1.83-2.4,6.3a8.1,8.1,0,0,0,.84,3.43,7.94,7.94,0,0,0-9,3.59l-0.44.69c-0.19.31-.39,0.65-0.59,1a19.31,19.31,0,0,0-11.93-7.58c0.14-1.45-.06-4.26-2.64-7.51a9.86,9.86,0,0,0-8.76-4L334,226l0,0.81c0,0.25.21,2.62,3.16,7.18a11.48,11.48,0,0,0,3,3.18A19.09,19.09,0,0,0,330,241.74a13.19,13.19,0,0,0-13.76-1v-3.08A20.69,20.69,0,0,0,322,238.7l0.76,0a9.34,9.34,0,0,0,7.17-3.07l0.41-.52-0.38-.55c-0.09-.12-2.17-3-7.53-2.85a9.25,9.25,0,0,0-6.22,2.49v-3h-1.8v9.5a13.25,13.25,0,0,0-19.28,11c0,0.29,0,.59,0,0.89v0.11a16.06,16.06,0,0,0,6,13H295.8v9.94h75.41v-9.94h-8.28a84.79,84.79,0,0,0,10.29-12.8l0.42-.71a7.91,7.91,0,0,0,0-8.54,22.7,22.7,0,0,0,2.76.34l0.63,0a7.82,7.82,0,0,0,6-2.58l0.41-.52Zm-60.51-6.83a8,8,0,0,1,5.48,1.56,8,8,0,0,1-5.85,1.82A19.65,19.65,0,0,1,317,236,7.44,7.44,0,0,1,322.53,233.52ZM370.22,232a6.42,6.42,0,0,1,1.32,4.51,16.82,16.82,0,0,1-.65,3.92,6,6,0,0,1-1.78-4.21A6.47,6.47,0,0,1,370.22,232Zm-31.56,1.08a21.52,21.52,0,0,1-2.66-5.38,8.39,8.39,0,0,1,6.11,3.34c2.18,2.75,2.36,5,2.27,6.14H344.3A9,9,0,0,1,338.66,233.06Zm6.42,6h0.18a17.49,17.49,0,0,1,11.86,7.68A89.79,89.79,0,0,0,350,265.68H329.55a16.08,16.08,0,0,0,6-13V252.6c0-.3,0-0.59,0-0.9a13.19,13.19,0,0,0-4.1-8.81,17.32,17.32,0,0,1,11.13-4c0.49,0,1,0,1.45.07A7,7,0,0,0,345.09,239.07Zm-48.14,13.65v-0.1c0-.27,0-0.54,0-0.8A11.45,11.45,0,0,1,314.85,243l0.51,0.35,0.51-.35a11.45,11.45,0,0,1,17.88,8.76c0,0.27,0,.54,0,0.81h0.9l-0.9.11a14.35,14.35,0,0,1-7.4,13h-22A14.34,14.34,0,0,1,296.95,252.71Zm72.46,21.11H297.6v-6.34h6.27l0.14,0.08,0-.08h65.36v6.34Zm2.67-22.54-0.39.66a84.49,84.49,0,0,1-11.28,13.74h-8.57a84.91,84.91,0,0,1,8.38-20.77l0.41-.65A6.72,6.72,0,0,1,372.09,251.28Zm4.41-9.09a16.79,16.79,0,0,1-3.92-.65,6,6,0,0,1,4.21-1.78,6.45,6.45,0,0,1,4.22,1.11A6.41,6.41,0,0,1,376.5,242.19Z"/></svg>