<svg id="Capa_1" data-name="Capa 1" xmlns="http://www.w3.org/2000/svg" viewBox="0 0 38 15.02"><defs><style>.cls-1{fill:#fff;}</style></defs><title>assets</title><path class="cls-1" d="M21.06,0L19,2.05,17,0H14.13L18.3,4.06a0.92,0.92,0,0,0,.71.18A0.94,0.94,0,0,0,19.71,4l4.17-4H21.06Z"/><polygon class="cls-1" points="14.13 15 16.95 15 1.47 0 0 0 0 1.15 0.09 1.06 14.13 15"/><polygon class="cls-1" points="23.89 15 37.93 1.06 38 1.12 38 0 36.46 0 21.06 15 23.89 15"/><path class="cls-1" d="M0.88,14.43l-0.05,0a0.89,0.89,0,0,0-.24-0.15A2.09,2.09,0,0,0,.1,14.13H0V15H1.47Z"/><path class="cls-1" d="M37.88,14.12a1.55,1.55,0,0,0-.6.2l-0.08.05-0.11.09L36.46,15H38V14.1H37.88Z"/></svg>