<svg id="Capa_1" data-name="Capa 1" xmlns="http://www.w3.org/2000/svg" viewBox="0 0 49.73 49.73"><defs><style>.cls-1{fill:#fff;}</style></defs><title>Sin título-1</title><path class="cls-1" d="M49.73,49.73H0V0H49.73V49.73ZM2.68,47H47V2.68H2.68V47Z"/><path class="cls-1" d="M40.9,15.78a12.21,12.21,0,0,1-3.51,1,6.13,6.13,0,0,0,2.69-3.38,12.23,12.23,0,0,1-3.88,1.48,6.11,6.11,0,0,0-10.41,5.57A17.34,17.34,0,0,1,13.2,14a6.12,6.12,0,0,0,1.89,8.16,6.09,6.09,0,0,1-2.77-.76s0,0.05,0,.08a6.11,6.11,0,0,0,4.9,6,6.12,6.12,0,0,1-2.76.1,6.12,6.12,0,0,0,5.71,4.24,12.26,12.26,0,0,1-7.59,2.62,12.4,12.4,0,0,1-1.46-.09,17.29,17.29,0,0,0,9.36,2.74c11.24,0,17.38-9.31,17.38-17.38q0-.4,0-0.79A12.41,12.41,0,0,0,40.9,15.78Z"/></svg>