<svg id="Capa_1" data-name="Capa 1" xmlns="http://www.w3.org/2000/svg" viewBox="0 0 29.25 29.25"><defs><style>.cls-1{fill:#e05f5e;}.cls-2{fill:#fff;}</style></defs><title>Sin título-1</title><path class="cls-1" d="M14.63,28.6a14,14,0,1,1,14-14A14,14,0,0,1,14.63,28.6Z"/><path class="cls-2" d="M14.63,1.31A13.31,13.31,0,1,1,1.31,14.63,13.31,13.31,0,0,1,14.63,1.31m0-1.31A14.63,14.63,0,1,0,29.25,14.63,14.64,14.64,0,0,0,14.63,0h0Z"/><path class="cls-2" d="M14.68,21.61a1,1,0,0,1-1-1v-11a1,1,0,0,1,2,0v11A1,1,0,0,1,14.68,21.61Z"/><path class="cls-2" d="M20.68,16.61h-12a1,1,0,0,1,0-2h12A1,1,0,0,1,20.68,16.61Z"/></svg>