<svg id="Capa_1" data-name="Capa 1" xmlns="http://www.w3.org/2000/svg" viewBox="0 0 73.92 84.92"><defs><style>.cls-1{fill:#fff;}.cls-2{fill:#0faa6d;}.cls-3{fill:#5cb886;}</style></defs><title>Sin título-1</title><path class="cls-1" d="M4,67.11a1.45,1.45,0,0,0-1.27.67,3.22,3.22,0,0,0-.46,1.84q0,2.44,1.85,2.44A3.81,3.81,0,0,0,5.2,71.9a10.68,10.68,0,0,0,1.06-.37v1.93a5.84,5.84,0,0,1-2.39.47A3.78,3.78,0,0,1,.94,72.81a4.57,4.57,0,0,1-1-3.2,5.1,5.1,0,0,1,.49-2.3,3.52,3.52,0,0,1,1.42-1.53A4.29,4.29,0,0,1,4,65.24a6,6,0,0,1,2.61.59l-0.7,1.79A7.9,7.9,0,0,0,5,67.26,3.28,3.28,0,0,0,4,67.11Z"/><path class="cls-1" d="M13.42,70.52a3.46,3.46,0,0,1-.86,2.5,3.19,3.19,0,0,1-2.41.9A3.13,3.13,0,0,1,7.77,73a4,4,0,0,1,0-5,3.23,3.23,0,0,1,2.42-.89,3.45,3.45,0,0,1,1.7.41A2.8,2.8,0,0,1,13,68.73,3.79,3.79,0,0,1,13.42,70.52Zm-4.24,0a2.92,2.92,0,0,0,.22,1.28,0.78,0.78,0,0,0,.76.44,0.76,0.76,0,0,0,.74-0.44,3,3,0,0,0,.22-1.28,2.87,2.87,0,0,0-.22-1.26,0.78,0.78,0,0,0-.75-0.43,0.78,0.78,0,0,0-.75.42A2.8,2.8,0,0,0,9.19,70.52Z"/><path class="cls-1" d="M18.24,73.8V70.23a2,2,0,0,0-.19-1,0.64,0.64,0,0,0-.6-0.33,0.87,0.87,0,0,0-.83.46,3.46,3.46,0,0,0-.25,1.56V73.8H14.12V67.26h1.7l0.28,0.81h0.13a1.79,1.79,0,0,1,.8-0.69,2.82,2.82,0,0,1,1.17-.23,2.23,2.23,0,0,1,1.69.63,2.46,2.46,0,0,1,.6,1.77V73.8H18.24Z"/><path class="cls-1" d="M23.47,73.92a2,2,0,0,1-1.22-.4,2.51,2.51,0,0,1-.81-1.17,5.2,5.2,0,0,1-.29-1.81A4.24,4.24,0,0,1,21.8,68a2,2,0,0,1,1.76-.9,2,2,0,0,1,1,.22,2.12,2.12,0,0,1,.75.74h0a10.82,10.82,0,0,1-.11-1.54V64.82h2.27v9h-1.7L25.3,73H25.21A1.91,1.91,0,0,1,23.47,73.92Zm0.92-1.78a0.84,0.84,0,0,0,.76-0.34,2.06,2.06,0,0,0,.24-1.05V70.56a2.29,2.29,0,0,0-.25-1.23A0.87,0.87,0,0,0,24.37,69a0.76,0.76,0,0,0-.69.42,2.38,2.38,0,0,0-.25,1.19,2.22,2.22,0,0,0,.25,1.16A0.79,0.79,0,0,0,24.4,72.13Z"/><path class="cls-1" d="M28.4,65.63a1,1,0,0,1,.28-0.76,1.79,1.79,0,0,1,1.83,0,1,1,0,0,1,.29.75,1,1,0,0,1-1.21,1A1,1,0,0,1,28.4,65.63Zm2.31,8.17H28.46V67.26h2.26V73.8Z"/><path class="cls-1" d="M39.73,73.8V70.25a2.12,2.12,0,0,0-.18-1A0.61,0.61,0,0,0,39,68.92a0.81,0.81,0,0,0-.76.44A3,3,0,0,0,38,70.75v3H35.71V70.25a2.23,2.23,0,0,0-.17-1A0.59,0.59,0,0,0,35,68.92a0.81,0.81,0,0,0-.77.47A3.62,3.62,0,0,0,34,70.94V73.8H31.7V67.26h1.7l0.28,0.81h0.13a1.68,1.68,0,0,1,.75-0.69,2.56,2.56,0,0,1,1.12-.24,2.2,2.2,0,0,1,2,.86h0.18a1.84,1.84,0,0,1,.77-0.63,2.56,2.56,0,0,1,1.09-.23,2.24,2.24,0,0,1,1.71.59A2.57,2.57,0,0,1,42,69.55V73.8H39.73Z"/><path class="cls-1" d="M46.09,73.92A3.51,3.51,0,0,1,43.55,73a3.27,3.27,0,0,1-.9-2.47A3.56,3.56,0,0,1,43.48,68a3.13,3.13,0,0,1,2.39-.89,3.17,3.17,0,0,1,2.28.77,2.93,2.93,0,0,1,.8,2.22v1h-4a1.12,1.12,0,0,0,.4.86,1.57,1.57,0,0,0,1,.31,5,5,0,0,0,1.09-.11,5.31,5.31,0,0,0,1.08-.38v1.62a4,4,0,0,1-1.1.38A7.58,7.58,0,0,1,46.09,73.92ZM46,68.68a0.94,0.94,0,0,0-.67.25,1.18,1.18,0,0,0-.31.79h1.94A1.13,1.13,0,0,0,46.64,69,0.89,0.89,0,0,0,46,68.68Z"/><path class="cls-1" d="M53.77,73.8V70.23a2,2,0,0,0-.19-1,0.64,0.64,0,0,0-.6-0.33,0.87,0.87,0,0,0-.83.46,3.46,3.46,0,0,0-.25,1.56V73.8H49.64V67.26h1.7l0.28,0.81h0.13a1.79,1.79,0,0,1,.8-0.69,2.82,2.82,0,0,1,1.17-.23,2.23,2.23,0,0,1,1.69.63,2.46,2.46,0,0,1,.6,1.77V73.8H53.77Z"/><path class="cls-1" d="M60.17,72.13a3.35,3.35,0,0,0,1.09-.22v1.64a4.44,4.44,0,0,1-.87.28,4.84,4.84,0,0,1-1,.08,2.11,2.11,0,0,1-1.64-.56,2.49,2.49,0,0,1-.5-1.71V69H56.5V68l1-.71L58.08,66h1.48v1.31h1.6V69h-1.6V71.5A0.55,0.55,0,0,0,60.17,72.13Z"/><path class="cls-1" d="M68.06,70.52a3.46,3.46,0,0,1-.86,2.5,3.19,3.19,0,0,1-2.41.9A3.13,3.13,0,0,1,62.41,73a4,4,0,0,1,0-5,3.23,3.23,0,0,1,2.42-.89,3.45,3.45,0,0,1,1.7.41,2.8,2.8,0,0,1,1.14,1.17A3.79,3.79,0,0,1,68.06,70.52Zm-4.24,0A2.92,2.92,0,0,0,64,71.8a0.78,0.78,0,0,0,.76.44,0.76,0.76,0,0,0,.74-0.44,3,3,0,0,0,.22-1.28,2.87,2.87,0,0,0-.22-1.26,0.87,0.87,0,0,0-1.5,0A2.8,2.8,0,0,0,63.82,70.52Z"/><path class="cls-1" d="M73.8,71.79a1.86,1.86,0,0,1-.72,1.59,3.38,3.38,0,0,1-2.05.54,8.79,8.79,0,0,1-1.26-.08,5.33,5.33,0,0,1-1.1-.29V71.75a6.77,6.77,0,0,0,1.15.38,4.82,4.82,0,0,0,1.12.15q0.73,0,.73-0.33a0.38,0.38,0,0,0-.2-0.31,9.54,9.54,0,0,0-1.19-.53A3,3,0,0,1,69,70.27a1.91,1.91,0,0,1-.36-1.19,1.65,1.65,0,0,1,.7-1.42,3.37,3.37,0,0,1,2-.51,5,5,0,0,1,1.21.14,7.21,7.21,0,0,1,1.18.41l-0.61,1.45a6.89,6.89,0,0,0-1-.34,3.14,3.14,0,0,0-.82-0.14q-0.55,0-.55.27a0.34,0.34,0,0,0,.19.29,10.28,10.28,0,0,0,1.12.48,4.28,4.28,0,0,1,1,.55,1.65,1.65,0,0,1,.5.64A2.23,2.23,0,0,1,73.8,71.79Z"/><path class="cls-2" d="M41.31,60l12.57-7.69h1.74l9.65-9s2.86-3.56-3.56-5-6.46,0-6.46,0H41.6Z"/><rect class="cls-3" x="20.34" y="13.93" width="20.61" height="42.44" rx="9.9" ry="9.9"/><path class="cls-1" d="M32.27,57.25H29a9.57,9.57,0,0,1-9.56-9.56V22.61A9.57,9.57,0,0,1,29,13.06h3.25a9.57,9.57,0,0,1,9.56,9.56V47.7A9.57,9.57,0,0,1,32.27,57.25ZM29,14.81a7.81,7.81,0,0,0-7.8,7.8V47.7A7.81,7.81,0,0,0,29,55.5h3.25a7.81,7.81,0,0,0,7.8-7.8V22.61a7.81,7.81,0,0,0-7.8-7.8H29Z"/><path class="cls-3" d="M47.53,27.9h0.33a7.43,7.43,0,0,1,7.43,7.43v16a1.6,1.6,0,0,1-1.6,1.6H41.81a1.72,1.72,0,0,1-1.72-1.72V35.34a7.43,7.43,0,0,1,7.43-7.43Z"/><path class="cls-1" d="M53.89,53.77H41.6a2.39,2.39,0,0,1-2.38-2.38v-17A7.4,7.4,0,0,1,46.61,27h2.16a7.4,7.4,0,0,1,7.39,7.39V51.49A2.28,2.28,0,0,1,53.89,53.77Zm-7.28-25A5.64,5.64,0,0,0,41,34.42v17a0.63,0.63,0,0,0,.63.63H53.89a0.53,0.53,0,0,0,.52-0.52V34.42a5.64,5.64,0,0,0-5.64-5.64H46.61Z"/><path class="cls-1" d="M50.51,53.77a0.88,0.88,0,0,1-.88-0.88v-19a0.88,0.88,0,1,1,1.75,0v19A0.88,0.88,0,0,1,50.51,53.77Z"/><ellipse class="cls-3" cx="47.39" cy="26.16" rx="6.69" ry="4.71"/><path class="cls-1" d="M47.39,31.74c-4.17,0-7.57-2.5-7.57-5.58s3.4-5.58,7.57-5.58S55,23.08,55,26.16,51.56,31.74,47.39,31.74Zm0-9.41c-3.15,0-5.82,1.75-5.82,3.83S44.24,30,47.39,30s5.82-1.75,5.82-3.83S50.54,22.33,47.39,22.33Z"/><line class="cls-3" x1="46.53" y1="26.16" x2="47.71" y2="23.92"/><path class="cls-1" d="M46.53,27a0.88,0.88,0,0,1-.77-1.29l1.18-2.24a0.88,0.88,0,1,1,1.55.82l-1.18,2.24A0.88,0.88,0,0,1,46.53,27Z"/><path class="cls-3" d="M34.7,34.83H35a7.43,7.43,0,0,1,7.43,7.43v16a1.6,1.6,0,0,1-1.6,1.6H29a1.72,1.72,0,0,1-1.72-1.72V42.27A7.43,7.43,0,0,1,34.7,34.83Z"/><path class="cls-1" d="M41.06,60.7H28.77a2.39,2.39,0,0,1-2.38-2.38v-17A7.4,7.4,0,0,1,33.78,34h2.16a7.4,7.4,0,0,1,7.39,7.39V58.42A2.28,2.28,0,0,1,41.06,60.7Zm-7.28-25a5.64,5.64,0,0,0-5.64,5.64v17a0.63,0.63,0,0,0,.63.63H41.06a0.53,0.53,0,0,0,.52-0.52V41.35a5.64,5.64,0,0,0-5.64-5.64H33.78Z"/><path class="cls-1" d="M37.68,60.7a0.88,0.88,0,0,1-.88-0.88v-19a0.88,0.88,0,0,1,1.75,0v19A0.88,0.88,0,0,1,37.68,60.7Z"/><path class="cls-3" d="M41.25,33.83c0,2.6-3,4.71-6.69,4.71s-6.69-2.11-6.69-4.71,3-5.44,6.69-5.44S41.25,31.23,41.25,33.83Z"/><path class="cls-1" d="M34.56,39.41c-4.17,0-7.57-2.5-7.57-5.58s3.24-6.32,7.57-6.32,7.57,3.34,7.57,6.32S38.73,39.41,34.56,39.41Zm0-10.15c-3.22,0-5.82,2.5-5.82,4.57s2.66,3.83,5.82,3.83,5.82-1.75,5.82-3.83S37.78,29.26,34.56,29.26Z"/><circle class="cls-1" cx="34.36" cy="31.11" r="0.65"/><circle class="cls-1" cx="34.36" cy="33.93" r="0.65"/><circle class="cls-1" cx="31.65" cy="32.64" r="0.65"/><circle class="cls-1" cx="37.21" cy="32.64" r="0.65"/><path class="cls-3" d="M22.65,13V18c0,3.54,3.58,6.41,8,6.41s8-2.87,8-6.41V13"/><path class="cls-1" d="M30.65,25.24c-4.89,0-8.87-3.27-8.87-7.29V13a0.88,0.88,0,1,1,1.75,0v4.92c0,3.05,3.19,5.54,7.12,5.54s7.12-2.48,7.12-5.54V13a0.88,0.88,0,1,1,1.75,0v4.92C39.52,22,35.54,25.24,30.65,25.24Z"/><ellipse class="cls-3" cx="30.65" cy="13.91" rx="7.99" ry="6.41"/><path class="cls-1" d="M30.65,21.2c-4.89,0-8.87-3.27-8.87-7.29s4-7.29,8.87-7.29,8.87,3.27,8.87,7.29S35.54,21.2,30.65,21.2Zm0-12.83c-3.93,0-7.12,2.48-7.12,5.54s3.19,5.54,7.12,5.54,7.12-2.48,7.12-5.54S34.57,8.37,30.65,8.37Z"/><path class="cls-3" d="M25.52,13.11h0l4-11.42a1.22,1.22,0,0,1,2.3,0l4,11.42h0A6,6,0,0,1,25.52,13.11Z"/><path class="cls-1" d="M30.65,16.89a6.79,6.79,0,0,1-5.87-3.33,0.88,0.88,0,0,1-.08-0.74l4-11.42a2.09,2.09,0,0,1,4,0l4,11.42a0.88,0.88,0,0,1-.08.74A6.79,6.79,0,0,1,30.65,16.89ZM26.49,13a5.09,5.09,0,0,0,8.31,0L31,2a0.34,0.34,0,0,0-.64,0Z"/></svg>