<svg id="Capa_1" data-name="Capa 1" xmlns="http://www.w3.org/2000/svg" viewBox="0 0 73.92 84.92"><defs><style>.cls-1{fill:#fff;}.cls-2{fill:#0faa6d;}.cls-3{fill:#5cb886;}</style></defs><title>Sin título-1</title><path class="cls-1" d="M16.47,73.8H14.18V70.36H11.53V73.8H9.24V65.36h2.29v3.13h2.65V65.36h2.29V73.8Z"/><path class="cls-1" d="M23.81,70.52A3.46,3.46,0,0,1,23,73a3.19,3.19,0,0,1-2.41.9A3.13,3.13,0,0,1,18.17,73a4,4,0,0,1,0-5,3.23,3.23,0,0,1,2.42-.89,3.45,3.45,0,0,1,1.7.41,2.8,2.8,0,0,1,1.14,1.17A3.79,3.79,0,0,1,23.81,70.52Zm-4.24,0a2.92,2.92,0,0,0,.22,1.28,0.78,0.78,0,0,0,.76.44,0.76,0.76,0,0,0,.74-0.44,3,3,0,0,0,.22-1.28,2.87,2.87,0,0,0-.22-1.26,0.87,0.87,0,0,0-1.5,0A2.8,2.8,0,0,0,19.58,70.52Z"/><path class="cls-1" d="M28.46,67.15a3.21,3.21,0,0,1,.56,0l0.13,0-0.2,2.13a3.29,3.29,0,0,0-.77-0.07,1.46,1.46,0,0,0-1.07.34,1.32,1.32,0,0,0-.33,1V73.8H24.51V67.26h1.68l0.35,1h0.11a2.26,2.26,0,0,1,.79-0.84A1.89,1.89,0,0,1,28.46,67.15Z"/><path class="cls-1" d="M32.67,72.13a3.35,3.35,0,0,0,1.09-.22v1.64a4.44,4.44,0,0,1-.87.28,4.84,4.84,0,0,1-1,.08,2.11,2.11,0,0,1-1.64-.56,2.49,2.49,0,0,1-.5-1.71V69H29V68l1-.71L30.58,66h1.48v1.31h1.6V69h-1.6V71.5A0.55,0.55,0,0,0,32.67,72.13Z"/><path class="cls-1" d="M38.57,73.8l-0.43-.87h0a2.56,2.56,0,0,1-.93.77,3.06,3.06,0,0,1-1.22.21,1.92,1.92,0,0,1-1.45-.55A2.16,2.16,0,0,1,34,71.8a1.77,1.77,0,0,1,.73-1.56,4,4,0,0,1,2.11-.57l1.09,0V69.55a0.71,0.71,0,0,0-.8-0.81,4.77,4.77,0,0,0-1.82.48l-0.65-1.49a6.27,6.27,0,0,1,2.88-.59,2.8,2.8,0,0,1,1.95.62,2.23,2.23,0,0,1,.69,1.74V73.8H38.57ZM36.9,72.32a1,1,0,0,0,.7-0.26,0.86,0.86,0,0,0,.29-0.67V70.88l-0.52,0q-1.11,0-1.11.82A0.55,0.55,0,0,0,36.9,72.32Z"/><path class="cls-1" d="M43.34,73.8H41.08v-9h2.26v9Z"/><path class="cls-1" d="M44.26,65.63a1,1,0,0,1,.28-0.76,1.79,1.79,0,0,1,1.83,0,1,1,0,0,1,.29.75A1.22,1.22,0,0,1,44.26,65.63Zm2.31,8.17H44.32V67.26h2.26V73.8Z"/><path class="cls-1" d="M52.48,73.8H47.06V72.51L49.77,69H47.22V67.26h5.13v1.4l-2.59,3.42h2.72V73.8Z"/><path class="cls-1" d="M57.22,73.8l-0.43-.87h0a2.56,2.56,0,0,1-.93.77,3.06,3.06,0,0,1-1.22.21,1.92,1.92,0,0,1-1.45-.55,2.16,2.16,0,0,1-.53-1.56,1.77,1.77,0,0,1,.73-1.56,4,4,0,0,1,2.11-.57l1.09,0V69.55a0.71,0.71,0,0,0-.8-0.81,4.77,4.77,0,0,0-1.82.48l-0.65-1.49a6.27,6.27,0,0,1,2.88-.59,2.8,2.8,0,0,1,1.95.62,2.23,2.23,0,0,1,.69,1.74V73.8H57.22Zm-1.67-1.48a1,1,0,0,0,.7-0.26,0.86,0.86,0,0,0,.29-0.67V70.88L56,70.9q-1.11,0-1.11.82A0.55,0.55,0,0,0,55.55,72.32Z"/><path class="cls-1" d="M64.78,71.79a1.86,1.86,0,0,1-.72,1.59,3.38,3.38,0,0,1-2.05.54,8.79,8.79,0,0,1-1.26-.08,5.33,5.33,0,0,1-1.1-.29V71.75a6.77,6.77,0,0,0,1.15.38,4.82,4.82,0,0,0,1.12.15q0.73,0,.73-0.33a0.38,0.38,0,0,0-.2-0.31,9.54,9.54,0,0,0-1.19-.53A3,3,0,0,1,60,70.27a1.91,1.91,0,0,1-.36-1.19,1.65,1.65,0,0,1,.7-1.42,3.37,3.37,0,0,1,2-.51,5,5,0,0,1,1.21.14,7.21,7.21,0,0,1,1.18.41l-0.61,1.45a6.89,6.89,0,0,0-1-.34,3.14,3.14,0,0,0-.82-0.14q-0.55,0-.55.27a0.34,0.34,0,0,0,.19.29,10.28,10.28,0,0,0,1.12.48,4.28,4.28,0,0,1,1,.55,1.65,1.65,0,0,1,.5.64A2.23,2.23,0,0,1,64.78,71.79Z"/><path class="cls-2" d="M56.81,35.35c-1.48-2.12-9.63-2-18.22,4S24.24,51.87,25.71,54s9.63-1,18.22-7S58.29,37.47,56.81,35.35Z"/><path class="cls-3" d="M38.33,16a6.63,6.63,0,0,1,4.41-4.66c3.82-1.38,5.92.21,5.92,0.21a7.06,7.06,0,0,1-4.92,3.94C39.92,16.41,38.33,16,38.33,16Z"/><path class="cls-1" d="M39.51,17.07a5.72,5.72,0,0,1-1.45-.14l-0.87-.25,0.16-.89a7.6,7.6,0,0,1,5.05-5.43c4.28-1.54,6.76.28,6.86,0.36l0.59,0.45-0.26.7A8,8,0,0,1,44,16.42,18.51,18.51,0,0,1,39.51,17.07Zm6.22-5.33a7.83,7.83,0,0,0-2.65.5,5.91,5.91,0,0,0-3.35,2.82,17.25,17.25,0,0,0,3.77-.58A6.38,6.38,0,0,0,47.27,12,5.15,5.15,0,0,0,45.73,11.74Z"/><path class="cls-3" d="M38.41,15.85a6.63,6.63,0,0,1-4.66-4.41C32.37,7.62,34,5.53,34,5.53a7.06,7.06,0,0,1,3.94,4.92C38.86,14.26,38.41,15.85,38.41,15.85Z"/><path class="cls-1" d="M39.13,17l-0.89-.16a7.6,7.6,0,0,1-5.43-5.05C31.26,7.5,33.08,5,33.16,4.92l0.45-.59,0.7,0.26a8,8,0,0,1,4.56,5.61c1,4,.56,5.74.51,5.92ZM34.4,6.91a6.52,6.52,0,0,0,.28,4.2,5.91,5.91,0,0,0,2.82,3.35,17.3,17.3,0,0,0-.58-3.77A6.38,6.38,0,0,0,34.4,6.91Z"/><path class="cls-3" d="M43,25.46C41.64,29.37,28.13,54.93,25.31,54s2.17-29.44,3.5-33.36A7.49,7.49,0,0,1,43,25.46Z"/><path class="cls-1" d="M25.54,55A1.62,1.62,0,0,1,25,54.91c-0.92-.32-2.64-0.9-0.48-16.66,1.07-7.8,2.66-15.92,3.36-18a8.49,8.49,0,1,1,16.06,5.5c-0.7,2-4.42,9.44-8.36,16.26C28.95,53.52,26.65,55,25.54,55ZM35.9,16.55a6.5,6.5,0,0,0-6.14,4.39c-1.59,4.66-5.36,28.4-4.08,31.92,1-.69,3.64-3.91,8.6-12.6A148.53,148.53,0,0,0,42,25.13,6.49,6.49,0,0,0,35.9,16.55Z"/><path class="cls-3" d="M39.28,24.88a3.8,3.8,0,0,1-7.18-2.46"/><path class="cls-1" d="M35.69,28.45a4.8,4.8,0,0,1-4.53-6.35L33,22.74a2.8,2.8,0,1,0,5.29,1.81l1.89,0.65A4.8,4.8,0,0,1,35.69,28.45Z"/></svg>