<svg id="Capa_1" data-name="Capa 1" xmlns="http://www.w3.org/2000/svg" viewBox="0 0 73.92 84.92"><defs><style>.cls-1{fill:#fff;}.cls-2{fill:#0faa6d;}.cls-3{fill:#5cb886;}</style></defs><title>Sin título-1</title><path class="cls-1" d="M14.41,65.36h2.94a5,5,0,0,1,2.55.51,1.73,1.73,0,0,1,.83,1.59,2,2,0,0,1-.36,1.21,1.62,1.62,0,0,1-1,.65v0.06a2,2,0,0,1,1.14.69,2.08,2.08,0,0,1,.35,1.26A2.15,2.15,0,0,1,20,73.14a3.77,3.77,0,0,1-2.35.66H14.41V65.36Zm2.28,3.24h0.69a1.24,1.24,0,0,0,.76-0.2,0.7,0.7,0,0,0,.27-0.6q0-.71-1.07-0.71H16.69V68.6Zm0,1.67V72h0.8a0.88,0.88,0,0,0,1.07-.9,0.78,0.78,0,0,0-.29-0.65,1.32,1.32,0,0,0-.83-0.22H16.69Z"/><path class="cls-1" d="M24.8,73.92A3.51,3.51,0,0,1,22.27,73a3.27,3.27,0,0,1-.9-2.47A3.56,3.56,0,0,1,22.2,68a3.13,3.13,0,0,1,2.39-.89,3.17,3.17,0,0,1,2.28.77,2.93,2.93,0,0,1,.8,2.22v1h-4A1.12,1.12,0,0,0,24,72a1.57,1.57,0,0,0,1,.31,5,5,0,0,0,1.09-.11,5.31,5.31,0,0,0,1.08-.38v1.62a4,4,0,0,1-1.1.38A7.58,7.58,0,0,1,24.8,73.92Zm-0.13-5.23a0.94,0.94,0,0,0-.67.25,1.18,1.18,0,0,0-.31.79h1.94A1.13,1.13,0,0,0,25.36,69,0.89,0.89,0,0,0,24.67,68.68Z"/><path class="cls-1" d="M32.35,67.15A2,2,0,0,1,34,68a5.23,5.23,0,0,1,0,5,2,2,0,0,1-1.76.9,2.4,2.4,0,0,1-.65-0.08,1.91,1.91,0,0,1-.5-0.22,2.64,2.64,0,0,1-.52-0.46H30.48l-0.36.64H28.36v-9h2.26v2q0,0.36-.08,1.25h0.08A1.93,1.93,0,0,1,32.35,67.15Zm-0.82,1.77a0.77,0.77,0,0,0-.69.33,1.91,1.91,0,0,0-.22,1V70.6a2.26,2.26,0,0,0,.22,1.15,0.78,0.78,0,0,0,.72.35,0.66,0.66,0,0,0,.61-0.41,2.64,2.64,0,0,0,.21-1.2Q32.38,68.92,31.53,68.92Z"/><path class="cls-1" d="M35.32,65.63a1,1,0,0,1,.28-0.76,1.79,1.79,0,0,1,1.83,0,1,1,0,0,1,.29.75,1,1,0,0,1-1.21,1A1,1,0,0,1,35.32,65.63Zm2.31,8.17H35.38V67.26h2.26V73.8Z"/><path class="cls-1" d="M40.65,73.92a2,2,0,0,1-1.22-.4,2.51,2.51,0,0,1-.81-1.17,5.2,5.2,0,0,1-.29-1.81A4.24,4.24,0,0,1,39,68a2,2,0,0,1,1.76-.9,2,2,0,0,1,1,.22,2.12,2.12,0,0,1,.75.74h0a10.82,10.82,0,0,1-.11-1.54V64.82h2.27v9H43L42.48,73H42.39A1.91,1.91,0,0,1,40.65,73.92Zm0.92-1.78a0.84,0.84,0,0,0,.76-0.34,2.06,2.06,0,0,0,.24-1.05V70.56a2.29,2.29,0,0,0-.25-1.23A0.87,0.87,0,0,0,41.55,69a0.76,0.76,0,0,0-.69.42,2.38,2.38,0,0,0-.25,1.19,2.22,2.22,0,0,0,.25,1.16A0.79,0.79,0,0,0,41.57,72.13Z"/><path class="cls-1" d="M49.89,73.8l-0.43-.87h0a2.56,2.56,0,0,1-.93.77,3.06,3.06,0,0,1-1.22.21,1.92,1.92,0,0,1-1.45-.55,2.16,2.16,0,0,1-.53-1.56A1.77,1.77,0,0,1,46,70.25a4,4,0,0,1,2.11-.57l1.09,0V69.55a0.71,0.71,0,0,0-.8-0.81,4.77,4.77,0,0,0-1.82.48l-0.65-1.49a6.27,6.27,0,0,1,2.88-.59,2.8,2.8,0,0,1,1.95.62,2.23,2.23,0,0,1,.69,1.74V73.8H49.89Zm-1.67-1.48a1,1,0,0,0,.7-0.26,0.86,0.86,0,0,0,.29-0.67V70.88l-0.52,0q-1.11,0-1.11.82A0.55,0.55,0,0,0,48.22,72.32Z"/><path class="cls-1" d="M57.45,71.79a1.86,1.86,0,0,1-.72,1.59,3.38,3.38,0,0,1-2.05.54,8.79,8.79,0,0,1-1.26-.08,5.33,5.33,0,0,1-1.1-.29V71.75a6.77,6.77,0,0,0,1.15.38,4.82,4.82,0,0,0,1.12.15q0.73,0,.73-0.33a0.38,0.38,0,0,0-.2-0.31,9.54,9.54,0,0,0-1.19-.53,3,3,0,0,1-1.26-.84,1.91,1.91,0,0,1-.36-1.19,1.65,1.65,0,0,1,.7-1.42,3.37,3.37,0,0,1,2-.51,5,5,0,0,1,1.21.14,7.21,7.21,0,0,1,1.18.41l-0.61,1.45a6.89,6.89,0,0,0-1-.34A3.14,3.14,0,0,0,55,68.67q-0.55,0-.55.27a0.34,0.34,0,0,0,.19.29,10.28,10.28,0,0,0,1.12.48,4.28,4.28,0,0,1,1,.55,1.65,1.65,0,0,1,.5.64A2.23,2.23,0,0,1,57.45,71.79Z"/><path class="cls-2" d="M46.92,58.7s18-9.09,18.41-14.66c0.18-2.59,6.43-6.21,5.2-7.49-3-3.12-6.35,1.85-11.47,3l-3.3,1c-4.2-1.05-11.53,6.29-15.23,8.56-3.38,2.07-4.71,4.15-12.74,9.24Z"/><path class="cls-3" d="M39.79,17.49V3.29h-6v14.2a8.52,8.52,0,0,0-6,8.44V58.29h18V25.93A8.52,8.52,0,0,0,39.79,17.49Z"/><path class="cls-1" d="M45.79,59.29h-18a1,1,0,0,1-1-1V25.93a9.51,9.51,0,0,1,6-9.13V3.29a1,1,0,0,1,1-1h6a1,1,0,0,1,1,1V16.8a9.51,9.51,0,0,1,6,9.13V58.29A1,1,0,0,1,45.79,59.29Zm-17-2h16V25.93a7.53,7.53,0,0,0-5.32-7.5,1,1,0,0,1-.68-0.95V4.29h-4v13.2a1,1,0,0,1-.68.95,7.53,7.53,0,0,0-5.32,7.5V57.29Z"/><path class="cls-1" d="M45.79,26.93h-18a1,1,0,0,1,0-2h18A1,1,0,0,1,45.79,26.93Z"/><path class="cls-1" d="M45.79,30.19H28.36a1,1,0,0,1,0-2H45.79A1,1,0,1,1,45.79,30.19Z"/><path class="cls-1" d="M45.79,47H28.36a1,1,0,1,1,0-2H45.79A1,1,0,1,1,45.79,47Z"/><path class="cls-1" d="M37.08,42.1a5.58,5.58,0,0,1-5.58-5.58,1,1,0,0,1,2,0,3.58,3.58,0,1,0,7.15,0,1,1,0,0,1,2,0A5.58,5.58,0,0,1,37.08,42.1Z"/><path class="cls-1" d="M39.79,8.18h-6a1,1,0,0,1,0-2h6A1,1,0,0,1,39.79,8.18Z"/></svg>