<svg id="Capa_1" data-name="Capa 1" xmlns="http://www.w3.org/2000/svg" viewBox="0 0 73.92 84.92"><defs><style>.cls-1{fill:#fff;}.cls-2{fill:#0faa6d;}.cls-3{fill:#5cb886;}</style></defs><title>Sin título-1</title><path class="cls-1" d="M24.88,73.8H22.64V65.36h5v1.83H24.88V68.8h2.53v1.83H24.88V73.8Z"/><path class="cls-1" d="M32.23,67.15a3.21,3.21,0,0,1,.56,0l0.13,0-0.2,2.13a3.29,3.29,0,0,0-.77-0.07,1.46,1.46,0,0,0-1.07.34,1.32,1.32,0,0,0-.33,1V73.8H28.29V67.26H30l0.35,1h0.11a2.26,2.26,0,0,1,.79-0.84A1.89,1.89,0,0,1,32.23,67.15Z"/><path class="cls-1" d="M37.9,73.8L37.61,73H37.48a1.84,1.84,0,0,1-.79.69,2.75,2.75,0,0,1-1.19.24,2.21,2.21,0,0,1-1.68-.63,2.46,2.46,0,0,1-.6-1.77V67.26h2.26v3.57a2.06,2.06,0,0,0,.18,1,0.63,0.63,0,0,0,.6.33,0.87,0.87,0,0,0,.83-0.46,3.5,3.5,0,0,0,.25-1.55V67.26H39.6V73.8H37.9Z"/><path class="cls-1" d="M43.77,72.13a3.35,3.35,0,0,0,1.09-.22v1.64a4.44,4.44,0,0,1-.87.28,4.84,4.84,0,0,1-1,.08,2.11,2.11,0,0,1-1.64-.56,2.49,2.49,0,0,1-.5-1.71V69H40.09V68l1-.71L41.68,66h1.48v1.31h1.6V69h-1.6V71.5A0.55,0.55,0,0,0,43.77,72.13Z"/><path class="cls-1" d="M49.67,73.8l-0.43-.87h0a2.56,2.56,0,0,1-.93.77,3.06,3.06,0,0,1-1.22.21,1.92,1.92,0,0,1-1.45-.55,2.16,2.16,0,0,1-.53-1.56,1.77,1.77,0,0,1,.73-1.56,4,4,0,0,1,2.11-.57l1.09,0V69.55a0.71,0.71,0,0,0-.8-0.81,4.77,4.77,0,0,0-1.82.48l-0.65-1.49a6.27,6.27,0,0,1,2.88-.59,2.8,2.8,0,0,1,1.95.62,2.23,2.23,0,0,1,.69,1.74V73.8H49.67ZM48,72.32a1,1,0,0,0,.7-0.26A0.86,0.86,0,0,0,49,71.39V70.88l-0.52,0q-1.11,0-1.11.82A0.55,0.55,0,0,0,48,72.32Z"/><path class="cls-1" d="M57.23,71.79a1.86,1.86,0,0,1-.72,1.59,3.38,3.38,0,0,1-2.05.54,8.79,8.79,0,0,1-1.26-.08,5.33,5.33,0,0,1-1.1-.29V71.75a6.77,6.77,0,0,0,1.15.38,4.82,4.82,0,0,0,1.12.15q0.73,0,.73-0.33a0.38,0.38,0,0,0-.2-0.31,9.54,9.54,0,0,0-1.19-.53,3,3,0,0,1-1.26-.84,1.91,1.91,0,0,1-.36-1.19,1.65,1.65,0,0,1,.7-1.42,3.37,3.37,0,0,1,2-.51,5,5,0,0,1,1.21.14,7.21,7.21,0,0,1,1.18.41l-0.61,1.45a6.89,6.89,0,0,0-1-.34,3.14,3.14,0,0,0-.82-0.14q-0.55,0-.55.27a0.34,0.34,0,0,0,.19.29,10.28,10.28,0,0,0,1.12.48,4.28,4.28,0,0,1,1,.55,1.65,1.65,0,0,1,.5.64A2.23,2.23,0,0,1,57.23,71.79Z"/><path class="cls-2" d="M26.82,50.09c1.87,3.2,15.55,10.35,33.39-.61,10.47-6.44,8.87-9.75,7-13s-7.5-7-27.25-2.43C18.79,39,25,46.89,26.82,50.09Z"/><path class="cls-3" d="M48.46,49.92c4.86-2.48,7.89-7.24,7.89-13.57,0,0,0-.07,0-0.1,0-.28,0-0.56,0-0.83a12.07,12.07,0,0,0-18.84-9.25,12.07,12.07,0,0,0-18.84,9.25c0,0.28,0,.55,0,0.83,0,0,0,.07,0,0.1a14.86,14.86,0,0,0,8.19,13.73S35.77,56.39,48.46,49.92Z"/><path class="cls-1" d="M37,53.86A19.88,19.88,0,0,1,26.3,50.94a15.84,15.84,0,0,1-8.67-14.59V36.24c0-.29,0-0.58,0-0.87A13.07,13.07,0,0,1,37.49,25,13.07,13.07,0,0,1,57.33,35.36c0,0.3,0,.59,0,0.88v0.11c0,6.46-3.07,11.72-8.43,14.46h0A26,26,0,0,1,37,53.86ZM30.7,25.08a11.07,11.07,0,0,0-11,10.4c0,0.25,0,.51,0,0.78v0.1A13.92,13.92,0,0,0,27.29,49.2l0.11,0.07C27.74,49.51,36,55.13,48,49h0c4.73-2.41,7.34-6.92,7.34-12.67,0-.36,0-0.63,0-0.89A11.07,11.07,0,0,0,38.05,27l-0.56.38L36.93,27A11,11,0,0,0,30.7,25.08Z"/><path class="cls-3" d="M43.87,37.35a6.43,6.43,0,1,1-12.86,0"/><path class="cls-1" d="M37.44,44.78A7.44,7.44,0,0,1,30,37.35a1,1,0,1,1,2,0,5.43,5.43,0,1,0,10.86,0,1,1,0,0,1,2,0A7.44,7.44,0,0,1,37.44,44.78Z"/><path class="cls-1" d="M37.49,27.17a1,1,0,0,1-1-1V15.35a1,1,0,1,1,2,0V26.17A1,1,0,0,1,37.49,27.17Z"/><path class="cls-1" d="M44.77,22.81l-0.75,0c-4.79-.32-6.6-1.44-6.79-1.57a1,1,0,0,1-.33-1.3,8.84,8.84,0,0,1,7.54-4.18c5.32-.17,7.38,2.72,7.46,2.84a1,1,0,0,1,0,1.19A9.25,9.25,0,0,1,44.77,22.81ZM39.34,20a19.71,19.71,0,0,0,4.81.82,7.68,7.68,0,0,0,5.52-1.66,7.72,7.72,0,0,0-5.16-1.4A7.15,7.15,0,0,0,39.34,20Zm-1.56.42h0Z"/></svg>