<svg id="Capa_1" data-name="Capa 1" xmlns="http://www.w3.org/2000/svg" viewBox="0 0 156.55 52.5"><defs><style>.cls-1{fill:#fff;}</style></defs><title>Sin título-1</title><path class="cls-1" d="M40.37,21l0.24-2.46h2.1V11.39H13.28v7.19h2l1.64,16.57H25l1,9.64h22.1l0.7-8.08,0.93-8.49h1.63V21h-11ZM15.11,17.16H14.7V12.81H41.29v4.35H15.11Zm3.06,16.57L16.68,18.58H39.19L38.95,21h-17v7.19h2.44l0.54,5.5H18.18Zm6-6.93H23.33V22.46H38.81L38.38,26.8H24.21Zm1.57,1.42H38.24l-0.54,5.5H26.33Zm21.59,8.35-0.59,6.8H27.28l-0.81-8.22H39l0.68-6.93h8.62Zm2.55-9.77H39.8l0.43-4.34h9.69V26.8Z"/><path class="cls-1" d="M65,25.9l-2.37-4.06H60.16V25.9h-4V10.59h6.45a5.62,5.62,0,0,1,3.82,9.76l3.24,5.55H65Zm-4.86-7.53h2.49a2.19,2.19,0,1,0,0-4.39H60.16v4.39Z"/><path class="cls-1" d="M71.63,10.59h9.51v3.33H75.65v2.49h4.86V19.8H75.65v2.82h5.49V25.9H71.63V10.59Z"/><path class="cls-1" d="M84,10.59h5.67a7.65,7.65,0,0,1,0,15.31H84V10.59ZM88,21.9h1.69a3.62,3.62,0,1,0,0-7.25H88V21.9Z"/><path class="cls-1" d="M64.2,33.82l6.22-5.67h1.82V43.45h-4V35.59l-4,3.65-4-3.63v7.84h-4V28.14H58Z"/><path class="cls-1" d="M74.3,43.45l7.14-15.31h1.82l7.21,15.31h-4l-0.94-2H79.24l-0.92,2h-4Zm6.51-5.39h3.12L82.39,34.7Z"/><path class="cls-1" d="M101.44,33.21a3.57,3.57,0,0,0-2.57-1,3.59,3.59,0,1,0,2.57,6.16l2.86,2.82a7.65,7.65,0,1,1-5.43-13,7.57,7.57,0,0,1,5.39,2.22Z"/><path class="cls-1" d="M107.36,28.14h9.51v3.33h-5.49V34h4.86v3.39h-4.86v2.82h5.49v3.29h-9.51V28.14Z"/><path class="cls-1" d="M119.42,28.12h12.06v4h-4.06V43.45h-4V32.12h-4v-4Z"/><path class="cls-1" d="M132.13,43.45l7.14-15.31h1.82l7.21,15.31h-4l-0.94-2h-6.27l-0.92,2h-4Zm6.51-5.39h3.12l-1.55-3.37Z"/></svg>