<svg id="Capa_1" data-name="Capa 1" xmlns="http://www.w3.org/2000/svg" viewBox="0 0 154.41 139.62"><defs><style>.cls-1{fill:#fff;}</style></defs><title>Sin título-1</title><path class="cls-1" d="M77.21,42.14a6.55,6.55,0,0,1-6.54-6.54,1,1,0,0,1,2,0,4.54,4.54,0,1,0,9.09,0,1,1,0,0,1,2,0A6.55,6.55,0,0,1,77.21,42.14Z"/><path class="cls-1" d="M88.63,48.9H65.78a1,1,0,0,1-1-.92L63.33,29.7a1,1,0,0,1,1-1.08H90.08a1,1,0,0,1,1,1.08L89.63,48A1,1,0,0,1,88.63,48.9Zm-21.92-2h21L89,30.62H65.41Z"/><path class="cls-1" d="M92.49,30.54H61.92a1,1,0,0,1-1-1V22.9a1,1,0,0,1,1-1H92.49a1,1,0,0,1,1,1v6.64A1,1,0,0,1,92.49,30.54Zm-29.56-2H91.49V23.9H62.92v4.64Z"/><path class="cls-1" d="M69.63,7.43A9.81,9.81,0,0,1,62.1,4.21a1,1,0,0,1,0-1.19C62.16,2.88,64.36-.18,70,0a9.37,9.37,0,0,1,8,4.43,1,1,0,0,1-.33,1.3c-0.2.13-2.11,1.32-7.22,1.66ZM64.3,3.58a8.23,8.23,0,0,0,6,1.83,20.82,20.82,0,0,0,5.25-.91A7.68,7.68,0,0,0,69.92,2,8.37,8.37,0,0,0,64.3,3.58Z"/><path class="cls-1" d="M84.78,7.43l-0.8,0c-5.1-.34-7-1.53-7.22-1.66a1,1,0,0,1-.33-1.3,9.37,9.37,0,0,1,8-4.43c5.63-.22,7.82,2.87,7.91,3a1,1,0,0,1,0,1.19A9.81,9.81,0,0,1,84.78,7.43ZM78.86,4.5a20.72,20.72,0,0,0,5.25.91,8.27,8.27,0,0,0,6-1.84A8.29,8.29,0,0,0,84.49,2,7.71,7.71,0,0,0,78.86,4.5Zm-1.54.42h0Z"/><path class="cls-1" d="M77.27,23.61a1,1,0,0,1-1-1V5.18a1,1,0,0,1,2,0V22.61A1,1,0,0,1,77.27,23.61Z"/><path class="cls-1" d="M37.28,93.56a6.71,6.71,0,0,1-6.7-6.7,1,1,0,0,1,2,0,4.7,4.7,0,1,0,9.4,0,1,1,0,0,1,2,0A6.71,6.71,0,0,1,37.28,93.56Z"/><path class="cls-1" d="M49,100.51H25.54a1,1,0,0,1-1-.92L23.05,80.81a1,1,0,0,1,1-1.08H50.52a1,1,0,0,1,1,1.08L50,99.59A1,1,0,0,1,49,100.51Zm-22.56-2H48.1l1.33-16.79H25.13Z"/><path class="cls-1" d="M53,81.64H21.57a1,1,0,0,1-1-1V73.81a1,1,0,0,1,1-1H53a1,1,0,0,1,1,1v6.83A1,1,0,0,1,53,81.64Zm-30.42-2H52V74.81H22.57v4.83Z"/><path class="cls-1" d="M77.21,93.56a6.71,6.71,0,0,1-6.7-6.7,1,1,0,0,1,2,0,4.7,4.7,0,1,0,9.4,0,1,1,0,0,1,2,0A6.71,6.71,0,0,1,77.21,93.56Z"/><path class="cls-1" d="M88.95,100.51H65.46a1,1,0,0,1-1-.92L63,80.81a1,1,0,0,1,1-1.08H90.44a1,1,0,0,1,1,1.08L89.95,99.59A1,1,0,0,1,88.95,100.51Zm-22.56-2H88l1.33-16.79H65.05Z"/><path class="cls-1" d="M92.92,81.64H61.5a1,1,0,0,1-1-1V73.81a1,1,0,0,1,1-1H92.92a1,1,0,0,1,1,1v6.83A1,1,0,0,1,92.92,81.64Zm-30.42-2H91.92V74.81H62.5v4.83Z"/><path class="cls-1" d="M57.24,67.95a6.71,6.71,0,0,1-6.7-6.7,1,1,0,0,1,2,0,4.7,4.7,0,0,0,9.4,0,1,1,0,0,1,2,0A6.71,6.71,0,0,1,57.24,67.95Z"/><path class="cls-1" d="M69,74.9H45.5a1,1,0,0,1-1-.92L43,55.19a1,1,0,0,1,1-1.08H70.48a1,1,0,0,1,1,1.08L70,74A1,1,0,0,1,69,74.9Zm-22.56-2H68.06L69.4,56.11H45.09Z"/><path class="cls-1" d="M73,56H41.53a1,1,0,0,1-1-1V48.2a1,1,0,0,1,1-1H73a1,1,0,0,1,1,1V55A1,1,0,0,1,73,56ZM42.53,54H72V49.2H42.53V54Z"/><path class="cls-1" d="M97.17,67.95a6.71,6.71,0,0,1-6.7-6.7,1,1,0,0,1,2,0,4.7,4.7,0,0,0,9.4,0,1,1,0,0,1,2,0A6.71,6.71,0,0,1,97.17,67.95Z"/><path class="cls-1" d="M108.91,74.9H85.43a1,1,0,0,1-1-.92L82.94,55.19a1,1,0,0,1,1-1.08H110.4a1,1,0,0,1,1,1.08L109.91,74A1,1,0,0,1,108.91,74.9Zm-22.56-2H108l1.33-16.79H85Z"/><path class="cls-1" d="M112.88,56H81.46a1,1,0,0,1-1-1V48.2a1,1,0,0,1,1-1h31.42a1,1,0,0,1,1,1V55A1,1,0,0,1,112.88,56ZM82.46,54h29.42V49.2H82.46V54Z"/><path class="cls-1" d="M117.13,93.56a6.71,6.71,0,0,1-6.7-6.7,1,1,0,0,1,2,0,4.7,4.7,0,1,0,9.4,0,1,1,0,0,1,2,0A6.71,6.71,0,0,1,117.13,93.56Z"/><path class="cls-1" d="M128.87,100.51H105.39a1,1,0,0,1-1-.92L102.9,80.81a1,1,0,0,1,1-1.08h26.47a1,1,0,0,1,1,1.08l-1.49,18.79A1,1,0,0,1,128.87,100.51Zm-22.56-2h21.64l1.33-16.79H105Z"/><path class="cls-1" d="M132.84,81.64H101.42a1,1,0,0,1-1-1V73.81a1,1,0,0,1,1-1h31.42a1,1,0,0,1,1,1v6.83A1,1,0,0,1,132.84,81.64Zm-30.42-2h29.42V74.81H102.42v4.83Z"/><path class="cls-1" d="M153.41,125.32H1a1,1,0,0,1-1-1v-25a1,1,0,0,1,1-1H153.41a1,1,0,0,1,1,1v25A1,1,0,0,1,153.41,125.32ZM2,123.32H152.41v-23H2v23Z"/><path class="cls-1" d="M3.48,139.62a1,1,0,0,1-1-1V124.32a1,1,0,0,1,2,0v14.29A1,1,0,0,1,3.48,139.62Z"/><path class="cls-1" d="M151.31,139.62a1,1,0,0,1-1-1V124.32a1,1,0,0,1,2,0v14.29A1,1,0,0,1,151.31,139.62Z"/></svg>