<svg id="Capa_1" data-name="Capa 1" xmlns="http://www.w3.org/2000/svg" viewBox="0 0 292.55 187.35"><defs><style>.cls-1{fill:#fff;}</style></defs><title>Sin título-1</title><path class="cls-1" d="M270.79,177.35a8.53,8.53,0,0,0,8.53-8.52h-2a6.52,6.52,0,0,1-13,0h-2A8.53,8.53,0,0,0,270.79,177.35Z"/><path class="cls-1" d="M292.55,150.61H271.72v-22a28.49,28.49,0,0,0,8.3,1.58q0.55,0,1.06,0A12.93,12.93,0,0,0,291,126l0.46-.58-0.42-.61c-0.12-.17-3-4.2-10.43-3.93a12.62,12.62,0,0,0-9.82,4.75,12.62,12.62,0,0,0-9.81-4.76c-7.45-.27-10.32,3.75-10.44,3.92l-0.43.61,0.46,0.58a12.93,12.93,0,0,0,9.93,4.25q0.52,0,1.06,0a29,29,0,0,0,8.13-1.5V150.6H249.26l0.43-2.39-14.74-2,1.35-16.88h2.64v-9.09H222.58V103.46a23.53,23.53,0,0,0,6.3,1.14l0.85,0a10.39,10.39,0,0,0,8-3.41l0.46-.58-0.42-.61c-0.1-.14-2.42-3.36-8.38-3.18a10.17,10.17,0,0,0-7.71,3.6,10.17,10.17,0,0,0-7.7-3.61c-6-.21-8.29,3-8.38,3.17l-0.43.61,0.46,0.58a10.39,10.39,0,0,0,8,3.42l0.85,0a24,24,0,0,0,6.16-1.08v16.67H204.35v9.09H207l1,13.15-14.55-2-0.92-6.72L185.7,132,185.23,134l5.52,1.32,1.23,9,3,27h7.6l-9.88,7.67h1.75a4.4,4.4,0,1,0,6.14,0l33.31,0a4.4,4.4,0,1,0,6.14,0h2.35v-2l-43.87,0,7.3-5.67,39.74,0,3.52-19.64v10h3.34l2,24.91,32.85,0,2-24.91h3.34v-11ZM280.71,122.9c4.66-.14,7.17,1.55,8.18,2.48a11.52,11.52,0,0,1-8.71,2.85,26.67,26.67,0,0,1-7.7-1.44A10.75,10.75,0,0,1,280.71,122.9Zm-19.23,5.32a11.46,11.46,0,0,1-8.71-2.85c1-.93,3.51-2.62,8.19-2.48a10.68,10.68,0,0,1,8.24,3.9A26.63,26.63,0,0,1,261.47,128.22Zm-32-29.38a8.85,8.85,0,0,1,6.1,1.74,8.84,8.84,0,0,1-6.51,2,21.85,21.85,0,0,1-5.71-1A8.27,8.27,0,0,1,229.43,98.84ZM214.3,102.6a8.85,8.85,0,0,1-6.51-2,8.89,8.89,0,0,1,6.1-1.73,8.24,8.24,0,0,1,6.12,2.75A21.83,21.83,0,0,1,214.3,102.6Zm-7.95,19.58,30.59,0v5.09l-30.59,0v-5.09Zm-8.86,62.31a2.4,2.4,0,1,1,2.4-2.4A2.41,2.41,0,0,1,197.49,184.49Zm39.45,0a2.4,2.4,0,1,1,2.4-2.4A2.41,2.41,0,0,1,236.94,184.51Zm-33.41-15.25-2.12-25.75,8,1.11,1,24.65h-6.86Zm7.88-24.36,8,1.11-0.14,23.26H212.4Zm10,1.39,8,1.11-1.28,21.87h-6.88Zm10,1.39,8,1.11L237,169.28h-6.88ZM209,129.35l25.29,0L233,145.88,210,142.69Zm-15.2,13.11,5.59,0.78,2.14,26h-4.78Zm50.08,26.84H239l2.37-20.22,5.94,0.83Zm41.49,15.25-29.16,0-1.8-22.8,32.78,0Zm5.18-24.91-39.48,0v-7l39.48,0v7Z"/><path class="cls-1" d="M28.67,182.11A5.15,5.15,0,0,0,33.82,177h-2a3.15,3.15,0,1,1-6.3,0h-2A5.15,5.15,0,0,0,28.67,182.11Z"/><path class="cls-1" d="M29.64,155.44a18,18,0,0,0,4.1.69l0.61,0a7.61,7.61,0,0,0,5.83-2.51l0.46-.58-0.42-.61c-0.07-.1-1.79-2.51-6.13-2.36a7.46,7.46,0,0,0-5.4,2.38,7.46,7.46,0,0,0-5.4-2.38c-4.35-.15-6.07,2.25-6.14,2.35l-0.43.61,0.46,0.58A7.61,7.61,0,0,0,23,156.14l0.61,0a18.16,18.16,0,0,0,4-.66v11H16.24v7h1.87l1.08,13.74H38.14l1.1-13.73h1.87v-7H29.63v-11Zm4.51-3.35a6.32,6.32,0,0,1,3.79.93,6,6,0,0,1-4.06,1.11,16.6,16.6,0,0,1-3.48-.55A5.58,5.58,0,0,1,34.15,152.09Zm-10.65,2A6,6,0,0,1,19.44,153a6.32,6.32,0,0,1,3.79-.93,5.58,5.58,0,0,1,3.76,1.5A16.59,16.59,0,0,1,23.5,154.12Zm12.79,31.05H21l-0.92-11.67h17.1Zm2.82-13.73H18.24v-3H39.11v3Z"/><path class="cls-1" d="M67.34,51.59a5.1,5.1,0,0,1-5.09-5.1h-2a7.1,7.1,0,1,0,14.19,0h-2A5.1,5.1,0,0,1,67.34,51.59Z"/><path class="cls-1" d="M197,102.74l1.41-1.41L147,49.79l-14,14,0.63-12.4h3.9V40H113.59V19.61a27.44,27.44,0,0,0,7.89,1.49c0.35,0,.69,0,1,0A12.41,12.41,0,0,0,132,17.06l0.46-.58-0.42-.61c-0.11-.16-2.86-4-10-3.77a12.11,12.11,0,0,0-9.39,4.51,12.11,12.11,0,0,0-9.38-4.52c-7.14-.26-9.9,3.6-10,3.76l-0.43.61L93.32,17a12.41,12.41,0,0,0,9.53,4.08q0.5,0,1,0a28,28,0,0,0,7.73-1.42V39.94H91.45V51.34h3l0.4,8H81l1.48-18.49h2.72V31.54H68.29V14.22a24,24,0,0,0,6.53,1.19l0.87,0a10.68,10.68,0,0,0,8.2-3.51l0.46-.58-0.42-.61c-0.1-.14-2.49-3.45-8.61-3.26a10.44,10.44,0,0,0-7.95,3.73,10.44,10.44,0,0,0-7.94-3.74c-6.14-.22-8.52,3.11-8.62,3.25l-0.43.61,0.46,0.58A10.68,10.68,0,0,0,59,15.42l0.87,0a24.6,24.6,0,0,0,6.39-1.13V31.53H49.55v9.31h2.72l1.46,18.49H44.61l0,46L0,160.6v3.18l44.58-55.29,0,78.78h62.08l43.61,0H185l0.06-96.54ZM122.13,14.09c4.4-.14,6.78,1.44,7.76,2.33a10.91,10.91,0,0,1-8.26,2.68,25.67,25.67,0,0,1-7.3-1.35A10.24,10.24,0,0,1,122.13,14.09Zm-18.39,5a10.91,10.91,0,0,1-8.26-2.69c1-.89,3.34-2.47,7.76-2.32A10.18,10.18,0,0,1,111,17.75,25.67,25.67,0,0,1,103.74,19.09ZM75.38,9.47c3.51-.1,5.46,1.08,6.34,1.83A9.16,9.16,0,0,1,75,13.41,22.42,22.42,0,0,1,69,12.35,8.52,8.52,0,0,1,75.38,9.47ZM59.78,13.4A9.2,9.2,0,0,1,53,11.28c0.88-.75,2.83-1.93,6.34-1.82a8.52,8.52,0,0,1,6.36,2.89A22.42,22.42,0,0,1,59.78,13.4ZM51.55,33.52l31.61,0v5.31l-31.61,0V33.52Zm2.73,7.4,26.15,0L79,59H55.7Zm39.17,1,42.06,0v7.41l-42.06,0V41.92Zm3,9.41,35.11,0-0.74,14.51L106.67,90l0-27.74V59.35h-9.8ZM46.56,145.46l58.08,0v7.7l-58.08,0v-7.7Zm0-2v-7.7l58.08,0v7.7Zm0-9.7v-7.7l58.08,0v7.7Zm0-9.7v-7.7l58.08,0v7.7Zm0-9.7v-7.7l58.08,0v7.7Zm0-9.7V97l58.08,0v7.7Zm0-9.7v-7.7l58.08,0V95Zm58.08-9.67-58.08,0v-7.7l58.08,0v7.7Zm0-23.94V75.58l-58.08,0V61.31ZM68.42,185.28V164.54h14.3v20.74H68.42Zm16.3,0V162.55H66.44v22.74H46.53l0-30.1,58.08,0,0,30.1H84.72Zm67.5,0V164.6h14.3v20.74h-14.3Zm30.81,0H168.52V162.61h-18.3v22.74l-43.61,0,0.06-92.45,40.28-40.24,36.14,36.19Z"/><path class="cls-1" d="M169.33,102.73h-9.72l0,47.1h9.72Zm-2,45.1h-5.72l0-43.1h5.72Z"/><path class="cls-1" d="M141.6,149.81h9.72l0-47.1h-9.72Zm2-45.1h5.72l0,43.1H143.6Z"/><path class="cls-1" d="M123.62,149.8h9.72l0-47.1h-9.72Zm2-45.1h5.72l0,43.1h-5.72Z"/><path class="cls-1" d="M123.94,162.1h-6.31v14.18h14.61V162.1h-8.31Zm0,12.18h-4.31V164.09h4.31v10.18Zm6.31-10.18v10.18h-4.31V164.1h4.31Z"/><path class="cls-1" d="M135.49,80.66a11,11,0,1,0,11-11A11,11,0,0,0,135.49,80.66Zm20,0a9,9,0,1,1-9-9A9,9,0,0,1,155.52,80.67Z"/><path class="cls-1" d="M-8.41,104.87h2.7V96.47H-22.13V57.66a30.33,30.33,0,0,0,9.6,1.89c0.4,0,.8,0,1.18,0a14.26,14.26,0,0,0,11-4.67L0,54.41l-0.37-.53c-0.13-.19-3.27-4.58-11.51-4.3a13.87,13.87,0,0,0-11,5.51,13.87,13.87,0,0,0-11-5.51c-8.22-.28-11.38,4.11-11.51,4.3l-0.37.53,0.4,0.51a14.26,14.26,0,0,0,11,4.67q0.57,0,1.18,0a31.1,31.1,0,0,0,9.41-1.81V96.47H-37.64v8.39h2.12l1.4,16.14h-7V69.15H-57l1.82-21h3.44V38H-72.35V17.91a27.41,27.41,0,0,0,7.88,1.48c0.35,0,.69,0,1,0a12.39,12.39,0,0,0,9.52-4.07l0.46-.58-0.42-.61c-0.11-.16-2.86-4-10-3.76a12.1,12.1,0,0,0-9.37,4.51,12.1,12.1,0,0,0-9.37-4.51c-7.14-.23-9.89,3.6-10,3.76l-0.42.61,0.46,0.58a12.39,12.39,0,0,0,9.52,4.07q0.5,0,1,0A28,28,0,0,0-74.35,18V38H-92.14V48.19h2.69l1.82,21h-15.15v67.59h-23v49.85h7V187h11.28v-0.36h7.1v-0.06H0V121H-9.81Zm-25-47.05a13.06,13.06,0,0,1-10.17-3.45c1-1,3.93-3.21,9.57-3a12.19,12.19,0,0,1,9.66,4.74A28.8,28.8,0,0,1-33.4,57.82Zm21.58-6.5c5.67-.17,8.54,2,9.57,3a13.18,13.18,0,0,1-10.17,3.46,28.86,28.86,0,0,1-9-1.75A12.29,12.29,0,0,1-11.81,51.32ZM-35.64,98.47H-7.71v4.39H-35.64V98.47Zm25.22,6.39-1.37,15.82H-32.14l-1.37-15.82h23.1ZM-63.83,12.39c4.39-.14,6.76,1.43,7.74,2.32a11,11,0,0,1-8.25,2.68A25.66,25.66,0,0,1-71.62,16,10.22,10.22,0,0,1-63.83,12.39Zm-18.37,5a10.89,10.89,0,0,1-8.25-2.68c1-.89,3.35-2.47,7.75-2.32A10.17,10.17,0,0,1-74.91,16,25.6,25.6,0,0,1-82.2,17.39ZM-90.14,40h36.41v6.21H-90.14V40Zm33,8.21L-59,69.06H-85.63l-1.81-20.87h30.27ZM-100.78,81.5h8.27v70.33h-8.27V81.5Zm10.27,0h11v70.33h-11V81.5Zm13,0h11v70.33h-11V81.5Zm13,0h11v70.33h-11V81.5Zm13,0h8.35v70.33H-51.5V81.5Zm8.35-10.34V79.5h-57.63V71.15h57.63Zm-59.63,67.59v13.08h-21V138.75h21Zm-6.75,45.85h-7.28V164.86h7.28v19.73Zm-9.28-21.73v21.73h-5V153.82h21v30.77h-4.75V162.86h-11.28Zm41.16,21.64V163.76h11.38V184.5H-77.65Zm13.38,0V161.76H-79.65v22.78h-21.13V153.82h57.63v30.71H-64.28Zm40.16,0V174h7.28V184.5h-7.28Zm22.12,0H-14.84V172H-26.12v12.57h-15V123H-2v61.53Z"/></svg>