<svg id="Capa_1" data-name="Capa 1" xmlns="http://www.w3.org/2000/svg" viewBox="0 0 399.49 380.69"><defs><style>.cls-1{fill:#be1818;}</style></defs><title>Sin título-1</title><path class="cls-1" d="M74.85,19.21H63.61V0.27H74.85V4.38H68.72v3H74.4v4.11H68.72V15h6.13v4.17Z"/><path class="cls-1" d="M96.2,19.21H89.49L82.57,5.87H82.46Q82.7,9,82.7,10.67v8.54H78.17V0.27h6.69l6.89,13.16h0.08q-0.18-2.86-.18-4.6V0.27H96.2V19.21Z"/><path class="cls-1" d="M108.73,4.2a3.26,3.26,0,0,0-2.85,1.5,7.22,7.22,0,0,0-1,4.13q0,5.47,4.16,5.47a8.5,8.5,0,0,0,2.44-.35,24.46,24.46,0,0,0,2.37-.84v4.33a13.12,13.12,0,0,1-5.36,1A8.48,8.48,0,0,1,101.88,17Q99.6,14.5,99.6,9.79a11.47,11.47,0,0,1,1.11-5.17,7.92,7.92,0,0,1,3.19-3.43A9.62,9.62,0,0,1,108.78,0a13.48,13.48,0,0,1,5.87,1.33l-1.57,4a17.64,17.64,0,0,0-2.1-.83A7.34,7.34,0,0,0,108.73,4.2Z"/><path class="cls-1" d="M133.62,0.27v11.4a7.65,7.65,0,0,1-2.11,5.76,10,10,0,0,1-12,.06,7.51,7.51,0,0,1-2.08-5.7V0.27h5.14V11.39a4.55,4.55,0,0,0,.75,2.92,3.24,3.24,0,0,0,4.49,0,4.82,4.82,0,0,0,.71-2.95V0.27h5.12Z"/><path class="cls-1" d="M148.84,19.21H137.6V0.27h11.25V4.38h-6.13v3h5.67v4.11h-5.67V15h6.13v4.17Z"/><path class="cls-1" d="M170.19,19.21h-6.71L156.56,5.87h-0.12q0.25,3.15.25,4.81v8.54h-4.53V0.27h6.69l6.89,13.16h0.08q-0.18-2.86-.18-4.6V0.27h4.56V19.21Z"/><path class="cls-1" d="M182.64,19.21h-5.12V4.46H172.9V0.27h14.35V4.46h-4.61V19.21Z"/><path class="cls-1" d="M195.08,12.32v6.89H190V0.27h6.21q7.72,0,7.72,5.6A5.59,5.59,0,0,1,200.68,11l5.52,8.25h-5.8l-4-6.89h-1.3Zm0-3.85h1q2.68,0,2.68-2.37,0-2-2.63-2h-1V8.47Z"/><path class="cls-1" d="M219.54,19.21l-0.93-3.55h-6.15l-1,3.55h-5.62l6.18-19h6.83l6.26,19h-5.6Zm-2-7.75-0.82-3.11q-0.28-1-.69-2.68T215.5,3.32Q215.38,4,215,5.49t-1.52,6h4Z"/><path class="cls-1" d="M245.32,19.21H234.08V0.27h11.25V4.38h-6.13v3h5.67v4.11h-5.67V15h6.13v4.17Z"/><path class="cls-1" d="M248.64,19.21V0.27h5.12V15.08H261v4.13H248.64Z"/><path class="cls-1" d="M271,19.21V0.27h5.12V15.08h7.29v4.13H271Z"/><path class="cls-1" d="M302.52,0.27v11.4a7.65,7.65,0,0,1-2.11,5.76,10,10,0,0,1-12,.06,7.51,7.51,0,0,1-2.08-5.7V0.27h5.14V11.39a4.55,4.55,0,0,0,.75,2.92,3.24,3.24,0,0,0,4.49,0,4.82,4.82,0,0,0,.71-2.95V0.27h5.12Z"/><path class="cls-1" d="M314.1,8.12h8.18V18.33A22.49,22.49,0,0,1,315,19.47a8.85,8.85,0,0,1-6.77-2.54q-2.39-2.54-2.39-7.24a9.51,9.51,0,0,1,2.62-7.14Q311,0,315.75,0a16.22,16.22,0,0,1,3.38.34,14.33,14.33,0,0,1,2.77.85l-1.62,4a10,10,0,0,0-4.5-1,4.28,4.28,0,0,0-3.47,1.46,6.3,6.3,0,0,0-1.22,4.17,6.38,6.38,0,0,0,1.11,4,3.84,3.84,0,0,0,3.19,1.39,9.34,9.34,0,0,0,2.1-.22v-3H314.1v-4Z"/><path class="cls-1" d="M337.76,19.21l-0.93-3.55h-6.15l-1,3.55h-5.62l6.18-19h6.83l6.26,19h-5.6Zm-2-7.75-0.82-3.11q-0.28-1-.69-2.68t-0.54-2.36q-0.12.66-.46,2.18t-1.52,6h4Z"/><path class="cls-1" d="M350.52,12.32v6.89H345.4V0.27h6.21q7.72,0,7.72,5.6A5.59,5.59,0,0,1,356.12,11l5.52,8.25h-5.8l-4-6.89h-1.3Zm0-3.85h1q2.68,0,2.68-2.37,0-2-2.63-2h-1V8.47Z"/><path class="cls-1" d="M63.61,43.53V24.59h5.14V43.53H63.61Z"/><path class="cls-1" d="M87.6,33.66Q87.6,38.4,85,41t-7.34,2.57H71.52V24.59h6.56q4.56,0,7,2.33T87.6,33.66Zm-5.31.18a6,6,0,0,0-1-3.86,3.81,3.81,0,0,0-3.13-1.26H76.64V39.34h1.14A4.13,4.13,0,0,0,81.2,38,6.54,6.54,0,0,0,82.28,33.84Z"/><path class="cls-1" d="M100.91,43.53H89.66V24.59h11.25V28.7H94.78v3h5.67v4.11H94.78v3.58h6.13v4.17Z"/><path class="cls-1" d="M114.52,43.53L113.59,40h-6.15l-1,3.55h-5.62l6.18-19h6.83l6.26,19h-5.6Zm-2-7.75-0.82-3.11q-0.28-1-.69-2.68t-0.54-2.36q-0.12.66-.46,2.18t-1.52,6h4Z"/><path class="cls-1" d="M120.84,43.53V24.59H126V39.4h7.29v4.13H120.84Z"/><path class="cls-1" d="M154.27,30.62a6.35,6.35,0,0,1-1.87,4.9,7.56,7.56,0,0,1-5.32,1.73h-1.44v6.28h-5.12V24.59h6.56a8,8,0,0,1,5.39,1.57A5.59,5.59,0,0,1,154.27,30.62Zm-8.63,2.46h0.93a2.55,2.55,0,0,0,1.83-.65,2.35,2.35,0,0,0,.68-1.79q0-1.92-2.12-1.92h-1.32v4.35Z"/><path class="cls-1" d="M167.58,43.53L166.64,40h-6.15l-1,3.55h-5.62l6.18-19h6.83l6.26,19h-5.6Zm-2-7.75-0.82-3.11q-0.28-1-.69-2.68t-0.54-2.36q-0.12.66-.46,2.18t-1.52,6h4Z"/><path class="cls-1" d="M179,36.64v6.89h-5.12V24.59h6.21q7.72,0,7.72,5.6a5.59,5.59,0,0,1-3.21,5.09l5.52,8.25h-5.8l-4-6.89H179Zm0-3.85h1q2.68,0,2.68-2.37,0-2-2.63-2h-1v4.33Z"/><path class="cls-1" d="M202.15,43.53L201.21,40h-6.15l-1,3.55h-5.62l6.18-19h6.83l6.26,19h-5.6Zm-2-7.75-0.82-3.11q-0.28-1-.69-2.68t-0.54-2.36q-0.12.66-.46,2.18t-1.52,6h4Z"/><path class="cls-1" d="M230.13,24.59V36A7.65,7.65,0,0,1,228,41.75a10,10,0,0,1-12,.06,7.51,7.51,0,0,1-2.08-5.7V24.59h5.14V35.71a4.55,4.55,0,0,0,.75,2.92,3.24,3.24,0,0,0,4.49,0,4.82,4.82,0,0,0,.71-2.95V24.59h5.12Z"/><path class="cls-1" d="M250.82,43.53h-6.71l-6.92-13.34h-0.12q0.25,3.15.25,4.81v8.54h-4.53V24.59h6.69l6.89,13.16h0.08q-0.18-2.86-.18-4.6V24.59h4.56V43.53Z"/><path class="cls-1" d="M265.2,43.53L264.27,40h-6.15l-1,3.55h-5.62l6.18-19h6.83l6.26,19h-5.6Zm-2-7.75-0.82-3.11q-0.28-1-.69-2.68t-0.54-2.36q-0.12.66-.46,2.18t-1.52,6h4Z"/><path class="cls-1" d="M285.34,43.53l-3.87-13.64h-0.12q0.27,3.48.27,5.42v8.23h-4.53V24.59h6.81l4,13.45H288l3.87-13.45h6.83V43.53H294v-8.3q0-.65,0-1.44t0.17-3.87H294l-3.82,13.62h-4.87Z"/><path class="cls-1" d="M313,43.53L312.1,40h-6.15l-1,3.55h-5.62l6.18-19h6.83l6.26,19H313Zm-2-7.75-0.82-3.11q-0.28-1-.69-2.68T309,27.64q-0.12.66-.46,2.18t-1.52,6h4Z"/><path class="cls-1" d="M327.78,28.52a3.26,3.26,0,0,0-2.85,1.5,7.22,7.22,0,0,0-1,4.13q0,5.47,4.16,5.47a8.5,8.5,0,0,0,2.44-.35,24.46,24.46,0,0,0,2.37-.84v4.33a13.12,13.12,0,0,1-5.36,1,8.48,8.48,0,0,1-6.58-2.49q-2.29-2.49-2.29-7.19a11.47,11.47,0,0,1,1.11-5.17,7.92,7.92,0,0,1,3.19-3.43,9.62,9.62,0,0,1,4.89-1.2,13.48,13.48,0,0,1,5.87,1.33l-1.57,4a17.64,17.64,0,0,0-2.1-.83A7.34,7.34,0,0,0,327.78,28.52Z"/><path class="cls-1" d="M346.49,43.53H335.24V24.59h11.25V28.7h-6.13v3H346v4.11h-5.67v3.58h6.13v4.17Z"/><path class="cls-1" d="M356.83,43.53h-5.12V28.78h-4.62V24.59h14.35v4.18h-4.61V43.53Z"/><path class="cls-1" d="M374.45,43.53L373.52,40h-6.15l-1,3.55h-5.62l6.18-19h6.83l6.26,19h-5.6Zm-2-7.75-0.82-3.11q-0.28-1-.69-2.68t-0.54-2.36q-0.12.66-.46,2.18t-1.52,6h4Z"/><path class="cls-1" d="M385.17,39.66l0.18,0.3a50.82,50.82,0,0,1-2.28,7.27h-3.62q0.38-1.79.76-4t0.53-3.56h4.43Z"/><path class="cls-1" d="M63.61,67.86V48.92h5.12V63.72H76v4.13H63.61Z"/><path class="cls-1" d="M79.05,67.86V48.92h5.12V63.72h7.29v4.13H79.05Z"/><path class="cls-1" d="M105.74,67.86H94.49V48.92h11.25V53H99.61v3h5.67v4.11H99.61v3.58h6.13v4.17Z"/><path class="cls-1" d="M127.09,67.86h-6.71l-6.92-13.34h-0.12q0.25,3.15.25,4.81v8.54h-4.53V48.92h6.69l6.89,13.16h0.08q-0.18-2.86-.18-4.6V48.92h4.56V67.86Z"/><path class="cls-1" d="M142.8,67.86l-0.93-3.55h-6.15l-1,3.55h-5.62l6.18-19h6.83l6.26,19h-5.6Zm-2-7.75L140,57q-0.28-1-.69-2.68T138.76,52q-0.12.66-.46,2.18t-1.52,6h4Z"/><path class="cls-1" d="M168.59,67.86H157.34V48.92h11.25V53h-6.13v3h5.67v4.11h-5.67v3.58h6.13v4.17Z"/><path class="cls-1" d="M171.9,67.86V48.92H177V63.72h7.29v4.13H171.9Z"/><path class="cls-1" d="M199.28,67.86h-5V48.92h11.19V53h-6.15v3.61H205v4.11h-5.67v7.11Z"/><path class="cls-1" d="M226.26,58.36q0,4.78-2.34,7.27t-6.87,2.49q-4.46,0-6.83-2.5t-2.38-7.28q0-4.73,2.36-7.22t6.87-2.49q4.52,0,6.85,2.47T226.26,58.36Zm-13,0q0,5.49,3.82,5.49a3.29,3.29,0,0,0,2.88-1.33,7.31,7.31,0,0,0,.94-4.16,7.36,7.36,0,0,0-1-4.19,3.25,3.25,0,0,0-2.84-1.35Q213.23,52.82,213.23,58.36Z"/><path class="cls-1" d="M234.8,61v6.89h-5.12V48.92h6.21q7.72,0,7.72,5.6a5.59,5.59,0,0,1-3.21,5.09l5.52,8.25h-5.8l-4-6.89h-1.3Zm0-3.85h1q2.68,0,2.68-2.37,0-2-2.63-2h-1v4.33Z"/><path class="cls-1" d="M255.89,67.86L252,54.21H251.9q0.27,3.48.27,5.42v8.23h-4.53V48.92h6.81l4,13.45h0.1l3.87-13.45h6.83V67.86h-4.7v-8.3q0-.65,0-1.44t0.17-3.87h-0.12l-3.82,13.62h-4.87Z"/><path class="cls-1" d="M289.39,48.92v11.4a7.65,7.65,0,0,1-2.11,5.76,10,10,0,0,1-12,.06,7.51,7.51,0,0,1-2.08-5.7V48.92h5.14V60a4.55,4.55,0,0,0,.75,2.92,3.24,3.24,0,0,0,4.49,0,4.82,4.82,0,0,0,.71-2.95V48.92h5.12Z"/><path class="cls-1" d="M293.37,67.86V48.92h5.12V63.72h7.29v4.13H293.37Z"/><path class="cls-1" d="M320.44,67.86l-0.93-3.55h-6.15l-1,3.55h-5.62l6.18-19h6.83l6.26,19h-5.6Zm-2-7.75L317.63,57q-0.28-1-.69-2.68T316.39,52q-0.12.66-.46,2.18t-1.52,6h4Z"/><path class="cls-1" d="M333.2,61v6.89h-5.12V48.92h6.21q7.72,0,7.72,5.6a5.59,5.59,0,0,1-3.21,5.09l5.52,8.25h-5.8l-4-6.89h-1.3Zm0-3.85h1q2.68,0,2.68-2.37,0-2-2.63-2h-1v4.33Z"/><path class="cls-1" d="M346,67.86V48.92h5.14V67.86H346Z"/><path class="cls-1" d="M373,58.36q0,4.78-2.34,7.27t-6.87,2.49q-4.46,0-6.83-2.5t-2.38-7.28q0-4.73,2.36-7.22t6.87-2.49q4.52,0,6.85,2.47T373,58.36Zm-13,0q0,5.49,3.82,5.49a3.29,3.29,0,0,0,2.88-1.33,7.31,7.31,0,0,0,.94-4.16,7.36,7.36,0,0,0-1-4.19,3.25,3.25,0,0,0-2.84-1.35Q360,52.82,360,58.36Z"/><path class="cls-1" d="M23,11.28a23,23,0,1,0,23,23A23,23,0,0,0,23,11.28Zm4.8,36.94h-7V34.66q0-2.47.1-4.52a15.06,15.06,0,0,1-1.61,1.65l-2.91,2.4-3.59-4.41,8.79-7.17h6.24V48.22Z"/><path class="cls-1" d="M68.36,84.06a3.86,3.86,0,0,1-2.79-1,3.6,3.6,0,0,1-1-2.72,3.92,3.92,0,0,1,.92-2.8,3.44,3.44,0,0,1,2.63-1,3.49,3.49,0,0,1,2.51.85,3.22,3.22,0,0,1,.89,2.44V81H67.08a1.23,1.23,0,0,0,.44.95,1.73,1.73,0,0,0,1.13.34,5.44,5.44,0,0,0,1.2-.12A5.91,5.91,0,0,0,71,81.75v1.78a4.37,4.37,0,0,1-1.21.41A8.35,8.35,0,0,1,68.36,84.06ZM68.21,78.3a1,1,0,0,0-.73.28,1.3,1.3,0,0,0-.35.87h2.13A1.23,1.23,0,0,0,69,78.62,1,1,0,0,0,68.21,78.3Z"/><path class="cls-1" d="M78.15,81.73a2,2,0,0,1-.79,1.75,3.72,3.72,0,0,1-2.26.59A9.72,9.72,0,0,1,73.71,84a5.88,5.88,0,0,1-1.21-.31v-2a7.55,7.55,0,0,0,1.27.42,5.32,5.32,0,0,0,1.23.17q0.81,0,.81-0.37a0.42,0.42,0,0,0-.22-0.34A10.37,10.37,0,0,0,74.27,81,3.27,3.27,0,0,1,72.89,80a2.11,2.11,0,0,1-.39-1.31,1.81,1.81,0,0,1,.77-1.56,3.7,3.7,0,0,1,2.19-.56,5.53,5.53,0,0,1,1.34.16,7.88,7.88,0,0,1,1.3.45l-0.67,1.6a7.5,7.5,0,0,0-1-.38,3.49,3.49,0,0,0-.9-0.16c-0.41,0-.61.1-0.61,0.3a0.37,0.37,0,0,0,.21.31,11.54,11.54,0,0,0,1.23.53,4.69,4.69,0,0,1,1.13.61,1.81,1.81,0,0,1,.55.7A2.47,2.47,0,0,1,78.15,81.73Z"/><path class="cls-1" d="M83.52,84.06a2.52,2.52,0,0,1-1-.18,2.5,2.5,0,0,1-.86-0.65H81.57a9.16,9.16,0,0,1,.11.94v2.89H79.2V76.74h2l0.35,0.91h0.11a2.18,2.18,0,0,1,1.91-1,2.15,2.15,0,0,1,1.87,1,4.74,4.74,0,0,1,.68,2.72,4.67,4.67,0,0,1-.71,2.74A2.23,2.23,0,0,1,83.52,84.06Zm-0.83-5.5a0.8,0.8,0,0,0-.76.39,2.55,2.55,0,0,0-.24,1.16v0.2a2.73,2.73,0,0,0,.25,1.34,0.84,0.84,0,0,0,.78.41,0.73,0.73,0,0,0,.69-0.41,3.09,3.09,0,0,0,.22-1.35A3,3,0,0,0,83.4,79,0.75,0.75,0,0,0,82.69,78.56Z"/><path class="cls-1" d="M90.71,84.06a3.86,3.86,0,0,1-2.79-1,3.6,3.6,0,0,1-1-2.72,3.92,3.92,0,0,1,.92-2.8,3.44,3.44,0,0,1,2.63-1,3.49,3.49,0,0,1,2.51.85,3.22,3.22,0,0,1,.89,2.44V81H89.43a1.23,1.23,0,0,0,.44.95A1.73,1.73,0,0,0,91,82.3a5.44,5.44,0,0,0,1.2-.12,5.91,5.91,0,0,0,1.19-.42v1.78a4.37,4.37,0,0,1-1.21.41A8.35,8.35,0,0,1,90.71,84.06ZM90.56,78.3a1,1,0,0,0-.73.28,1.3,1.3,0,0,0-.35.87h2.13a1.23,1.23,0,0,0-.29-0.83A1,1,0,0,0,90.56,78.3Z"/><path class="cls-1" d="M99.29,76.62a3.56,3.56,0,0,1,.62.05l0.14,0L99.82,79A3.66,3.66,0,0,0,99,79a1.61,1.61,0,0,0-1.18.37,1.46,1.46,0,0,0-.37,1.07v3.54H94.95V76.74h1.85l0.39,1.15H97.3A2.49,2.49,0,0,1,98.17,77,2.08,2.08,0,0,1,99.29,76.62Z"/><path class="cls-1" d="M105.41,83.93l-0.48-1h-0.05a2.83,2.83,0,0,1-1,.85,3.38,3.38,0,0,1-1.35.23,2.11,2.11,0,0,1-1.6-.61,2.38,2.38,0,0,1-.58-1.71,2,2,0,0,1,.8-1.71,4.38,4.38,0,0,1,2.32-.63l1.2,0v-0.1a0.78,0.78,0,0,0-.88-0.89,5.24,5.24,0,0,0-2,.53l-0.72-1.64a6.9,6.9,0,0,1,3.17-.65,3.08,3.08,0,0,1,2.14.69,2.45,2.45,0,0,1,.76,1.92v4.72h-1.72Zm-1.84-1.62a1.12,1.12,0,0,0,.77-0.29,1,1,0,0,0,.32-0.74V80.72l-0.57,0q-1.22,0-1.23.9A0.6,0.6,0,0,0,103.57,82.31Z"/><path class="cls-1" d="M116.09,83.93V80a2.25,2.25,0,0,0-.21-1.08,0.71,0.71,0,0,0-.66-0.37,1,1,0,0,0-.91.5,3.8,3.8,0,0,0-.28,1.72v3.15h-2.48V76.74h1.87l0.31,0.89h0.15a2,2,0,0,1,.88-0.76,3.1,3.1,0,0,1,1.29-.25,2.45,2.45,0,0,1,1.86.69,2.7,2.7,0,0,1,.66,1.95v4.68h-2.48Z"/><path class="cls-1" d="M125.06,83.93L124.74,83H124.6a2,2,0,0,1-.87.76,3,3,0,0,1-1.3.26,2.44,2.44,0,0,1-1.85-.69,2.7,2.7,0,0,1-.66-1.95V76.74h2.48v3.93a2.25,2.25,0,0,0,.2,1.07,0.69,0.69,0,0,0,.66.36,1,1,0,0,0,.91-0.5,3.85,3.85,0,0,0,.27-1.7V76.74h2.48v7.19h-1.87Z"/><path class="cls-1" d="M131.79,84.06a3.86,3.86,0,0,1-2.79-1,3.6,3.6,0,0,1-1-2.72,3.92,3.92,0,0,1,.92-2.8,3.44,3.44,0,0,1,2.63-1,3.49,3.49,0,0,1,2.51.85A3.22,3.22,0,0,1,135,79.9V81h-4.44A1.23,1.23,0,0,0,131,82a1.73,1.73,0,0,0,1.13.34,5.44,5.44,0,0,0,1.2-.12,5.91,5.91,0,0,0,1.19-.42v1.78a4.37,4.37,0,0,1-1.21.41A8.35,8.35,0,0,1,131.79,84.06Zm-0.15-5.76a1,1,0,0,0-.73.28,1.3,1.3,0,0,0-.35.87h2.13a1.23,1.23,0,0,0-.29-0.83A1,1,0,0,0,131.64,78.3Z"/><path class="cls-1" d="M141.58,81.73a2,2,0,0,1-.79,1.75,3.72,3.72,0,0,1-2.26.59,9.72,9.72,0,0,1-1.39-.09,5.88,5.88,0,0,1-1.21-.31v-2a7.55,7.55,0,0,0,1.27.42,5.32,5.32,0,0,0,1.23.17q0.81,0,.81-0.37a0.42,0.42,0,0,0-.22-0.34A10.37,10.37,0,0,0,137.7,81a3.27,3.27,0,0,1-1.38-.92,2.11,2.11,0,0,1-.39-1.31,1.81,1.81,0,0,1,.77-1.56,3.7,3.7,0,0,1,2.19-.56,5.53,5.53,0,0,1,1.34.16,7.88,7.88,0,0,1,1.3.45l-0.67,1.6a7.5,7.5,0,0,0-1-.38,3.49,3.49,0,0,0-.9-0.16c-0.41,0-.61.1-0.61,0.3a0.37,0.37,0,0,0,.21.31,11.54,11.54,0,0,0,1.23.53,4.69,4.69,0,0,1,1.13.61,1.81,1.81,0,0,1,.55.7A2.47,2.47,0,0,1,141.58,81.73Z"/><path class="cls-1" d="M146.16,82.1a3.7,3.7,0,0,0,1.2-.25v1.81a4.87,4.87,0,0,1-1,.31,5.4,5.4,0,0,1-1.06.09,2.33,2.33,0,0,1-1.8-.61,2.75,2.75,0,0,1-.55-1.88v-3h-0.87v-1l1.11-.78,0.64-1.51h1.63v1.44h1.76V78.6h-1.76v2.8A0.61,0.61,0,0,0,146.16,82.1Z"/><path class="cls-1" d="M152.63,76.62a3.56,3.56,0,0,1,.62.05l0.14,0L153.16,79a3.66,3.66,0,0,0-.84-0.08,1.61,1.61,0,0,0-1.18.37,1.46,1.46,0,0,0-.37,1.07v3.54h-2.48V76.74h1.85l0.39,1.15h0.12a2.49,2.49,0,0,1,.87-0.92A2.08,2.08,0,0,1,152.63,76.62Z"/><path class="cls-1" d="M158.76,83.93l-0.48-1h-0.05a2.83,2.83,0,0,1-1,.85,3.38,3.38,0,0,1-1.35.23,2.11,2.11,0,0,1-1.6-.61,2.38,2.38,0,0,1-.58-1.71,2,2,0,0,1,.8-1.71,4.38,4.38,0,0,1,2.32-.63l1.2,0v-0.1a0.78,0.78,0,0,0-.88-0.89,5.24,5.24,0,0,0-2,.53l-0.72-1.64a6.9,6.9,0,0,1,3.17-.65,3.08,3.08,0,0,1,2.14.69,2.45,2.45,0,0,1,.76,1.92v4.72h-1.72Zm-1.84-1.62a1.12,1.12,0,0,0,.77-0.29,1,1,0,0,0,.32-0.74V80.72l-0.57,0q-1.22,0-1.23.9A0.6,0.6,0,0,0,156.91,82.31Z"/><path class="cls-1" d="M169.23,76.62a3.56,3.56,0,0,1,.62.05l0.14,0L169.77,79a3.66,3.66,0,0,0-.84-0.08,1.61,1.61,0,0,0-1.18.37,1.46,1.46,0,0,0-.37,1.07v3.54h-2.48V76.74h1.85l0.39,1.15h0.12a2.49,2.49,0,0,1,.87-0.92A2.08,2.08,0,0,1,169.23,76.62Z"/><path class="cls-1" d="M174.14,84.06a3.86,3.86,0,0,1-2.79-1,3.6,3.6,0,0,1-1-2.72,3.92,3.92,0,0,1,.92-2.8,3.44,3.44,0,0,1,2.63-1,3.49,3.49,0,0,1,2.51.85,3.22,3.22,0,0,1,.89,2.44V81h-4.44a1.23,1.23,0,0,0,.44.95,1.73,1.73,0,0,0,1.13.34,5.44,5.44,0,0,0,1.2-.12,5.91,5.91,0,0,0,1.19-.42v1.78a4.37,4.37,0,0,1-1.21.41A8.35,8.35,0,0,1,174.14,84.06ZM174,78.3a1,1,0,0,0-.73.28,1.3,1.3,0,0,0-.35.87H175a1.23,1.23,0,0,0-.29-0.83A1,1,0,0,0,174,78.3Z"/><path class="cls-1" d="M183.93,81.73a2,2,0,0,1-.79,1.75,3.72,3.72,0,0,1-2.26.59,9.72,9.72,0,0,1-1.39-.09,5.88,5.88,0,0,1-1.21-.31v-2a7.55,7.55,0,0,0,1.27.42,5.32,5.32,0,0,0,1.23.17q0.81,0,.81-0.37a0.42,0.42,0,0,0-.22-0.34,10.37,10.37,0,0,0-1.31-.58,3.27,3.27,0,0,1-1.38-.92,2.11,2.11,0,0,1-.39-1.31,1.81,1.81,0,0,1,.77-1.56,3.7,3.7,0,0,1,2.19-.56,5.53,5.53,0,0,1,1.34.16,7.88,7.88,0,0,1,1.3.45l-0.67,1.6a7.5,7.5,0,0,0-1-.38,3.49,3.49,0,0,0-.9-0.16c-0.41,0-.61.1-0.61,0.3a0.37,0.37,0,0,0,.21.31,11.54,11.54,0,0,0,1.23.53,4.69,4.69,0,0,1,1.13.61,1.81,1.81,0,0,1,.55.7A2.47,2.47,0,0,1,183.93,81.73Z"/><path class="cls-1" d="M189.3,84.06a2.52,2.52,0,0,1-1-.18,2.5,2.5,0,0,1-.86-0.65h-0.11a9.16,9.16,0,0,1,.11.94v2.89H185V76.74h2l0.35,0.91h0.11a2.18,2.18,0,0,1,1.91-1,2.15,2.15,0,0,1,1.87,1,4.74,4.74,0,0,1,.68,2.72,4.67,4.67,0,0,1-.71,2.74A2.23,2.23,0,0,1,189.3,84.06Zm-0.83-5.5a0.8,0.8,0,0,0-.76.39,2.55,2.55,0,0,0-.24,1.16v0.2a2.73,2.73,0,0,0,.25,1.34,0.84,0.84,0,0,0,.78.41,0.73,0.73,0,0,0,.69-0.41,3.09,3.09,0,0,0,.22-1.35,3,3,0,0,0-.22-1.33A0.75,0.75,0,0,0,188.47,78.56Z"/><path class="cls-1" d="M198.14,83.93L197.83,83h-0.15a2,2,0,0,1-.87.76,3,3,0,0,1-1.3.26,2.44,2.44,0,0,1-1.85-.69,2.7,2.7,0,0,1-.66-1.95V76.74h2.48v3.93a2.25,2.25,0,0,0,.2,1.07,0.69,0.69,0,0,0,.66.36,1,1,0,0,0,.91-0.5,3.85,3.85,0,0,0,.27-1.7V76.74H200v7.19h-1.87Z"/><path class="cls-1" d="M204.87,84.06a3.86,3.86,0,0,1-2.79-1,3.6,3.6,0,0,1-1-2.72,3.92,3.92,0,0,1,.92-2.8,3.44,3.44,0,0,1,2.63-1,3.49,3.49,0,0,1,2.51.85A3.22,3.22,0,0,1,208,79.9V81H203.6A1.23,1.23,0,0,0,204,82a1.73,1.73,0,0,0,1.13.34,5.44,5.44,0,0,0,1.2-.12,5.91,5.91,0,0,0,1.19-.42v1.78a4.37,4.37,0,0,1-1.21.41A8.35,8.35,0,0,1,204.87,84.06Zm-0.15-5.76a1,1,0,0,0-.73.28,1.3,1.3,0,0,0-.35.87h2.13a1.23,1.23,0,0,0-.29-0.83A1,1,0,0,0,204.73,78.3Z"/><path class="cls-1" d="M214.67,81.73a2,2,0,0,1-.79,1.75,3.72,3.72,0,0,1-2.26.59,9.72,9.72,0,0,1-1.39-.09,5.88,5.88,0,0,1-1.21-.31v-2a7.55,7.55,0,0,0,1.27.42,5.32,5.32,0,0,0,1.23.17q0.81,0,.81-0.37a0.42,0.42,0,0,0-.22-0.34,10.37,10.37,0,0,0-1.31-.58,3.27,3.27,0,0,1-1.38-.92,2.11,2.11,0,0,1-.39-1.31,1.81,1.81,0,0,1,.77-1.56,3.7,3.7,0,0,1,2.19-.56,5.53,5.53,0,0,1,1.34.16,7.88,7.88,0,0,1,1.3.45l-0.67,1.6a7.5,7.5,0,0,0-1-.38,3.49,3.49,0,0,0-.9-0.16c-0.41,0-.61.1-0.61,0.3a0.37,0.37,0,0,0,.21.31,11.54,11.54,0,0,0,1.23.53,4.69,4.69,0,0,1,1.13.61,1.81,1.81,0,0,1,.55.7A2.47,2.47,0,0,1,214.67,81.73Z"/><path class="cls-1" d="M219.24,82.1a3.7,3.7,0,0,0,1.2-.25v1.81a4.87,4.87,0,0,1-1,.31,5.4,5.4,0,0,1-1.06.09,2.33,2.33,0,0,1-1.8-.61,2.75,2.75,0,0,1-.55-1.88v-3H215.2v-1l1.11-.78,0.64-1.51h1.63v1.44h1.76V78.6h-1.76v2.8A0.61,0.61,0,0,0,219.24,82.1Z"/><path class="cls-1" d="M226.07,83.93l-0.48-1h-0.05a2.83,2.83,0,0,1-1,.85,3.38,3.38,0,0,1-1.35.23,2.11,2.11,0,0,1-1.6-.61,2.38,2.38,0,0,1-.58-1.71,2,2,0,0,1,.8-1.71,4.38,4.38,0,0,1,2.32-.63l1.2,0v-0.1a0.78,0.78,0,0,0-.88-0.89,5.24,5.24,0,0,0-2,.53l-0.72-1.64a6.9,6.9,0,0,1,3.17-.65,3.08,3.08,0,0,1,2.14.69,2.45,2.45,0,0,1,.76,1.92v4.72h-1.72Zm-1.84-1.62A1.12,1.12,0,0,0,225,82a1,1,0,0,0,.32-0.74V80.72l-0.57,0q-1.22,0-1.23.9A0.6,0.6,0,0,0,224.22,82.31Z"/><path class="cls-1" d="M228.84,82.88a1.16,1.16,0,0,1,.35-0.9,1.44,1.44,0,0,1,1-.32,1.35,1.35,0,0,1,1,.32,1.18,1.18,0,0,1,.34.9,1.16,1.16,0,0,1-.35.89,1.35,1.35,0,0,1-1,.32,1.45,1.45,0,0,1-1-.32A1.13,1.13,0,0,1,228.84,82.88Z"/><path class="cls-1" d="M232.27,82.88a1.16,1.16,0,0,1,.35-0.9,1.44,1.44,0,0,1,1-.32,1.35,1.35,0,0,1,1,.32,1.18,1.18,0,0,1,.34.9,1.16,1.16,0,0,1-.35.89,1.35,1.35,0,0,1-1,.32,1.45,1.45,0,0,1-1-.32A1.13,1.13,0,0,1,232.27,82.88Z"/><path class="cls-1" d="M235.7,82.88a1.16,1.16,0,0,1,.35-0.9,1.44,1.44,0,0,1,1-.32,1.35,1.35,0,0,1,1,.32,1.18,1.18,0,0,1,.34.9,1.16,1.16,0,0,1-.35.89,1.35,1.35,0,0,1-1,.32,1.45,1.45,0,0,1-1-.32A1.13,1.13,0,0,1,235.7,82.88Z"/><path class="cls-1" d="M87.84,158.08h6.33a10.77,10.77,0,0,1,5.49,1.1,3.72,3.72,0,0,1,1.79,3.42,4.32,4.32,0,0,1-.78,2.61,3.49,3.49,0,0,1-2.06,1.39v0.12a4.22,4.22,0,0,1,2.44,1.49,4.49,4.49,0,0,1,.76,2.71A4.64,4.64,0,0,1,100,174.8a8.13,8.13,0,0,1-5.06,1.42H87.84V158.08Zm4.9,7h1.48a2.67,2.67,0,0,0,1.63-.43,1.51,1.51,0,0,0,.58-1.29q0-1.53-2.31-1.53H92.75V165Zm0,3.59v3.81h1.73q2.3,0,2.3-1.94a1.67,1.67,0,0,0-.61-1.39,2.83,2.83,0,0,0-1.78-.48H92.75Z"/><path class="cls-1" d="M120.4,158.08V169a7.33,7.33,0,0,1-2,5.52,9.57,9.57,0,0,1-11.52.06,7.19,7.19,0,0,1-2-5.46v-11h4.93v10.65a4.36,4.36,0,0,0,.72,2.79,3.1,3.1,0,0,0,4.3,0,4.62,4.62,0,0,0,.68-2.82V158.08h4.9Z"/><path class="cls-1" d="M136.07,170.71a5.35,5.35,0,0,1-.86,3,5.61,5.61,0,0,1-2.47,2,9.17,9.17,0,0,1-3.79.73,15.37,15.37,0,0,1-3-.25,11.3,11.3,0,0,1-2.56-.89V171a14.53,14.53,0,0,0,2.92,1.12,10.84,10.84,0,0,0,2.78.4,2.71,2.71,0,0,0,1.6-.38,1.16,1.16,0,0,0,.51-1,1.07,1.07,0,0,0-.21-0.65,2.38,2.38,0,0,0-.66-0.56q-0.45-.29-2.41-1.17a11.56,11.56,0,0,1-2.66-1.56,4.81,4.81,0,0,1-1.32-1.74,5.77,5.77,0,0,1-.43-2.32,4.65,4.65,0,0,1,1.82-3.91,8,8,0,0,1,5-1.4,14.07,14.07,0,0,1,5.75,1.3l-1.5,3.79a10.89,10.89,0,0,0-4.39-1.17,2.29,2.29,0,0,0-1.39.33,1,1,0,0,0-.43.83,1.2,1.2,0,0,0,.55,1,21,21,0,0,0,3,1.54,8.29,8.29,0,0,1,3.26,2.26A4.92,4.92,0,0,1,136.07,170.71Z"/><path class="cls-1" d="M147,161.84a3.12,3.12,0,0,0-2.73,1.43,6.92,6.92,0,0,0-1,4q0,5.24,4,5.24a8.16,8.16,0,0,0,2.33-.33,23.45,23.45,0,0,0,2.27-.81v4.15a12.58,12.58,0,0,1-5.14,1,8.13,8.13,0,0,1-6.3-2.38q-2.19-2.38-2.19-6.89a11,11,0,0,1,1.06-5,7.6,7.6,0,0,1,3.05-3.28,9.22,9.22,0,0,1,4.69-1.15,12.92,12.92,0,0,1,5.62,1.28l-1.5,3.86a17,17,0,0,0-2-.79A7,7,0,0,0,147,161.84Z"/><path class="cls-1" d="M166.51,176.22l-0.89-3.4h-5.9l-0.92,3.4h-5.39L159.33,158h6.54l6,18.22h-5.36Zm-1.91-7.42-0.78-3q-0.27-1-.66-2.57T162.63,161q-0.11.63-.44,2.08t-1.46,5.72h3.86Z"/><path class="cls-1" d="M180.43,176.22V158.08h4.9v14.19h7v4H180.43Z"/><path class="cls-1" d="M212.21,167.12q0,4.58-2.25,7t-6.58,2.38a8.6,8.6,0,0,1-6.55-2.4q-2.28-2.4-2.28-7t2.26-6.92q2.26-2.39,6.58-2.39t6.57,2.37Q212.21,162.53,212.21,167.12Zm-12.49,0q0,5.26,3.66,5.26a3.15,3.15,0,0,0,2.76-1.28,9.28,9.28,0,0,0,0-8,3.11,3.11,0,0,0-2.72-1.3Q199.72,161.81,199.72,167.12Z"/><path class="cls-1" d="M227.35,170.71a5.35,5.35,0,0,1-.86,3,5.61,5.61,0,0,1-2.47,2,9.17,9.17,0,0,1-3.79.73,15.37,15.37,0,0,1-3-.25,11.3,11.3,0,0,1-2.56-.89V171a14.53,14.53,0,0,0,2.92,1.12,10.84,10.84,0,0,0,2.78.4,2.71,2.71,0,0,0,1.6-.38,1.16,1.16,0,0,0,.51-1,1.07,1.07,0,0,0-.21-0.65,2.38,2.38,0,0,0-.66-0.56q-0.45-.29-2.41-1.17a11.56,11.56,0,0,1-2.66-1.56,4.81,4.81,0,0,1-1.32-1.74,5.77,5.77,0,0,1-.43-2.32,4.65,4.65,0,0,1,1.82-3.91,8,8,0,0,1,5-1.4,14.07,14.07,0,0,1,5.75,1.3l-1.5,3.79a10.89,10.89,0,0,0-4.39-1.17,2.29,2.29,0,0,0-1.39.33,1,1,0,0,0-.43.83,1.2,1.2,0,0,0,.55,1,21,21,0,0,0,3,1.54,8.29,8.29,0,0,1,3.26,2.26A4.92,4.92,0,0,1,227.35,170.71Z"/><path class="cls-1" d="M74.37,186.55a6.08,6.08,0,0,1-1.79,4.7,7.23,7.23,0,0,1-5.09,1.66H66.1v6H61.2V180.78h6.28a7.68,7.68,0,0,1,5.16,1.5A5.36,5.36,0,0,1,74.37,186.55Zm-8.27,2.36H67a2.44,2.44,0,0,0,1.76-.62,2.25,2.25,0,0,0,.65-1.71q0-1.84-2-1.84H66.1v4.17Z"/><path class="cls-1" d="M82.16,192.32v6.6h-4.9V180.78H83.2q7.4,0,7.4,5.36A5.36,5.36,0,0,1,87.52,191l5.29,7.91H87.25l-3.85-6.6H82.16Zm0-3.69h0.92q2.57,0,2.57-2.27,0-1.87-2.52-1.87h-1v4.15Z"/><path class="cls-1" d="M111.44,189.83q0,4.58-2.25,7t-6.58,2.38a8.6,8.6,0,0,1-6.55-2.4q-2.28-2.4-2.28-7t2.26-6.92q2.26-2.39,6.58-2.39t6.57,2.37Q111.44,185.23,111.44,189.83Zm-12.49,0q0,5.26,3.66,5.26a3.15,3.15,0,0,0,2.76-1.28,9.28,9.28,0,0,0,0-8,3.11,3.11,0,0,0-2.72-1.3Q99,184.51,99,189.83Z"/><path class="cls-1" d="M130.12,189.47q0,4.54-2.5,7a9.61,9.61,0,0,1-7,2.46h-5.87V180.78H121a9.47,9.47,0,0,1,6.75,2.23A8.43,8.43,0,0,1,130.12,189.47Zm-5.09.17a5.76,5.76,0,0,0-1-3.7,3.65,3.65,0,0,0-3-1.2h-1.43V194.9h1.09a4,4,0,0,0,3.28-1.3A6.26,6.26,0,0,0,125,189.64Z"/><path class="cls-1" d="M148.8,180.78V191.7a7.33,7.33,0,0,1-2,5.52,9.57,9.57,0,0,1-11.52.06,7.19,7.19,0,0,1-2-5.46v-11h4.93v10.65a4.36,4.36,0,0,0,.72,2.79,3.1,3.1,0,0,0,4.3,0,4.62,4.62,0,0,0,.68-2.82V180.78h4.9Z"/><path class="cls-1" d="M160.69,184.54A3.12,3.12,0,0,0,158,186a6.92,6.92,0,0,0-1,4q0,5.24,4,5.24a8.16,8.16,0,0,0,2.33-.33,23.45,23.45,0,0,0,2.27-.81v4.15a12.58,12.58,0,0,1-5.14,1,8.13,8.13,0,0,1-6.3-2.38q-2.19-2.38-2.19-6.89a11,11,0,0,1,1.06-5,7.6,7.6,0,0,1,3.05-3.28,9.22,9.22,0,0,1,4.69-1.15,12.92,12.92,0,0,1,5.62,1.28l-1.5,3.86a17,17,0,0,0-2-.79A7,7,0,0,0,160.69,184.54Z"/><path class="cls-1" d="M177.11,198.92h-4.9V184.79h-4.43v-4h13.75v4h-4.42v14.14Z"/><path class="cls-1" d="M201.1,189.83q0,4.58-2.25,7t-6.58,2.38a8.6,8.6,0,0,1-6.55-2.4q-2.28-2.4-2.28-7t2.26-6.92q2.26-2.39,6.58-2.39t6.57,2.37Q201.1,185.23,201.1,189.83Zm-12.49,0q0,5.26,3.66,5.26a3.15,3.15,0,0,0,2.76-1.28,9.28,9.28,0,0,0,0-8,3.11,3.11,0,0,0-2.72-1.3Q188.61,184.51,188.61,189.83Z"/><path class="cls-1" d="M209.28,192.32v6.6h-4.9V180.78h5.95q7.4,0,7.4,5.36a5.36,5.36,0,0,1-3.08,4.88l5.29,7.91h-5.56l-3.85-6.6h-1.24Zm0-3.69h0.92q2.57,0,2.57-2.27,0-1.87-2.52-1.87h-1v4.15Z"/><path class="cls-1" d="M232.35,198.92H221.58V180.78h10.77v3.93h-5.87v2.85h5.44v3.93h-5.44v3.43h5.87v4Z"/><path class="cls-1" d="M247.39,193.41a5.35,5.35,0,0,1-.86,3,5.61,5.61,0,0,1-2.47,2,9.17,9.17,0,0,1-3.79.73,15.37,15.37,0,0,1-3-.25,11.3,11.3,0,0,1-2.56-.89v-4.37a14.53,14.53,0,0,0,2.92,1.12,10.84,10.84,0,0,0,2.78.4,2.71,2.71,0,0,0,1.6-.38,1.16,1.16,0,0,0,.51-1,1.07,1.07,0,0,0-.21-0.65,2.38,2.38,0,0,0-.66-0.56q-0.45-.29-2.41-1.17a11.56,11.56,0,0,1-2.66-1.56,4.81,4.81,0,0,1-1.32-1.74,5.77,5.77,0,0,1-.43-2.32,4.65,4.65,0,0,1,1.82-3.91,8,8,0,0,1,5-1.4,14.07,14.07,0,0,1,5.75,1.3l-1.5,3.79a10.89,10.89,0,0,0-4.39-1.17,2.29,2.29,0,0,0-1.39.33,1,1,0,0,0-.43.83,1.2,1.2,0,0,0,.55,1,21,21,0,0,0,3,1.54,8.29,8.29,0,0,1,3.26,2.26A4.92,4.92,0,0,1,247.39,193.41Z"/><path class="cls-1" d="M64.5,221.63V203.48h4.93v18.15H64.5Z"/><path class="cls-1" d="M88.76,212.17q0,4.54-2.5,7a9.61,9.61,0,0,1-7,2.46H73.35V203.48h6.28a9.47,9.47,0,0,1,6.75,2.23A8.43,8.43,0,0,1,88.76,212.17Zm-5.09.17a5.76,5.76,0,0,0-1-3.7,3.65,3.65,0,0,0-3-1.2H78.26v10.17h1.09a4,4,0,0,0,3.28-1.3A6.26,6.26,0,0,0,83.67,212.34Z"/><path class="cls-1" d="M102.78,221.63H92V203.48h10.77v3.93H96.91v2.85h5.44v3.93H96.91v3.43h5.87v4Z"/><path class="cls-1" d="M117.09,221.63l-0.89-3.4h-5.9l-0.92,3.4H104l5.92-18.22h6.54l6,18.22h-5.36Zm-1.91-7.42-0.78-3q-0.27-1-.66-2.57t-0.51-2.26q-0.11.63-.44,2.08t-1.46,5.72h3.86Z"/><path class="cls-1" d="M124.41,221.63V203.48h4.9v14.19h7v4H124.41Z"/><path class="cls-1" d="M150,221.63H139.21V203.48H150v3.93h-5.87v2.85h5.44v3.93h-5.44v3.43H150v4Z"/><path class="cls-1" d="M165,216.12a5.35,5.35,0,0,1-.86,3,5.61,5.61,0,0,1-2.47,2,9.17,9.17,0,0,1-3.79.73,15.37,15.37,0,0,1-3-.25,11.3,11.3,0,0,1-2.56-.89v-4.37a14.53,14.53,0,0,0,2.92,1.12,10.84,10.84,0,0,0,2.78.4,2.71,2.71,0,0,0,1.6-.38,1.16,1.16,0,0,0,.51-1,1.07,1.07,0,0,0-.21-0.65,2.38,2.38,0,0,0-.66-0.56q-0.45-.29-2.41-1.17a11.56,11.56,0,0,1-2.66-1.56,4.81,4.81,0,0,1-1.32-1.74,5.77,5.77,0,0,1-.43-2.32,4.65,4.65,0,0,1,1.82-3.91,8,8,0,0,1,5-1.4,14.07,14.07,0,0,1,5.75,1.3l-1.5,3.79a10.89,10.89,0,0,0-4.39-1.17,2.29,2.29,0,0,0-1.39.33,1,1,0,0,0-.43.83,1.2,1.2,0,0,0,.55,1,21,21,0,0,0,3,1.54,8.29,8.29,0,0,1,3.26,2.26A4.92,4.92,0,0,1,165,216.12Z"/><path class="cls-1" d="M189.83,212.17q0,4.54-2.5,7a9.61,9.61,0,0,1-7,2.46h-5.87V203.48h6.28a9.47,9.47,0,0,1,6.75,2.23A8.43,8.43,0,0,1,189.83,212.17Zm-5.09.17a5.76,5.76,0,0,0-1-3.7,3.65,3.65,0,0,0-3-1.2h-1.43v10.17h1.09a4,4,0,0,0,3.28-1.3A6.26,6.26,0,0,0,184.75,212.34Z"/><path class="cls-1" d="M203.86,221.63H193.09V203.48h10.77v3.93H198v2.85h5.44v3.93H198v3.43h5.87v4Z"/><path class="cls-1" d="M213.64,221.63V203.48h4.9v14.19h7v4H213.64Z"/><path class="cls-1" d="M239.57,221.63l-0.89-3.4h-5.9l-0.92,3.4h-5.39l5.92-18.22h6.54l6,18.22h-5.36Zm-1.91-7.42-0.78-3q-0.27-1-.66-2.57t-0.51-2.26q-0.11.63-.44,2.08t-1.46,5.72h3.86Z"/><path class="cls-1" d="M110,244.33H95.9v-3l7.86-11.16H96.09v-4h13.75v3L102,240.37H110v4Z"/><path class="cls-1" d="M129.61,235.23q0,4.58-2.25,7t-6.58,2.38a8.6,8.6,0,0,1-6.55-2.4q-2.28-2.4-2.28-7t2.26-6.92q2.26-2.39,6.58-2.39t6.57,2.37Q129.61,230.64,129.61,235.23Zm-12.49,0q0,5.26,3.66,5.26a3.15,3.15,0,0,0,2.76-1.28,9.28,9.28,0,0,0,0-8,3.11,3.11,0,0,0-2.72-1.3Q117.12,229.92,117.12,235.23Z"/><path class="cls-1" d="M150.16,244.33h-6.43l-6.63-12.78H137q0.24,3,.24,4.61v8.18h-4.34V226.19h6.4l6.6,12.61H146q-0.17-2.74-.17-4.41v-8.2h4.37v18.15Z"/><path class="cls-1" d="M165.22,244.33l-0.89-3.4h-5.9l-0.92,3.4h-5.39L158,226.11h6.54l6,18.22h-5.36Zm-1.91-7.42-0.78-3q-0.27-1-.66-2.57t-0.51-2.26q-0.11.63-.44,2.08t-1.46,5.72h3.86Z"/><path class="cls-1" d="M189.92,244.33H179.14V226.19h10.77v3.93H184V233h5.44v3.93H184v3.43h5.87v4Z"/><path class="cls-1" d="M210.37,244.33h-6.43l-6.63-12.78H197.2q0.24,3,.24,4.61v8.18h-4.34V226.19h6.4l6.6,12.61h0.08q-0.17-2.74-.17-4.41v-8.2h4.37v18.15Z"/><path class="cls-1" d="M84.9,267H78.47l-6.63-12.78H71.73q0.24,3,.24,4.61V267H67.63V248.89H74l6.6,12.61h0.08q-0.17-2.74-.17-4.41v-8.2H84.9V267Z"/><path class="cls-1" d="M104.25,248.89v10.92a7.33,7.33,0,0,1-2,5.52,8,8,0,0,1-5.81,2,8,8,0,0,1-5.7-1.9,7.19,7.19,0,0,1-2-5.46v-11h4.93v10.65a4.36,4.36,0,0,0,.72,2.79,3.1,3.1,0,0,0,4.3,0,4.62,4.62,0,0,0,.68-2.82V248.89h4.9Z"/><path class="cls-1" d="M118.84,267H108.06V248.89h10.77v3.93H113v2.85h5.44v3.93H113V263h5.87v4Z"/><path class="cls-1" d="M133.88,261.52a5.35,5.35,0,0,1-.86,3,5.61,5.61,0,0,1-2.47,2,9.17,9.17,0,0,1-3.79.73,15.37,15.37,0,0,1-3-.25,11.3,11.3,0,0,1-2.56-.89v-4.37a14.53,14.53,0,0,0,2.92,1.12,10.84,10.84,0,0,0,2.78.4,2.71,2.71,0,0,0,1.6-.38,1.16,1.16,0,0,0,.51-1,1.07,1.07,0,0,0-.21-0.65,2.38,2.38,0,0,0-.66-0.56q-0.45-.29-2.41-1.17A11.56,11.56,0,0,1,123,258a4.81,4.81,0,0,1-1.32-1.74,5.77,5.77,0,0,1-.43-2.32,4.65,4.65,0,0,1,1.82-3.91,8,8,0,0,1,5-1.4,14.07,14.07,0,0,1,5.75,1.3l-1.5,3.79a10.89,10.89,0,0,0-4.39-1.17,2.29,2.29,0,0,0-1.39.33,1,1,0,0,0-.43.83,1.2,1.2,0,0,0,.55,1,21,21,0,0,0,3,1.54,8.29,8.29,0,0,1,3.26,2.26A4.92,4.92,0,0,1,133.88,261.52Z"/><path class="cls-1" d="M144.69,267h-4.9V252.9h-4.43v-4h13.75v4h-4.42V267Z"/><path class="cls-1" d="M156.6,260.43V267h-4.9V248.89h5.95q7.4,0,7.4,5.36a5.36,5.36,0,0,1-3.08,4.88l5.29,7.91h-5.56l-3.85-6.6H156.6Zm0-3.69h0.92q2.57,0,2.57-2.27,0-1.87-2.52-1.87h-1v4.15Z"/><path class="cls-1" d="M180,267l-0.89-3.4h-5.9l-0.92,3.4h-5.39l5.92-18.22h6.54l6,18.22H180Zm-1.91-7.42-0.78-3q-0.27-1-.66-2.57t-0.51-2.26q-0.11.63-.44,2.08t-1.46,5.72h3.86Z"/><path class="cls-1" d="M198.86,260.43V267H194V248.89h5.95q7.4,0,7.4,5.36a5.36,5.36,0,0,1-3.08,4.88l5.29,7.91H204l-3.85-6.6h-1.24Zm0-3.69h0.92q2.57,0,2.57-2.27,0-1.87-2.52-1.87h-1v4.15Z"/><path class="cls-1" d="M221.94,267H211.16V248.89h10.77v3.93h-5.87v2.85h5.44v3.93h-5.44V263h5.87v4Z"/><path class="cls-1" d="M240.52,257.58q0,4.54-2.5,7a9.61,9.61,0,0,1-7,2.46h-5.87V248.89h6.28a9.47,9.47,0,0,1,6.75,2.23A8.43,8.43,0,0,1,240.52,257.58Zm-5.09.17a5.76,5.76,0,0,0-1-3.7,3.65,3.65,0,0,0-3-1.2H230V263h1.09a4,4,0,0,0,3.28-1.3A6.26,6.26,0,0,0,235.43,257.75Z"/><path class="cls-1" d="M23.36,301.49a23.8,23.8,0,1,0,23.8,23.8A23.8,23.8,0,0,0,23.36,301.49Zm5.86,35.29q-2.83,2-7.86,2a23,23,0,0,1-3.83-.3,20,20,0,0,1-3.81-1.09V331.7A15.16,15.16,0,0,0,17.16,333a14,14,0,0,0,3.21.41,6.57,6.57,0,0,0,3.32-.64,2.18,2.18,0,0,0,1-2,2.26,2.26,0,0,0-.54-1.62,3.51,3.51,0,0,0-1.75-.86,14,14,0,0,0-3.15-.29H17.71v-5.2h1.61q5.27,0,5.27-2.7a1.66,1.66,0,0,0-.78-1.51,3.9,3.9,0,0,0-2.09-.49,9.58,9.58,0,0,0-5.08,1.65l-2.87-4.62a14,14,0,0,1,4.16-2,18.17,18.17,0,0,1,4.88-.6A10.76,10.76,0,0,1,29,314.07a5,5,0,0,1,2.26,4.34,6.1,6.1,0,0,1-1.45,4.09,8.28,8.28,0,0,1-4.2,2.48v0.11q6.41,0.81,6.41,6.06A6.57,6.57,0,0,1,29.23,336.78Z"/><path class="cls-1" d="M27.86,259.48A6.84,6.84,0,0,1,21,252.65h2a4.84,4.84,0,1,0,9.67,0h2A6.84,6.84,0,0,1,27.86,259.48Z"/><path class="cls-1" d="M40.81,266.6H14.91l-1.69-21.24H42.49Zm-24-2H39l1.37-17.24H15.39Z"/><path class="cls-1" d="M44.95,247.28H10.77v-9H44.95v9Zm-32.17-2H42.95v-5H12.77v5Z"/><path class="cls-1" d="M19.89,223A10.26,10.26,0,0,1,12,219.58L11.55,219l0.42-.61c0.09-.14,2.39-3.34,8.28-3.14a9.81,9.81,0,0,1,8.37,4.64l0.43,0.8-0.75.5c-0.21.14-2.21,1.38-7.57,1.74Zm-5.7-4a8.76,8.76,0,0,0,6.4,2,21.64,21.64,0,0,0,5.62-1,8.12,8.12,0,0,0-6-2.7A8.64,8.64,0,0,0,14.19,218.95Z"/><path class="cls-1" d="M35.83,223l-0.84,0c-5.36-.36-7.36-1.6-7.57-1.74l-0.75-.5,0.43-.8a9.81,9.81,0,0,1,8.37-4.64c5.91-.19,8.19,3,8.29,3.14L44.18,219l-0.46.58A10.27,10.27,0,0,1,35.83,223Zm-6.32-3a21.63,21.63,0,0,0,5.62,1,8.82,8.82,0,0,0,6.4-2,8.66,8.66,0,0,0-6-1.7A8.12,8.12,0,0,0,29.51,219.94Z"/><rect class="cls-1" x="26.93" y="220.63" width="2" height="18.35"/><path class="cls-1" d="M359.4,148.91a4.16,4.16,0,0,1-4.16-4.16h-2a6.16,6.16,0,1,0,12.32,0h-2A4.16,4.16,0,0,1,359.4,148.91Z"/><path class="cls-1" d="M317.22,304.21a4.16,4.16,0,0,1-4.16-4.16h-2a6.16,6.16,0,0,0,12.32,0h-2A4.16,4.16,0,0,1,317.22,304.21Z"/><path class="cls-1" d="M354.22,304.21a4.16,4.16,0,0,1-4.16-4.16h-2a6.16,6.16,0,0,0,12.32,0h-2A4.16,4.16,0,0,1,354.22,304.21Z"/><path class="cls-1" d="M328.76,312.5H373.1v-2h-7.17l1.2-15.08h2.31v-8.18H355.28V273a21.54,21.54,0,0,0,5.24.9l0.75,0a9.2,9.2,0,0,0,7.06-3l0.46-.58-0.42-.61c-0.08-.12-2.15-3-7.42-2.82a9,9,0,0,0-6.72,3.08,9,9,0,0,0-6.72-3.08c-5.28-.17-7.34,2.7-7.42,2.82l-0.42.61,0.46,0.58a9.2,9.2,0,0,0,7.06,3l0.75,0a21.19,21.19,0,0,0,5.36-.94v14.28H339v8.18h2.31l1.2,15.08H328.92l1.2-15.08h2.31v-8.18H318.27V273a21.54,21.54,0,0,0,5.24.9l0.75,0a9.2,9.2,0,0,0,7.06-3l0.46-.58-0.42-.61c-0.08-.12-2.13-3-7.42-2.82a9,9,0,0,0-6.72,3.08,9,9,0,0,0-6.72-3.08c-5.28-.17-7.34,2.7-7.42,2.82l-0.42.61,0.46,0.58a9.2,9.2,0,0,0,7.06,3l0.75,0a21.19,21.19,0,0,0,5.36-.94v14.28H302v8.18h2.31l1.2,15.08H293.84v2h34.92ZM361,268.88a7.66,7.66,0,0,1,5.12,1.39,7.69,7.69,0,0,1-5.47,1.64,19.64,19.64,0,0,1-4.77-.81A7.1,7.1,0,0,1,361,268.88Zm-13.21,3a7.67,7.67,0,0,1-5.47-1.64,7.66,7.66,0,0,1,5.12-1.39,7.1,7.1,0,0,1,5.12,2.21A19.63,19.63,0,0,1,347.79,271.9ZM341,289.24h26.43v4.18H341v-4.18Zm2.32,6.26h21.79l-1.19,15h-19.4ZM324,268.88a7.65,7.65,0,0,1,5.12,1.39,7.68,7.68,0,0,1-5.47,1.64,19.63,19.63,0,0,1-4.77-.81A7.09,7.09,0,0,1,324,268.88Zm-13.21,3a7.67,7.67,0,0,1-5.47-1.64,7.66,7.66,0,0,1,5.12-1.39,7.1,7.1,0,0,1,5.12,2.21A19.64,19.64,0,0,1,310.78,271.9ZM304,289.24h26.43v4.18H304v-4.18Zm2.32,6.26h21.79l-1.19,15h-19.4Z"/><path class="cls-1" d="M317.22,241.68a4.16,4.16,0,0,1-4.16-4.16h-2a6.16,6.16,0,0,0,12.32,0h-2A4.16,4.16,0,0,1,317.22,241.68Z"/><path class="cls-1" d="M354.22,241.68a4.16,4.16,0,0,1-4.16-4.16h-2a6.16,6.16,0,0,0,12.32,0h-2A4.16,4.16,0,0,1,354.22,241.68Z"/><path class="cls-1" d="M328.76,250H373.1v-2h-7.17l1.2-15.08h2.31v-8.18H355.28V210.47a21.55,21.55,0,0,0,5.24.9l0.75,0a9.2,9.2,0,0,0,7.06-3l0.46-.58-0.42-.61c-0.08-.12-2.15-3-7.42-2.82a9,9,0,0,0-6.72,3.08,9,9,0,0,0-6.72-3.08c-5.28-.18-7.34,2.7-7.42,2.82l-0.42.61,0.46,0.58a9.2,9.2,0,0,0,7.06,3l0.75,0a21.19,21.19,0,0,0,5.36-.94v14.28H339v8.18h2.31l1.2,15.08H328.92l1.2-15.08h2.31v-8.18H318.27V210.47a21.55,21.55,0,0,0,5.24.9l0.75,0a9.2,9.2,0,0,0,7.06-3l0.46-.58-0.42-.61c-0.08-.12-2.14-3-7.42-2.82a9,9,0,0,0-6.72,3.08,9,9,0,0,0-6.72-3.08c-5.29-.18-7.34,2.7-7.42,2.82l-0.42.61,0.46,0.58a9.2,9.2,0,0,0,7.06,3l0.75,0a21.19,21.19,0,0,0,5.36-.94v14.28H302v8.18h2.31l1.2,15.08H293.84v2h34.92ZM361,206.35a7.67,7.67,0,0,1,5.12,1.39,7.65,7.65,0,0,1-5.47,1.64,19.61,19.61,0,0,1-4.77-.81A7.1,7.1,0,0,1,361,206.35Zm-13.21,3a7.67,7.67,0,0,1-5.47-1.64,7.65,7.65,0,0,1,5.12-1.39,7.1,7.1,0,0,1,5.12,2.21A19.6,19.6,0,0,1,347.79,209.37ZM341,226.71h26.43v4.18H341v-4.18Zm2.32,6.26h21.79l-1.19,15h-19.4ZM324,206.35a7.67,7.67,0,0,1,5.12,1.39,7.65,7.65,0,0,1-5.47,1.64,19.62,19.62,0,0,1-4.77-.81A7.11,7.11,0,0,1,324,206.35Zm-13.21,3a7.68,7.68,0,0,1-5.47-1.64,7.66,7.66,0,0,1,5.12-1.39,7.1,7.1,0,0,1,5.12,2.21A19.61,19.61,0,0,1,310.78,209.37ZM304,226.71h26.43v4.18H304v-4.18Zm2.32,6.26h21.79l-1.19,15h-19.4Z"/><path class="cls-1" d="M369.43,167.11H344.18v25.25h25.25V167.11Zm-2,23.25H346.18V169.11h21.25v21.25Z"/><path class="cls-1" d="M387.93,356.49V155.81H371.06l1.25-15.68h2.31v-8.18H360.46V117.7a21.55,21.55,0,0,0,5.24.9l0.75,0a9.2,9.2,0,0,0,7.06-3L374,115l-0.42-.61c-0.09-.12-2.16-3-7.42-2.82a9,9,0,0,0-6.72,3.08,9,9,0,0,0-6.72-3.08c-5.27-.16-7.34,2.7-7.42,2.82l-0.42.61,0.46,0.58a9.19,9.19,0,0,0,7.06,3l0.75,0a21.19,21.19,0,0,0,5.36-.94v14.28H344.19v8.18h2.31l1.25,15.68h-8.53l-59.79,20.36h-1.64v0.56l-7.09,2.41,0.64,1.89,6.44-2.19V356.49H256.24v2H399.49v-2H387.93ZM366.18,113.58A7.62,7.62,0,0,1,371.3,115a7.65,7.65,0,0,1-5.47,1.64,19.62,19.62,0,0,1-4.77-.81A7.11,7.11,0,0,1,366.18,113.58Zm-13.21,3a7.68,7.68,0,0,1-5.46-1.63,7.8,7.8,0,0,1,5.11-1.39,7.1,7.1,0,0,1,5.12,2.21A19.61,19.61,0,0,1,353,116.61Zm-6.79,17.34h26.43v4.18H346.19v-4.18Zm2.32,6.26H370.3l-1.19,15H349.7Zm-68.73,38,59.76-20.35h46.39V356.49H364v-26H326.33v26H279.78V178.15Zm48.55,177.22V332.47h15.86v22.91H328.33Zm17.86,0V332.47H362v22.91H346.18Z"/><path class="cls-1" d="M159.11,101.1a23,23,0,1,0,23,23A23,23,0,0,0,159.11,101.1Zm10.22,36.18H150.74v-4.55L157,126.4q2.68-2.8,3.5-3.83a8.44,8.44,0,0,0,1.15-1.76,3.79,3.79,0,0,0,.32-1.54,2,2,0,0,0-.65-1.58,2.64,2.64,0,0,0-1.82-.58,5,5,0,0,0-2.44.69,17.53,17.53,0,0,0-2.79,2l-3.8-4.45a20.42,20.42,0,0,1,3.33-2.53,11.88,11.88,0,0,1,2.93-1.17,14.5,14.5,0,0,1,3.57-.4,10.76,10.76,0,0,1,4.44.88,7,7,0,0,1,3,2.5,6.42,6.42,0,0,1,1.08,3.63,9.35,9.35,0,0,1-1.54,5.3,17.38,17.38,0,0,1-2.09,2.6q-1.31,1.37-5.56,5.19v0.17h9.69v5.71Z"/><path class="cls-1" d="M27.86,209.67a4.22,4.22,0,0,1-3.3-1.58c-6.78-8.42-18.14-23.85-18.14-32.67a21.45,21.45,0,1,1,42.89,0c0,8.82-11.37,24.25-18.14,32.67A4.22,4.22,0,0,1,27.86,209.67Zm0-53.69A19.47,19.47,0,0,0,8.41,175.42c0,8.51,12.38,24.8,17.7,31.41a2.31,2.31,0,0,0,3.49,0c5.32-6.61,17.7-22.9,17.7-31.41A19.47,19.47,0,0,0,27.86,156Z"/><polygon class="cls-1" points="19.25 174.46 17.25 174.41 17.25 174.21 19.25 174.21 19.25 174.36 19.25 174.46"/><path class="cls-1" d="M27.86,184.83a10.5,10.5,0,1,1,10.61-10.51A10.65,10.65,0,0,1,27.86,184.83Zm0-19a8.5,8.5,0,1,0,8.61,8.49A8.64,8.64,0,0,0,27.86,165.83Z"/><path class="cls-1" d="M81.33,302.59q0,4.78-2.34,7.27t-6.87,2.49q-4.46,0-6.83-2.5t-2.38-7.28q0-4.73,2.36-7.22t6.87-2.49q4.52,0,6.85,2.47T81.33,302.59Zm-13,0q0,5.49,3.82,5.49A3.29,3.29,0,0,0,75,306.75a9.69,9.69,0,0,0,0-8.35A3.25,3.25,0,0,0,72.15,297Q68.3,297,68.3,302.59Z"/><path class="cls-1" d="M89.87,305.19v6.89H84.75V293.15H91q7.72,0,7.72,5.6a5.59,5.59,0,0,1-3.21,5.09l5.52,8.25h-5.8l-4-6.89h-1.3Zm0-3.85h1q2.68,0,2.68-2.37,0-2-2.63-2h-1v4.33Z"/><path class="cls-1" d="M110.31,301h8.18v10.21a22.49,22.49,0,0,1-7.32,1.14,8.85,8.85,0,0,1-6.77-2.54q-2.39-2.54-2.39-7.24a9.51,9.51,0,0,1,2.62-7.14q2.62-2.55,7.33-2.55a16.22,16.22,0,0,1,3.38.34,14.33,14.33,0,0,1,2.77.85l-1.62,4a10,10,0,0,0-4.5-1,4.28,4.28,0,0,0-3.47,1.46,6.3,6.3,0,0,0-1.22,4.17,6.38,6.38,0,0,0,1.11,4,3.84,3.84,0,0,0,3.19,1.39,9.34,9.34,0,0,0,2.1-.22v-3h-3.38v-4Z"/><path class="cls-1" d="M134,312.09L133,308.54h-6.15l-1,3.55H120.3l6.18-19h6.83l6.26,19H134Zm-2-7.75-0.82-3.11q-0.28-1-.69-2.68t-0.54-2.36q-0.12.66-.46,2.18t-1.52,6h4Z"/><path class="cls-1" d="M159.65,312.09h-6.71L146,298.74H145.9q0.25,3.15.25,4.81v8.54h-4.53V293.15h6.69l6.89,13.16h0.08q-0.18-2.86-.18-4.6v-8.56h4.56v18.94Z"/><path class="cls-1" d="M163.74,312.09V293.15h5.14v18.94h-5.14Z"/><path class="cls-1" d="M186.48,312.09H171.72v-3.16l8.2-11.65h-8v-4.13h14.35v3.15L178.07,308h8.41v4.13Z"/><path class="cls-1" d="M200.81,312.09l-0.93-3.55h-6.15l-1,3.55h-5.62l6.18-19h6.83l6.26,19h-5.6Zm-2-7.75L198,301.23q-0.28-1-.69-2.68t-0.54-2.36q-0.12.66-.46,2.18t-1.52,6h4Z"/><path class="cls-1" d="M215.34,312.09V293.15h5.12V308h7.29v4.13H215.34Z"/><path class="cls-1" d="M242.41,312.09l-0.93-3.55h-6.15l-1,3.55h-5.62l6.18-19h6.83l6.26,19h-5.6Zm-2-7.75-0.82-3.11q-0.28-1-.69-2.68t-0.54-2.36q-0.12.66-.46,2.18t-1.52,6h4Z"/><path class="cls-1" d="M71.86,336.41L68,322.77H67.87q0.27,3.48.27,5.42v8.23H63.61V317.47h6.81l4,13.45h0.1l3.87-13.45h6.83v18.94h-4.7v-8.3q0-.65,0-1.44t0.17-3.87H80.55l-3.82,13.62H71.86Z"/><path class="cls-1" d="M100.88,336.41l-0.93-3.55H93.79l-1,3.55H87.21l6.18-19h6.83l6.26,19h-5.6Zm-2-7.75-0.82-3.11q-0.28-1-.69-2.68t-0.54-2.36q-0.12.66-.46,2.18t-1.52,6h4Z"/><path class="cls-1" d="M117,321.39a3.26,3.26,0,0,0-2.85,1.5,7.22,7.22,0,0,0-1,4.13q0,5.47,4.16,5.47a8.5,8.5,0,0,0,2.44-.35,24.46,24.46,0,0,0,2.37-.84v4.33a13.12,13.12,0,0,1-5.36,1,8.48,8.48,0,0,1-6.58-2.49q-2.29-2.49-2.29-7.19a11.47,11.47,0,0,1,1.11-5.17,7.92,7.92,0,0,1,3.19-3.43,9.62,9.62,0,0,1,4.89-1.2,13.48,13.48,0,0,1,5.87,1.33l-1.57,4a17.64,17.64,0,0,0-2.1-.83A7.34,7.34,0,0,0,117,321.39Z"/><path class="cls-1" d="M137,336.41H125.74V317.47H137v4.11h-6.13v3h5.67v4.11h-5.67v3.58H137v4.17Z"/><path class="cls-1" d="M148.66,336.41h-5.12V321.65h-4.62v-4.18h14.35v4.18h-4.61v14.76Z"/><path class="cls-1" d="M167.6,336.41l-0.93-3.55h-6.15l-1,3.55h-5.62l6.18-19h6.83l6.26,19h-5.6Zm-2-7.75-0.82-3.11q-0.28-1-.69-2.68t-0.54-2.36q-0.12.66-.46,2.18t-1.52,6h4Z"/><path class="cls-1" d="M188.9,324.49l3.26-7h5.54L191.48,329v7.4h-5.16v-7.24l-6.23-11.7h5.57Z"/><path class="cls-1" d="M63.61,360.73V341.79h5.12V356.6H76v4.13H63.61Z"/><path class="cls-1" d="M90.67,360.73l-0.93-3.55H83.59l-1,3.55H77l6.18-19H90l6.26,19h-5.6Zm-2-7.75-0.82-3.11q-0.28-1-.69-2.68t-0.54-2.36q-0.12.66-.46,2.18t-1.52,6h4Z"/><path class="cls-1" d="M116.45,360.73H105.21V341.79h11.25v4.11h-6.13v3H116V353h-5.67v3.58h6.13v4.17Z"/><path class="cls-1" d="M137.8,360.73h-6.71l-6.92-13.34h-0.12q0.25,3.15.25,4.81v8.54h-4.53V341.79h6.69L133.35,355h0.08q-0.18-2.86-.18-4.6v-8.56h4.56v18.94Z"/><path class="cls-1" d="M150.25,360.73h-5.12V346h-4.62v-4.18h14.35V346h-4.61v14.76Z"/><path class="cls-1" d="M162.69,353.84v6.89h-5.12V341.79h6.21q7.72,0,7.72,5.6a5.59,5.59,0,0,1-3.21,5.09l5.52,8.25H168l-4-6.89h-1.3Zm0-3.85h1q2.68,0,2.68-2.37,0-2-2.63-2h-1V350Z"/><path class="cls-1" d="M186.77,360.73H175.53V341.79h11.25v4.11h-6.13v3h5.67V353h-5.67v3.58h6.13v4.17Z"/><path class="cls-1" d="M197.7,349.64h8.18v10.21a22.49,22.49,0,0,1-7.32,1.14,8.85,8.85,0,0,1-6.77-2.54q-2.39-2.54-2.39-7.24a9.51,9.51,0,0,1,2.62-7.14q2.62-2.55,7.33-2.55a16.22,16.22,0,0,1,3.38.34,14.33,14.33,0,0,1,2.77.85l-1.62,4a10,10,0,0,0-4.5-1,4.28,4.28,0,0,0-3.47,1.46,6.3,6.3,0,0,0-1.22,4.17,6.38,6.38,0,0,0,1.11,4,3.84,3.84,0,0,0,3.19,1.39,9.34,9.34,0,0,0,2.1-.22v-3H197.7v-4Z"/><path class="cls-1" d="M221.35,360.73l-0.93-3.55h-6.15l-1,3.55h-5.62l6.18-19h6.83l6.26,19h-5.6Zm-2-7.75-0.82-3.11q-0.28-1-.69-2.68t-0.54-2.36q-0.12.66-.46,2.18t-1.52,6h4Z"/><path class="cls-1" d="M64.87,373.68H67l0.32,6H64.55Zm2.39-2.23a1.19,1.19,0,0,1-.34.9,1.4,1.4,0,0,1-1,.32,1.36,1.36,0,0,1-1-.32,1.2,1.2,0,0,1-.33-0.91,1.15,1.15,0,0,1,.34-0.89,1.38,1.38,0,0,1,1-.32,1.41,1.41,0,0,1,1,.32A1.14,1.14,0,0,1,67.26,371.45Z"/><path class="cls-1" d="M70.81,377.56H68.33v-9.88h2.48v9.88Z"/><path class="cls-1" d="M74.69,377.56H72.21v-9.88h2.48v9.88Z"/><path class="cls-1" d="M79.56,377.69a3.86,3.86,0,0,1-2.79-1,3.6,3.6,0,0,1-1-2.72,3.92,3.92,0,0,1,.92-2.8,3.44,3.44,0,0,1,2.63-1,3.49,3.49,0,0,1,2.51.85,3.22,3.22,0,0,1,.89,2.44v1.11H78.28a1.23,1.23,0,0,0,.44.95,1.73,1.73,0,0,0,1.13.34,5.44,5.44,0,0,0,1.2-.12,5.91,5.91,0,0,0,1.19-.42v1.78a4.37,4.37,0,0,1-1.21.41A8.35,8.35,0,0,1,79.56,377.69Zm-1.34-8V369.5q1-1,1.24-1.35c0.18-.2.32-0.38,0.44-0.54h2.72v0.13q-0.51.41-1.4,1t-1.35.91H78.22Zm1.19,2.25a1,1,0,0,0-.73.28,1.3,1.3,0,0,0-.35.87h2.13a1.23,1.23,0,0,0-.29-0.83A1,1,0,0,0,79.41,371.93Z"/><path class="cls-1" d="M85.68,377.56l-2.74-7.19h2.59l1.22,4.25,0,0.11,0,0.18q0,0.11,0,.22a1.61,1.61,0,0,1,0,.22h0a2.55,2.55,0,0,1,.12-0.72l1.28-4.27h2.58l-2.74,7.19H85.68Z"/><path class="cls-1" d="M96.1,377.56l-0.48-1H95.57a2.83,2.83,0,0,1-1,.85,3.38,3.38,0,0,1-1.35.23,2.11,2.11,0,0,1-1.6-.61,2.38,2.38,0,0,1-.58-1.71,2,2,0,0,1,.8-1.71,4.38,4.38,0,0,1,2.32-.63l1.2,0v-0.1a0.78,0.78,0,0,0-.88-0.89,5.24,5.24,0,0,0-2,.53l-0.72-1.64a6.9,6.9,0,0,1,3.17-.65,3.08,3.08,0,0,1,2.14.69,2.45,2.45,0,0,1,.76,1.92v4.72H96.1Zm-1.84-1.62a1.12,1.12,0,0,0,.77-0.29,1,1,0,0,0,.32-0.74v-0.56l-0.57,0q-1.22,0-1.23.9A0.6,0.6,0,0,0,94.26,375.94Z"/><path class="cls-1" d="M102.71,375.73a3.7,3.7,0,0,0,1.2-.25v1.81a4.87,4.87,0,0,1-1,.31,5.4,5.4,0,0,1-1.06.09,2.33,2.33,0,0,1-1.8-.61,2.75,2.75,0,0,1-.55-1.88v-3H98.66v-1l1.11-.78,0.64-1.51H102v1.44h1.76v1.86H102V375A0.61,0.61,0,0,0,102.71,375.73Z"/><path class="cls-1" d="M108.31,377.69a3.86,3.86,0,0,1-2.79-1,3.6,3.6,0,0,1-1-2.72,3.92,3.92,0,0,1,.92-2.8,3.44,3.44,0,0,1,2.63-1,3.49,3.49,0,0,1,2.51.85,3.22,3.22,0,0,1,.89,2.44v1.11H107a1.23,1.23,0,0,0,.44.95,1.73,1.73,0,0,0,1.13.34,5.44,5.44,0,0,0,1.2-.12,5.91,5.91,0,0,0,1.19-.42v1.78a4.37,4.37,0,0,1-1.21.41A8.35,8.35,0,0,1,108.31,377.69Zm-0.15-5.76a1,1,0,0,0-.73.28,1.3,1.3,0,0,0-.35.87h2.13a1.23,1.23,0,0,0-.29-0.83A1,1,0,0,0,108.17,371.93Z"/><path class="cls-1" d="M120.72,377.56l-0.31-.89h-0.15a2,2,0,0,1-.87.76,3,3,0,0,1-1.3.26,2.44,2.44,0,0,1-1.85-.69,2.7,2.7,0,0,1-.66-1.95v-4.68h2.48v3.93a2.25,2.25,0,0,0,.2,1.07,0.69,0.69,0,0,0,.66.36,1,1,0,0,0,.91-0.5,3.85,3.85,0,0,0,.27-1.7v-3.15h2.48v7.19h-1.87Z"/><path class="cls-1" d="M128.52,377.56v-3.92a2.25,2.25,0,0,0-.21-1.08,0.71,0.71,0,0,0-.66-0.37,1,1,0,0,0-.91.5,3.8,3.8,0,0,0-.28,1.72v3.15H124v-7.19h1.87l0.31,0.89h0.15a2,2,0,0,1,.88-0.76,3.1,3.1,0,0,1,1.29-.25,2.45,2.45,0,0,1,1.86.69,2.7,2.7,0,0,1,.66,1.95v4.68h-2.48Z"/><path class="cls-1" d="M139.74,377.69a2.52,2.52,0,0,1-1-.18,2.5,2.5,0,0,1-.86-0.65h-0.11a9.16,9.16,0,0,1,.11.94v2.89h-2.48V370.37h2l0.35,0.91h0.11a2.18,2.18,0,0,1,1.91-1,2.15,2.15,0,0,1,1.87,1,4.74,4.74,0,0,1,.68,2.72,4.67,4.67,0,0,1-.71,2.74A2.23,2.23,0,0,1,139.74,377.69Zm-0.83-5.5a0.8,0.8,0,0,0-.76.39,2.55,2.55,0,0,0-.24,1.16v0.2a2.73,2.73,0,0,0,.25,1.34,0.84,0.84,0,0,0,.78.41,0.73,0.73,0,0,0,.69-0.41,3.09,3.09,0,0,0,.22-1.35,3,3,0,0,0-.22-1.33A0.75,0.75,0,0,0,138.91,372.19Z"/><path class="cls-1" d="M150.33,374a3.81,3.81,0,0,1-.95,2.75,3.51,3.51,0,0,1-2.66,1,3.44,3.44,0,0,1-2.61-1,4.37,4.37,0,0,1,0-5.46,3.55,3.55,0,0,1,2.66-1,3.79,3.79,0,0,1,1.87.45,3.08,3.08,0,0,1,1.25,1.29A4.17,4.17,0,0,1,150.33,374Zm-4.66,0a3.2,3.2,0,0,0,.25,1.41,0.86,0.86,0,0,0,.83.49,0.84,0.84,0,0,0,.82-0.49,3.32,3.32,0,0,0,.24-1.41,3.13,3.13,0,0,0-.24-1.39,1,1,0,0,0-1.64,0A3.07,3.07,0,0,0,145.67,374Z"/><path class="cls-1" d="M155.76,370.25a3.56,3.56,0,0,1,.62.05l0.14,0-0.22,2.34a3.66,3.66,0,0,0-.84-0.08,1.61,1.61,0,0,0-1.18.37,1.46,1.46,0,0,0-.37,1.07v3.54h-2.48v-7.19h1.85l0.39,1.15h0.12a2.49,2.49,0,0,1,.87-0.92A2.08,2.08,0,0,1,155.76,370.25Z"/><path class="cls-1" d="M160.47,377.69a3.53,3.53,0,0,1-2.68-1,3.8,3.8,0,0,1-.91-2.74,3.42,3.42,0,0,1,3.78-3.76,5.25,5.25,0,0,1,2.35.54l-0.73,1.83a8,8,0,0,0-.83-0.31,2.68,2.68,0,0,0-.79-0.12,1.07,1.07,0,0,0-.93.47,2.28,2.28,0,0,0-.33,1.33q0,1.73,1.28,1.73a3.86,3.86,0,0,0,2.09-.63v2A4.08,4.08,0,0,1,160.47,377.69Z"/><path class="cls-1" d="M167.35,377.69a3.86,3.86,0,0,1-2.79-1,3.6,3.6,0,0,1-1-2.72,3.92,3.92,0,0,1,.92-2.8,3.44,3.44,0,0,1,2.63-1,3.49,3.49,0,0,1,2.51.85,3.22,3.22,0,0,1,.89,2.44v1.11h-4.44a1.23,1.23,0,0,0,.44.95,1.73,1.73,0,0,0,1.13.34,5.44,5.44,0,0,0,1.2-.12,5.91,5.91,0,0,0,1.19-.42v1.78a4.37,4.37,0,0,1-1.21.41A8.35,8.35,0,0,1,167.35,377.69Zm-0.15-5.76a1,1,0,0,0-.73.28,1.3,1.3,0,0,0-.35.87h2.13a1.23,1.23,0,0,0-.29-0.83A1,1,0,0,0,167.2,371.93Z"/><path class="cls-1" d="M176.12,377.56v-3.92a2.25,2.25,0,0,0-.21-1.08,0.71,0.71,0,0,0-.66-0.37,1,1,0,0,0-.91.5,3.8,3.8,0,0,0-.28,1.72v3.15h-2.48v-7.19h1.87l0.31,0.89h0.15a2,2,0,0,1,.88-0.76,3.1,3.1,0,0,1,1.29-.25,2.45,2.45,0,0,1,1.86.69,2.7,2.7,0,0,1,.66,1.95v4.68h-2.48Z"/><path class="cls-1" d="M183.49,375.73a3.7,3.7,0,0,0,1.2-.25v1.81a4.87,4.87,0,0,1-1,.31,5.4,5.4,0,0,1-1.06.09,2.33,2.33,0,0,1-1.8-.61,2.75,2.75,0,0,1-.55-1.88v-3h-0.87v-1l1.11-.78,0.64-1.51h1.63v1.44h1.76v1.86h-1.76V375A0.61,0.61,0,0,0,183.49,375.73Z"/><path class="cls-1" d="M190.31,377.56l-0.48-1h-0.05a2.83,2.83,0,0,1-1,.85,3.38,3.38,0,0,1-1.35.23,2.11,2.11,0,0,1-1.6-.61,2.38,2.38,0,0,1-.58-1.71,2,2,0,0,1,.8-1.71,4.38,4.38,0,0,1,2.32-.63l1.2,0v-0.1a0.78,0.78,0,0,0-.88-0.89,5.24,5.24,0,0,0-2,.53L186,370.89a6.9,6.9,0,0,1,3.17-.65,3.08,3.08,0,0,1,2.14.69,2.45,2.45,0,0,1,.76,1.92v4.72h-1.72Zm-1.84-1.62a1.12,1.12,0,0,0,.77-0.29,1,1,0,0,0,.32-0.74v-0.56l-0.57,0q-1.22,0-1.23.9A0.6,0.6,0,0,0,188.47,375.94Z"/><path class="cls-1" d="M193.21,380.69a5.87,5.87,0,0,1-.7,0,4.63,4.63,0,0,1-.63-0.11v-1.94a2.82,2.82,0,0,0,.76.11q0.76,0,.76-1.08v-7.25h2.48v7.78a2.48,2.48,0,0,1-.7,1.86A2.71,2.71,0,0,1,193.21,380.69Zm0.12-12.11a1,1,0,0,1,.31-0.83,2,2,0,0,1,2,0,1,1,0,0,1,.32.82A1.34,1.34,0,0,1,193.33,368.58Z"/><path class="cls-1" d="M200.76,377.69a3.86,3.86,0,0,1-2.79-1,3.6,3.6,0,0,1-1-2.72,3.92,3.92,0,0,1,.92-2.8,3.44,3.44,0,0,1,2.63-1,3.49,3.49,0,0,1,2.51.85,3.22,3.22,0,0,1,.89,2.44v1.11h-4.44a1.23,1.23,0,0,0,.44.95,1.73,1.73,0,0,0,1.13.34,5.44,5.44,0,0,0,1.2-.12,5.91,5.91,0,0,0,1.19-.42v1.78a4.37,4.37,0,0,1-1.21.41A8.35,8.35,0,0,1,200.76,377.69Zm-0.15-5.76a1,1,0,0,0-.73.28,1.3,1.3,0,0,0-.35.87h2.13a1.23,1.23,0,0,0-.29-0.83A1,1,0,0,0,200.61,371.93Z"/><path class="cls-1" d="M210.29,377.69a2.16,2.16,0,0,1-1.34-.44,2.78,2.78,0,0,1-.89-1.29,5.71,5.71,0,0,1-.31-2,4.67,4.67,0,0,1,.7-2.74,2.25,2.25,0,0,1,1.94-1,2.23,2.23,0,0,1,1.06.24,2.34,2.34,0,0,1,.83.81h0.05a11.82,11.82,0,0,1-.12-1.69v-1.92h2.5v9.88h-1.87l-0.53-.91h-0.1A2.1,2.1,0,0,1,210.29,377.69Zm1-2a0.93,0.93,0,0,0,.84-0.37,2.25,2.25,0,0,0,.26-1.16V374a2.52,2.52,0,0,0-.27-1.36,1,1,0,0,0-.86-0.4,0.84,0.84,0,0,0-.76.46,2.62,2.62,0,0,0-.27,1.31,2.44,2.44,0,0,0,.27,1.28A0.87,0.87,0,0,0,211.3,375.73Z"/><path class="cls-1" d="M219.56,377.69a3.86,3.86,0,0,1-2.79-1,3.6,3.6,0,0,1-1-2.72,3.92,3.92,0,0,1,.92-2.8,3.44,3.44,0,0,1,2.63-1,3.49,3.49,0,0,1,2.51.85,3.22,3.22,0,0,1,.89,2.44v1.11h-4.44a1.23,1.23,0,0,0,.44.95,1.73,1.73,0,0,0,1.13.34,5.44,5.44,0,0,0,1.2-.12,5.91,5.91,0,0,0,1.19-.42v1.78a4.37,4.37,0,0,1-1.21.41A8.35,8.35,0,0,1,219.56,377.69Zm-0.15-5.76a1,1,0,0,0-.73.28,1.3,1.3,0,0,0-.35.87h2.13a1.23,1.23,0,0,0-.29-0.83A1,1,0,0,0,219.41,371.93Z"/><path class="cls-1" d="M226.28,377.56H223.8v-9.88h2.48v9.88Z"/><path class="cls-1" d="M234.25,375.73a3.7,3.7,0,0,0,1.2-.25v1.81a4.87,4.87,0,0,1-1,.31,5.4,5.4,0,0,1-1.06.09,2.33,2.33,0,0,1-1.8-.61,2.75,2.75,0,0,1-.55-1.88v-3h-0.87v-1l1.11-.78,0.64-1.51h1.63v1.44h1.76v1.86h-1.76V375A0.61,0.61,0,0,0,234.25,375.73Z"/><path class="cls-1" d="M243.25,374a3.81,3.81,0,0,1-.95,2.75,3.51,3.51,0,0,1-2.66,1,3.44,3.44,0,0,1-2.61-1,4.37,4.37,0,0,1,0-5.46,3.55,3.55,0,0,1,2.66-1,3.79,3.79,0,0,1,1.87.45,3.08,3.08,0,0,1,1.25,1.29A4.17,4.17,0,0,1,243.25,374Zm-4.66,0a3.2,3.2,0,0,0,.25,1.41,0.86,0.86,0,0,0,.83.49,0.84,0.84,0,0,0,.82-0.49,3.32,3.32,0,0,0,.24-1.41,3.13,3.13,0,0,0-.24-1.39,1,1,0,0,0-1.64,0A3.07,3.07,0,0,0,238.59,374Z"/><path class="cls-1" d="M247.86,375.73a3.7,3.7,0,0,0,1.2-.25v1.81a4.87,4.87,0,0,1-1,.31,5.4,5.4,0,0,1-1.06.09,2.33,2.33,0,0,1-1.8-.61,2.75,2.75,0,0,1-.55-1.88v-3h-0.87v-1l1.11-.78,0.64-1.51h1.63v1.44H249v1.86h-1.76V375A0.61,0.61,0,0,0,247.86,375.73Z"/><path class="cls-1" d="M254.68,377.56l-0.48-1h-0.05a2.83,2.83,0,0,1-1,.85,3.38,3.38,0,0,1-1.35.23,2.11,2.11,0,0,1-1.6-.61,2.38,2.38,0,0,1-.58-1.71,2,2,0,0,1,.8-1.71,4.38,4.38,0,0,1,2.32-.63l1.2,0v-0.1A0.78,0.78,0,0,0,253,372a5.24,5.24,0,0,0-2,.53l-0.72-1.64a6.9,6.9,0,0,1,3.17-.65,3.08,3.08,0,0,1,2.14.69,2.45,2.45,0,0,1,.76,1.92v4.72h-1.72Zm-1.84-1.62a1.12,1.12,0,0,0,.77-0.29,1,1,0,0,0,.32-0.74v-0.56l-0.57,0q-1.22,0-1.23.9A0.6,0.6,0,0,0,252.84,375.94Z"/><path class="cls-1" d="M260.25,377.56h-2.48v-9.88h2.48v9.88Z"/><path class="cls-1" d="M266.93,377.69a2.16,2.16,0,0,1-1.34-.44,2.78,2.78,0,0,1-.89-1.29,5.71,5.71,0,0,1-.31-2,4.67,4.67,0,0,1,.7-2.74,2.25,2.25,0,0,1,1.94-1,2.23,2.23,0,0,1,1.06.24,2.34,2.34,0,0,1,.83.81H269a11.82,11.82,0,0,1-.12-1.69v-1.92h2.5v9.88h-1.87l-0.53-.91h-0.1A2.1,2.1,0,0,1,266.93,377.69Zm1-2a0.93,0.93,0,0,0,.84-0.37,2.25,2.25,0,0,0,.26-1.16V374a2.52,2.52,0,0,0-.27-1.36,1,1,0,0,0-.86-0.4,0.84,0.84,0,0,0-.76.46,2.62,2.62,0,0,0-.27,1.31,2.44,2.44,0,0,0,.27,1.28A0.87,0.87,0,0,0,267.95,375.73Z"/><path class="cls-1" d="M276.2,377.69a3.86,3.86,0,0,1-2.79-1,3.6,3.6,0,0,1-1-2.72,3.92,3.92,0,0,1,.92-2.8,3.44,3.44,0,0,1,2.63-1,3.49,3.49,0,0,1,2.51.85,3.22,3.22,0,0,1,.89,2.44v1.11h-4.44a1.23,1.23,0,0,0,.44.95,1.73,1.73,0,0,0,1.13.34,5.44,5.44,0,0,0,1.2-.12,5.91,5.91,0,0,0,1.19-.42v1.78a4.37,4.37,0,0,1-1.21.41A8.35,8.35,0,0,1,276.2,377.69Zm-0.15-5.76a1,1,0,0,0-.73.28,1.3,1.3,0,0,0-.35.87h2.13a1.23,1.23,0,0,0-.29-0.83A1,1,0,0,0,276.06,371.93Z"/><path class="cls-1" d="M286,377.56H283.5v-9.88H286v9.88Z"/><path class="cls-1" d="M292.06,377.56l-0.48-1h-0.05a2.83,2.83,0,0,1-1,.85,3.38,3.38,0,0,1-1.35.23,2.11,2.11,0,0,1-1.6-.61,2.38,2.38,0,0,1-.58-1.71,2,2,0,0,1,.8-1.71,4.38,4.38,0,0,1,2.32-.63l1.2,0v-0.1a0.78,0.78,0,0,0-.88-0.89,5.24,5.24,0,0,0-2,.53l-0.72-1.64a6.9,6.9,0,0,1,3.17-.65,3.08,3.08,0,0,1,2.14.69,2.45,2.45,0,0,1,.76,1.92v4.72h-1.72Zm-1.84-1.62a1.12,1.12,0,0,0,.77-0.29,1,1,0,0,0,.32-0.74v-0.56l-0.57,0q-1.22,0-1.23.9A0.6,0.6,0,0,0,290.22,375.94Z"/><path class="cls-1" d="M300.7,375.36a2,2,0,0,1-.79,1.75,3.72,3.72,0,0,1-2.26.59,9.72,9.72,0,0,1-1.39-.09,5.88,5.88,0,0,1-1.21-.31v-2a7.55,7.55,0,0,0,1.27.42,5.32,5.32,0,0,0,1.23.17q0.81,0,.81-0.37a0.42,0.42,0,0,0-.22-0.34,10.37,10.37,0,0,0-1.31-.58,3.27,3.27,0,0,1-1.38-.92,2.11,2.11,0,0,1-.39-1.31,1.81,1.81,0,0,1,.77-1.56,3.7,3.7,0,0,1,2.19-.56,5.53,5.53,0,0,1,1.34.16,7.88,7.88,0,0,1,1.3.45l-0.67,1.6a7.5,7.5,0,0,0-1-.38,3.49,3.49,0,0,0-.9-0.16c-0.41,0-.61.1-0.61,0.3a0.37,0.37,0,0,0,.21.31,11.54,11.54,0,0,0,1.23.53,4.69,4.69,0,0,1,1.13.61,1.81,1.81,0,0,1,.55.7A2.47,2.47,0,0,1,300.7,375.36Z"/><path class="cls-1" d="M306.69,377.56l-2.74-7.19h2.59l1.22,4.25,0,0.11,0,0.18q0,0.11,0,.22a1.61,1.61,0,0,1,0,.22h0a2.55,2.55,0,0,1,.12-0.72l1.28-4.27h2.58l-2.74,7.19h-2.46Z"/><path class="cls-1" d="M315.89,377.69a3.86,3.86,0,0,1-2.79-1,3.6,3.6,0,0,1-1-2.72,3.92,3.92,0,0,1,.92-2.8,3.44,3.44,0,0,1,2.63-1,3.49,3.49,0,0,1,2.51.85,3.22,3.22,0,0,1,.89,2.44v1.11h-4.44a1.23,1.23,0,0,0,.44.95,1.73,1.73,0,0,0,1.13.34,5.44,5.44,0,0,0,1.2-.12,5.91,5.91,0,0,0,1.19-.42v1.78a4.37,4.37,0,0,1-1.21.41A8.35,8.35,0,0,1,315.89,377.69Zm-0.15-5.76a1,1,0,0,0-.73.28,1.3,1.3,0,0,0-.35.87h2.13a1.23,1.23,0,0,0-.29-0.83A1,1,0,0,0,315.75,371.93Z"/><path class="cls-1" d="M324.67,377.56v-3.92a2.25,2.25,0,0,0-.21-1.08,0.71,0.71,0,0,0-.66-0.37,1,1,0,0,0-.91.5,3.8,3.8,0,0,0-.28,1.72v3.15h-2.48v-7.19H322l0.31,0.89h0.15a2,2,0,0,1,.88-0.76,3.1,3.1,0,0,1,1.29-.25,2.45,2.45,0,0,1,1.86.69,2.7,2.7,0,0,1,.66,1.95v4.68h-2.48Z"/><path class="cls-1" d="M332,375.73a3.7,3.7,0,0,0,1.2-.25v1.81a4.87,4.87,0,0,1-1,.31,5.4,5.4,0,0,1-1.06.09,2.33,2.33,0,0,1-1.8-.61,2.75,2.75,0,0,1-.55-1.88v-3H328v-1l1.11-.78,0.64-1.51h1.63v1.44h1.76v1.86h-1.76V375A0.61,0.61,0,0,0,332,375.73Z"/><path class="cls-1" d="M338.86,377.56l-0.48-1h-0.05a2.83,2.83,0,0,1-1,.85,3.38,3.38,0,0,1-1.35.23,2.11,2.11,0,0,1-1.6-.61,2.38,2.38,0,0,1-.58-1.71,2,2,0,0,1,.8-1.71,4.38,4.38,0,0,1,2.32-.63l1.2,0v-0.1a0.78,0.78,0,0,0-.88-0.89,5.24,5.24,0,0,0-2,.53l-0.72-1.64a6.9,6.9,0,0,1,3.17-.65,3.08,3.08,0,0,1,2.14.69,2.45,2.45,0,0,1,.76,1.92v4.72h-1.72ZM337,375.94a1.12,1.12,0,0,0,.77-0.29,1,1,0,0,0,.32-0.74v-0.56l-0.57,0q-1.22,0-1.23.9A0.6,0.6,0,0,0,337,375.94Z"/><path class="cls-1" d="M347.5,375.36a2,2,0,0,1-.79,1.75,3.72,3.72,0,0,1-2.26.59,9.72,9.72,0,0,1-1.39-.09,5.88,5.88,0,0,1-1.21-.31v-2a7.55,7.55,0,0,0,1.27.42,5.32,5.32,0,0,0,1.23.17q0.81,0,.81-0.37a0.42,0.42,0,0,0-.22-0.34,10.37,10.37,0,0,0-1.31-.58,3.27,3.27,0,0,1-1.38-.92,2.11,2.11,0,0,1-.39-1.31,1.81,1.81,0,0,1,.77-1.56,3.7,3.7,0,0,1,2.19-.56,5.53,5.53,0,0,1,1.34.16,7.88,7.88,0,0,1,1.3.45l-0.67,1.6a7.5,7.5,0,0,0-1-.38,3.49,3.49,0,0,0-.9-0.16c-0.41,0-.61.1-0.61,0.3a0.37,0.37,0,0,0,.21.31,11.54,11.54,0,0,0,1.23.53,4.69,4.69,0,0,1,1.13.61,1.81,1.81,0,0,1,.55.7A2.47,2.47,0,0,1,347.5,375.36Z"/><path class="cls-1" d="M350.64,374.29h-2.1l-0.32-6H351Zm-2.39,2.22a1.17,1.17,0,0,1,.34-0.9,1.41,1.41,0,0,1,1-.32,1.36,1.36,0,0,1,1,.32,1.19,1.19,0,0,1,.33.9,1.16,1.16,0,0,1-.35.89,1.37,1.37,0,0,1-1,.32,1.42,1.42,0,0,1-1-.32A1.14,1.14,0,0,1,348.24,376.51Z"/></svg>