<svg id="Capa_1" data-name="Capa 1" xmlns="http://www.w3.org/2000/svg" viewBox="0 0 132.55 199.78"><defs><style>.cls-1{fill:#fff;}</style></defs><title>Sin título-1</title><path class="cls-1" d="M10.61,169.29a4.69,4.69,0,0,1-1.55,3.79,6.62,6.62,0,0,1-4.41,1.31H3.26v5.46H0V164.5H4.9a6.53,6.53,0,0,1,4.25,1.2A4.39,4.39,0,0,1,10.61,169.29Zm-7.35,2.44H4.33a3.56,3.56,0,0,0,2.25-.59,2.08,2.08,0,0,0,.75-1.73,2.13,2.13,0,0,0-.62-1.69,2.93,2.93,0,0,0-2-.55H3.26v4.56Z"/><path class="cls-1" d="M16.76,174v5.89H13.51V164.5H18a7.66,7.66,0,0,1,4.63,1.14,4.54,4.54,0,0,1,.76,5.87,4.93,4.93,0,0,1-2.11,1.65q3.47,5.18,4.52,6.69H22.16L18.49,174H16.76Zm0-2.65h1a4,4,0,0,0,2.28-.51,1.84,1.84,0,0,0,.74-1.62,1.68,1.68,0,0,0-.75-1.55,4.55,4.55,0,0,0-2.33-.46h-1v4.15Z"/><path class="cls-1" d="M41.64,172.16A8.33,8.33,0,0,1,39.75,178a7,7,0,0,1-5.42,2,7,7,0,0,1-5.42-2A8.36,8.36,0,0,1,27,172.14a8.25,8.25,0,0,1,1.9-5.85,7.09,7.09,0,0,1,5.43-2,7,7,0,0,1,5.41,2A8.35,8.35,0,0,1,41.64,172.16Zm-11.21,0a6.41,6.41,0,0,0,1,3.88,3.42,3.42,0,0,0,2.92,1.3q3.9,0,3.9-5.18T34.35,167a3.44,3.44,0,0,0-2.93,1.31A6.39,6.39,0,0,0,30.44,172.16Z"/><path class="cls-1" d="M57.56,172a7.56,7.56,0,0,1-2.16,5.81,8.8,8.8,0,0,1-6.23,2H44.82V164.5h4.82a8.12,8.12,0,0,1,5.84,2A7.3,7.3,0,0,1,57.56,172Zm-3.38.08q0-4.95-4.37-4.95H48.08v10h1.4Q54.18,177.17,54.18,172.12Z"/><path class="cls-1" d="M73.24,164.5v9.94a5.73,5.73,0,0,1-.76,3,5,5,0,0,1-2.2,2,7.87,7.87,0,0,1-3.4.68,6.52,6.52,0,0,1-4.6-1.52,5.39,5.39,0,0,1-1.64-4.15V164.5h3.25v9.4a3.93,3.93,0,0,0,.71,2.6,3,3,0,0,0,2.36.83,2.9,2.9,0,0,0,2.32-.83,4,4,0,0,0,.72-2.62V164.5h3.25Z"/><path class="cls-1" d="M83.52,167a3.32,3.32,0,0,0-2.85,1.38,6.43,6.43,0,0,0-1,3.85q0,5.13,3.85,5.13a12.16,12.16,0,0,0,3.92-.81v2.73a10.9,10.9,0,0,1-4.22.79,6.44,6.44,0,0,1-5.12-2,8.61,8.61,0,0,1-1.77-5.83,9.52,9.52,0,0,1,.87-4.2,6.3,6.3,0,0,1,2.5-2.76,7.41,7.41,0,0,1,3.83-1,10.34,10.34,0,0,1,4.5,1.08L87,168a17.34,17.34,0,0,0-1.73-.71A5.17,5.17,0,0,0,83.52,167Z"/><path class="cls-1" d="M96.63,179.86H93.38V167.21H89.21V164.5H100.8v2.71H96.63v12.64Z"/><path class="cls-1" d="M117.1,172.16a8.33,8.33,0,0,1-1.89,5.86,8.19,8.19,0,0,1-10.84,0,8.36,8.36,0,0,1-1.89-5.88,8.25,8.25,0,0,1,1.9-5.85,7.09,7.09,0,0,1,5.43-2,7,7,0,0,1,5.41,2A8.35,8.35,0,0,1,117.1,172.16Zm-11.21,0a6.41,6.41,0,0,0,1,3.88,3.42,3.42,0,0,0,2.92,1.3q3.9,0,3.9-5.18T109.81,167a3.44,3.44,0,0,0-2.93,1.31A6.39,6.39,0,0,0,105.9,172.16Z"/><path class="cls-1" d="M123.54,174v5.89h-3.26V164.5h4.47a7.66,7.66,0,0,1,4.63,1.14,4.54,4.54,0,0,1,.76,5.87,4.93,4.93,0,0,1-2.11,1.65q3.47,5.18,4.52,6.69h-3.61L125.27,174h-1.73Zm0-2.65h1a4,4,0,0,0,2.28-.51,1.84,1.84,0,0,0,.74-1.62,1.68,1.68,0,0,0-.75-1.55,4.55,4.55,0,0,0-2.33-.46h-1v4.15Z"/><path class="cls-1" d="M32.26,199.57V184.22h3.26v12.67h6.23v2.69H32.26Z"/><path class="cls-1" d="M58.35,191.88a8.33,8.33,0,0,1-1.89,5.86,7,7,0,0,1-5.42,2,7,7,0,0,1-5.42-2,8.36,8.36,0,0,1-1.89-5.88,8.25,8.25,0,0,1,1.9-5.85,7.09,7.09,0,0,1,5.43-2,7,7,0,0,1,5.41,2A8.35,8.35,0,0,1,58.35,191.88Zm-11.21,0a6.41,6.41,0,0,0,1,3.88,3.42,3.42,0,0,0,2.92,1.3q3.9,0,3.9-5.18t-3.88-5.19A3.44,3.44,0,0,0,48.13,188,6.39,6.39,0,0,0,47.14,191.88Z"/><path class="cls-1" d="M68,186.71a3.32,3.32,0,0,0-2.85,1.38,6.43,6.43,0,0,0-1,3.85q0,5.13,3.85,5.13a12.16,12.16,0,0,0,3.92-.81V199a10.9,10.9,0,0,1-4.22.79,6.44,6.44,0,0,1-5.12-2,8.61,8.61,0,0,1-1.77-5.83,9.52,9.52,0,0,1,.87-4.2,6.3,6.3,0,0,1,2.5-2.76A7.41,7.41,0,0,1,68,184a10.34,10.34,0,0,1,4.5,1.08l-1,2.65a17.34,17.34,0,0,0-1.73-.71A5.17,5.17,0,0,0,68,186.71Z"/><path class="cls-1" d="M84.63,199.57l-1.11-3.66h-5.6l-1.11,3.66H73.3l5.42-15.42h4l5.44,15.42H84.63Zm-1.89-6.39q-1.54-5-1.74-5.62t-0.28-1q-0.35,1.34-2,6.65h4Z"/><path class="cls-1" d="M90.07,199.57V184.22h3.26v12.67h6.23v2.69H90.07Z"/><path class="cls-1" d="M87,71.87c-0.2-.28-5-6.91-17.54-6.52a21.35,21.35,0,0,0-16,7.29V55.4H54c17.1,0,28.6-9.91,28.6-24.66v-0.1l-1-.05h1.08v0l0-.12c0-.38-0.05-0.75-0.07-1.12h0A18.65,18.65,0,0,0,55,14.06V8.76a28,28,0,0,0,8.58,1.66c0.37,0,.72,0,1.07,0a13,13,0,0,0,10-4.28l0.46-.58L74.71,5c-0.12-.17-3-4.19-10.53-4A12.87,12.87,0,0,0,55,5V0H53V14.06A18.65,18.65,0,0,0,25.44,29.31h0c0,0.26,0,.53,0,0.8,0,0.1,0,.21,0,0.31v0.31c0,14,10.38,23.66,26.1,24.58V73a21.27,21.27,0,0,0-16.26-7.65C22.66,65,17.9,71.59,17.7,71.87l-0.42.61,0.46,0.58c0.24,0.3,5.75,7.11,16.71,7.11q0.88,0,1.81-.06c8.68-.58,13.3-2.21,15.25-3.11V95.94H26.25v12.91h4L32.67,139H72l2.39-30.15h4V95.94h-25V77.15c2.11,0.91,6.7,2.42,15,3,0.62,0,1.22.06,1.81,0.06,11,0,16.47-6.81,16.71-7.11l0.46-.58ZM64.25,3C69,2.87,71.51,4.6,72.53,5.54a11.61,11.61,0,0,1-8.81,2.89A26.87,26.87,0,0,1,55.92,7,10.79,10.79,0,0,1,64.25,3ZM27.41,30.7v-0.1c0-.39,0-0.78,0-1.16a16.65,16.65,0,0,1,26-12.76L54,17.05l0.56-.38a16.65,16.65,0,0,1,26,12.75c0,0.39,0,.78,0,1.17v0.15C80.6,46.4,67.24,53.4,54,53.4S27.4,46.4,27.41,30.7ZM70.19,137H34.51l-2.23-28H72.42Zm6.26-30.15H28.25V97.94h48.2v8.91ZM36.12,78.12a20.81,20.81,0,0,1-16.27-5.71c1.43-1.53,6-5.36,15.33-5.06s14,5.69,15.49,7.84C48.93,76,44.51,77.56,36.12,78.12Zm32.47,0c-8.38-.56-12.8-2.14-14.53-2.92a19.33,19.33,0,0,1,15.48-7.84c9.36-.3,13.9,3.54,15.33,5.06A20.73,20.73,0,0,1,68.59,78.12Z"/><path class="cls-1" d="M64.34,32.19h-2a8.41,8.41,0,0,1-16.82,0h-2A10.41,10.41,0,0,0,64.34,32.19Z"/></svg>