<svg id="Capa_1" data-name="Capa 1" xmlns="http://www.w3.org/2000/svg" viewBox="0 0 149.81 192.9"><defs><style>.cls-1{fill:#feeb17;}</style></defs><title>Sin título-1</title><path class="cls-1" d="M6.9,173.39a10.9,10.9,0,0,0,4.22-.79v-2.73a12.16,12.16,0,0,1-3.92.81q-3.85,0-3.85-5.13a6.43,6.43,0,0,1,1-3.85,3.32,3.32,0,0,1,2.85-1.38,5.17,5.17,0,0,1,1.71.3,17.34,17.34,0,0,1,1.73.71l1-2.65a10.34,10.34,0,0,0-4.5-1.08,7.41,7.41,0,0,0-3.83,1,6.3,6.3,0,0,0-2.5,2.76,9.52,9.52,0,0,0-.87,4.2,8.61,8.61,0,0,0,1.77,5.83A6.44,6.44,0,0,0,6.9,173.39Z"/><path class="cls-1" d="M21,173.39a7,7,0,0,0,5.42-2,10.06,10.06,0,0,0,0-11.72,7,7,0,0,0-5.41-2,7.09,7.09,0,0,0-5.43,2,8.25,8.25,0,0,0-1.9,5.85,8.36,8.36,0,0,0,1.89,5.88A7,7,0,0,0,21,173.39Zm-2.91-11.79A3.44,3.44,0,0,1,21,160.3q3.88,0,3.88,5.19T21,170.66a3.42,3.42,0,0,1-2.92-1.3A8.15,8.15,0,0,1,18.11,161.61Z"/><path class="cls-1" d="M34.42,166q0-1.31-.2-4.39h0.09L41,173.18h4.14V157.83H42.2v7.27q0,1.24.16,4.23H42.28l-6.67-11.5H31.51v15.35h2.91V166Z"/><path class="cls-1" d="M54.29,170.3a2.8,2.8,0,0,1-1.64.41,7.81,7.81,0,0,1-2-.28,17.88,17.88,0,0,1-2.63-1v3a9.78,9.78,0,0,0,4.35.92,6.5,6.5,0,0,0,4.16-1.2,4,4,0,0,0,1.5-3.28,4,4,0,0,0-.8-2.54,8.21,8.21,0,0,0-3-2.06,19.64,19.64,0,0,1-2.06-1.08,2.19,2.19,0,0,1-.63-0.62,1.38,1.38,0,0,1-.2-0.75,1.42,1.42,0,0,1,.49-1.12,2.09,2.09,0,0,1,1.42-.43,6.55,6.55,0,0,1,1.58.2,15.35,15.35,0,0,1,2,.7L58,158.69a15.71,15.71,0,0,0-2.27-.8,9,9,0,0,0-2.28-.28,5.74,5.74,0,0,0-3.82,1.17,4,4,0,0,0-1.38,3.2,4,4,0,0,0,.42,1.89,4.77,4.77,0,0,0,1.12,1.42,9.42,9.42,0,0,0,2.11,1.27,19,19,0,0,1,2,1,2.81,2.81,0,0,1,.74.68,1.34,1.34,0,0,1,.25.8A1.4,1.4,0,0,1,54.29,170.3Z"/><path class="cls-1" d="M72.58,170.75a5.73,5.73,0,0,0,.76-3v-9.94H70.09v9.38a4,4,0,0,1-.72,2.62,2.9,2.9,0,0,1-2.32.83,3,3,0,0,1-2.36-.83,3.93,3.93,0,0,1-.71-2.6v-9.4H60.73v9.89a5.39,5.39,0,0,0,1.64,4.15,6.52,6.52,0,0,0,4.6,1.52,7.87,7.87,0,0,0,3.4-.68A5,5,0,0,0,72.58,170.75Z"/><path class="cls-1" d="M90.54,161.16h0.09q-0.13,2.9-.14,3.57t0,1.19v7.27h3V157.83H89.08l-3.85,11.74H85.16l-3.63-11.74H77.1v15.35H80V166q0-1.23-.2-4.9H79.9l3.7,12h3Z"/><rect class="cls-1" x="97.38" y="157.83" width="3.26" height="15.35"/><path class="cls-1" d="M109.32,157.83H104.5v15.35h4.35a8.8,8.8,0,0,0,6.23-2,7.56,7.56,0,0,0,2.16-5.81,7.3,7.3,0,0,0-2.08-5.54A8.12,8.12,0,0,0,109.32,157.83Zm-0.17,12.67h-1.4v-10h1.73q4.37,0,4.37,4.95T109.15,170.5Z"/><path class="cls-1" d="M134.36,165.49a8.35,8.35,0,0,0-1.87-5.86,7,7,0,0,0-5.41-2,7.09,7.09,0,0,0-5.43,2,8.25,8.25,0,0,0-1.9,5.85,8.36,8.36,0,0,0,1.89,5.88,8.19,8.19,0,0,0,10.84,0A8.33,8.33,0,0,0,134.36,165.49ZM127,170.66a3.42,3.42,0,0,1-2.92-1.3,8.15,8.15,0,0,1,0-7.76,3.44,3.44,0,0,1,2.93-1.31q3.88,0,3.88,5.19T127,170.66Z"/><path class="cls-1" d="M140.79,167.29h1.73l3.67,5.89h3.61q-1.05-1.51-4.52-6.69a4.93,4.93,0,0,0,2.11-1.65,4.54,4.54,0,0,0-.76-5.87,7.66,7.66,0,0,0-4.63-1.14h-4.47v15.35h3.26v-5.89Zm0-6.79h1a4.55,4.55,0,0,1,2.33.46,1.68,1.68,0,0,1,.75,1.55,1.84,1.84,0,0,1-.74,1.62,4,4,0,0,1-2.28.51h-1V160.5Z"/><path class="cls-1" d="M10.54,184.56a4.54,4.54,0,0,0-.76-5.87,7.66,7.66,0,0,0-4.63-1.14H0.68V192.9H3.94V187H5.67l3.67,5.89h3.61q-1.05-1.51-4.52-6.69A4.93,4.93,0,0,0,10.54,184.56Zm-3.28-.71a4,4,0,0,1-2.28.51h-1v-4.15h1a4.55,4.55,0,0,1,2.33.46A1.68,1.68,0,0,1,8,182.23,1.84,1.84,0,0,1,7.27,183.85Z"/><polygon class="cls-1" points="14.88 192.9 23.73 192.9 23.73 190.21 18.14 190.21 18.14 186.25 23.34 186.25 23.34 183.59 18.14 183.59 18.14 180.22 23.73 180.22 23.73 177.55 14.88 177.55 14.88 192.9"/><path class="cls-1" d="M32.24,184A19.64,19.64,0,0,1,30.18,183a2.19,2.19,0,0,1-.63-0.62,1.38,1.38,0,0,1-.2-0.75,1.42,1.42,0,0,1,.49-1.12,2.09,2.09,0,0,1,1.42-.43,6.55,6.55,0,0,1,1.58.2,15.35,15.35,0,0,1,2,.7l1.05-2.53a15.71,15.71,0,0,0-2.27-.8,9,9,0,0,0-2.28-.28,5.74,5.74,0,0,0-3.82,1.17,4,4,0,0,0-1.38,3.2,4,4,0,0,0,.42,1.89A4.77,4.77,0,0,0,27.71,185a9.42,9.42,0,0,0,2.11,1.27,19,19,0,0,1,2,1,2.81,2.81,0,0,1,.74.68,1.34,1.34,0,0,1,.25.8,1.4,1.4,0,0,1-.57,1.22,2.8,2.8,0,0,1-1.64.41,7.81,7.81,0,0,1-2-.28,17.88,17.88,0,0,1-2.63-1v3a9.78,9.78,0,0,0,4.35.92,6.5,6.5,0,0,0,4.16-1.2,4,4,0,0,0,1.5-3.28,4,4,0,0,0-.8-2.54A8.21,8.21,0,0,0,32.24,184Z"/><path class="cls-1" d="M43.68,177.55h-4.9V192.9H42v-5.46h1.4a6.62,6.62,0,0,0,4.41-1.31,4.69,4.69,0,0,0,1.55-3.79,4.39,4.39,0,0,0-1.46-3.59A6.53,6.53,0,0,0,43.68,177.55Zm1.67,6.63a3.56,3.56,0,0,1-2.25.59H42v-4.56h1.48a2.93,2.93,0,0,1,2,.55,2.13,2.13,0,0,1,.63,1.69A2.08,2.08,0,0,1,45.35,184.18Z"/><path class="cls-1" d="M58.93,177.31a7.09,7.09,0,0,0-5.43,2,8.25,8.25,0,0,0-1.9,5.85,8.36,8.36,0,0,0,1.89,5.88,7,7,0,0,0,5.42,2,7,7,0,0,0,5.42-2,10.06,10.06,0,0,0,0-11.72A7,7,0,0,0,58.93,177.31Zm0,13.08a3.42,3.42,0,0,1-2.92-1.3,8.15,8.15,0,0,1,0-7.76A3.44,3.44,0,0,1,58.93,180q3.88,0,3.88,5.19T58.91,190.38Z"/><path class="cls-1" d="M80.09,184.81q0,1.24.16,4.23H80.17l-6.67-11.5H69.4V192.9h2.91v-7.23q0-1.31-.2-4.39H72.2l6.68,11.62H83V177.55H80.09v7.27Z"/><path class="cls-1" d="M92.2,184A19.64,19.64,0,0,1,90.14,183a2.19,2.19,0,0,1-.63-0.62,1.38,1.38,0,0,1-.2-0.75,1.42,1.42,0,0,1,.49-1.12,2.09,2.09,0,0,1,1.42-.43,6.55,6.55,0,0,1,1.58.2,15.35,15.35,0,0,1,2,.7l1.05-2.53a15.71,15.71,0,0,0-2.27-.8,9,9,0,0,0-2.28-.28,5.74,5.74,0,0,0-3.82,1.17,4,4,0,0,0-1.38,3.2,4,4,0,0,0,.42,1.89A4.77,4.77,0,0,0,87.66,185a9.42,9.42,0,0,0,2.11,1.27,19,19,0,0,1,2,1,2.81,2.81,0,0,1,.74.68,1.34,1.34,0,0,1,.25.8,1.4,1.4,0,0,1-.57,1.22,2.8,2.8,0,0,1-1.64.41,7.81,7.81,0,0,1-2-.28,17.88,17.88,0,0,1-2.63-1v3a9.78,9.78,0,0,0,4.35.92,6.5,6.5,0,0,0,4.16-1.2,4,4,0,0,0,1.5-3.28,4,4,0,0,0-.8-2.54A8.21,8.21,0,0,0,92.2,184Z"/><path class="cls-1" d="M102.22,177.48L96.8,192.9h3.51l1.11-3.66H107l1.11,3.66h3.51l-5.44-15.42h-4Zm0,9q1.64-5.3,2-6.65,0.08,0.38.28,1t1.74,5.62h-4Z"/><path class="cls-1" d="M122.21,184.86v-0.1a2.58,2.58,0,0,0,1.72-1.06,3.72,3.72,0,0,0,.65-2.26,3.24,3.24,0,0,0-1.48-3,9.21,9.21,0,0,0-4.74-.93h-4.78V192.9h5.74a6.57,6.57,0,0,0,4.12-1.18,3.91,3.91,0,0,0,1.52-3.28,4,4,0,0,0-.65-2.37A3.38,3.38,0,0,0,122.21,184.86Zm-5.38-4.64h1.71a4.16,4.16,0,0,1,2,.38,1.36,1.36,0,0,1,.65,1.27,1.53,1.53,0,0,1-.59,1.35,3.45,3.45,0,0,1-1.92.41h-1.89v-3.41Zm4.11,9.48a3.15,3.15,0,0,1-2,.51h-2.12v-4h2q2.73,0,2.73,1.91A1.9,1.9,0,0,1,120.93,189.7Z"/><polygon class="cls-1" points="131.28 177.55 128.02 177.55 128.02 192.9 137.51 192.9 137.51 190.21 131.28 190.21 131.28 177.55"/><polygon class="cls-1" points="140.18 192.9 149.02 192.9 149.02 190.21 143.43 190.21 143.43 186.25 148.63 186.25 148.63 183.59 143.43 183.59 143.43 180.22 149.02 180.22 149.02 177.55 140.18 177.55 140.18 192.9"/><path class="cls-1" d="M62.75,78.58q0.92,0,1.89-.06c9.16-.61,14-2.35,16-3.27V95.13H54.23v13.41h4.2L60.93,140H102l2.5-31.51h4.2V95.13H82.62V75.38c2.16,0.95,7,2.55,15.67,3.13q1,0.06,1.89.06c11.43,0,17.18-7.1,17.43-7.42l0.46-.58L117.65,70c-0.21-.29-5.17-7.21-18.29-6.79a22.26,22.26,0,0,0-16.73,7.7V55.1a27.63,27.63,0,1,0-2,0V71.26c-2.33-2.89-7.62-7.78-17-8.08-13.11-.43-18.09,6.5-18.29,6.79l-0.42.61,0.46,0.58C45.57,71.48,51.32,78.58,62.75,78.58ZM100.15,138H62.78l-2.33-29.37h42Zm6.55-31.51H56.23V97.13H106.7v9.41ZM99.42,65.18c9.87-.33,14.62,3.76,16.08,5.33a21.7,21.7,0,0,1-17.07,6c-8.84-.59-13.47-2.27-15.25-3.08A20.24,20.24,0,0,1,99.42,65.18ZM55.67,27.63A25.51,25.51,0,1,1,81.19,53.14,25.54,25.54,0,0,1,55.67,27.63Zm7.84,37.55c9.83,0.32,14.72,6,16.25,8.26-1.77.81-6.4,2.49-15.26,3.08a21.76,21.76,0,0,1-17.07-6C48.9,68.93,53.66,64.85,63.51,65.18Z"/><path class="cls-1" d="M96.46,31.38L95,30a27.82,27.82,0,0,1-3.82,3.21l-7-6.38-2.46,9.6h0c-0.24,0-.48,0-0.72,0-7.43-.3-12.65-6.33-12.71-6.39l-1.52,1.29c0.23,0.28,5.81,6.75,14.13,7.09h0.68C86.82,38.42,91.78,36.05,96.46,31.38Zm-11.08-.85,4.08,3.75a16.46,16.46,0,0,1-5.55,2Z"/></svg>