<svg id="Capa_1" data-name="Capa 1" xmlns="http://www.w3.org/2000/svg" viewBox="0 0 113.51 190.83"><defs><style>.cls-1{fill:#be1818;}</style></defs><title>Sin título-1</title><path class="cls-1" d="M6.5,190.62l-3.7-12H2.71q0.2,3.68.2,4.9v7.14H0V175.26H4.43L8.07,187H8.13L12,175.26h4.43v15.35h-3v-7.27q0-.51,0-1.19t0.14-3.57H13.44l-4,12h-3Z"/><path class="cls-1" d="M29.68,190.62L28.57,187H23l-1.11,3.66H18.35l5.42-15.42h4l5.44,15.42H29.68Zm-1.89-6.39q-1.54-5-1.74-5.62t-0.28-1q-0.35,1.34-2,6.65h4Z"/><path class="cls-1" d="M41.64,177.75a3.32,3.32,0,0,0-2.85,1.38,6.43,6.43,0,0,0-1,3.85q0,5.13,3.85,5.13a12.16,12.16,0,0,0,3.92-.81V190a10.9,10.9,0,0,1-4.22.79,6.44,6.44,0,0,1-5.12-2A8.61,8.61,0,0,1,34.44,183a9.52,9.52,0,0,1,.87-4.2,6.3,6.3,0,0,1,2.5-2.76,7.41,7.41,0,0,1,3.83-1,10.34,10.34,0,0,1,4.5,1.08l-1,2.65a17.34,17.34,0,0,0-1.73-.71A5.17,5.17,0,0,0,41.64,177.75Z"/><path class="cls-1" d="M57.67,190.62H48.83V175.26h8.84v2.67H52.08v3.37h5.2V184h-5.2v4h5.59v2.69Z"/><path class="cls-1" d="M66.79,190.62H63.54V178H59.37v-2.71H71V178H66.79v12.64Z"/><path class="cls-1" d="M82.17,190.62H73.33V175.26h8.84v2.67H76.58v3.37h5.2V184h-5.2v4h5.59v2.69Z"/><path class="cls-1" d="M88.63,184.73v5.89H85.37V175.26h4.47a7.66,7.66,0,0,1,4.63,1.14,4.54,4.54,0,0,1,.76,5.87,4.93,4.93,0,0,1-2.11,1.65q3.47,5.18,4.52,6.69H94l-3.67-5.89H88.63Zm0-2.65h1a4,4,0,0,0,2.28-.51,1.84,1.84,0,0,0,.74-1.62,1.68,1.68,0,0,0-.75-1.55,4.55,4.55,0,0,0-2.33-.46h-1v4.15Z"/><path class="cls-1" d="M113.51,182.92a8.33,8.33,0,0,1-1.89,5.86,8.19,8.19,0,0,1-10.84,0,8.36,8.36,0,0,1-1.89-5.88,8.25,8.25,0,0,1,1.9-5.85,7.09,7.09,0,0,1,5.43-2,7,7,0,0,1,5.41,2A8.35,8.35,0,0,1,113.51,182.92Zm-11.21,0a6.41,6.41,0,0,0,1,3.88,3.42,3.42,0,0,0,2.92,1.3q3.9,0,3.9-5.18t-3.88-5.19a3.44,3.44,0,0,0-2.93,1.31A6.39,6.39,0,0,0,102.3,182.92Z"/><path class="cls-1" d="M78.73,140H32.84l-3-37.23h51.8Zm-44-2H76.88l2.64-33.23H32Z"/><path class="cls-1" d="M86.24,104.61H25.32V89.8H86.24v14.81Zm-58.92-2H84.24V91.8H27.32v10.81Z"/><path class="cls-1" d="M74.54,41H37L34.6,10.5H77ZM38.87,39H72.69L74.8,12.5h-38Z"/><path class="cls-1" d="M80.64,12.37H30.92V0H80.64V12.37Zm-47.72-2H78.64V2H32.92v8.37Z"/><path class="cls-1" d="M34.77,71C22,71,15.57,63,15.29,62.68l-0.46-.58,0.42-.61c0.23-.33,5.77-8,20.44-7.57S56.12,64.83,56.35,65.28l0.43,0.8-0.75.5c-0.21.14-5.22,3.39-19.15,4.31Q35.79,71,34.77,71ZM17.4,62A24.56,24.56,0,0,0,36.74,68.9C47,68.22,52.16,66.27,54,65.38a22.91,22.91,0,0,0-18.42-9.46C24.5,55.57,19,60.33,17.4,62Z"/><path class="cls-1" d="M76.8,71q-1,0-2.11-.07C60.76,70,55.75,66.72,55.54,66.58l-0.75-.5,0.43-.8c0.24-.44,6-10.88,20.66-11.36s20.21,7.24,20.44,7.57l0.42,0.61-0.46.58C96,63,89.58,71,76.8,71Zm-19.28-5.6c1.91,0.89,7.13,2.85,17.3,3.53,11,0.73,17.51-5,19.34-6.86-1.59-1.71-7.06-6.47-18.23-6.12S59.18,63,57.52,65.37Z"/><rect class="cls-1" x="54.96" y="40.89" width="2" height="49.91"/><path class="cls-1" d="M56.39,32.45a12.06,12.06,0,0,1-12-12h2a10,10,0,1,0,20.09,0h2A12.06,12.06,0,0,1,56.39,32.45Z"/></svg>