<svg id="Capa_1" data-name="Capa 1" xmlns="http://www.w3.org/2000/svg" viewBox="0 0 102.07 38"><defs><style>.cls-1{fill:#feeb17;}</style></defs><title>assets</title><path class="cls-1" d="M62.13,1.75l1.53,1.79a18.33,18.33,0,0,0,13,5c5.13,0,10-1.79,13-4.86l1.53-2A6.91,6.91,0,0,0,93,0H89.83V0.43L88.26,2.25A16.45,16.45,0,0,1,76.63,6.71c-4.64,0-9-1.57-11.63-4.3l-1.56-2V0H60.3A7.11,7.11,0,0,0,62.13,1.75Z"/><path class="cls-1" d="M12.64,3.75c3,3.08,7.84,4.92,13,4.92s10-1.84,13-4.92l1.51-2A7.58,7.58,0,0,0,41.94,0H38.81s0,0.45,0,.46L37.24,2.25A16.45,16.45,0,0,1,25.61,6.71c-4.64,0-9-1.57-11.63-4.3l-1.55-2V0H9.28a7.13,7.13,0,0,0,1.83,1.75Z"/><path class="cls-1" d="M12.32,38A18.34,18.34,0,0,0,0,33.74V35.6c3.72,0,6.74.4,9.28,2.4h3.13Z"/><path class="cls-1" d="M89.87,38l0,0H93c2.54-2,5.69-2.42,9.11-2.42l-0.07,0V33.74h0.07A18.39,18.39,0,0,0,89.87,38Z"/><path class="cls-1" d="M63.4,38a18.59,18.59,0,0,0-12.28-4.25A18.55,18.55,0,0,0,38.82,38h3.12c2.54-2,5.76-2.44,9.18-2.44S57.76,36,60.3,38h3.13Z"/><path class="cls-1" d="M12.64,21.52c3,3.08,7.84,4.92,13,4.92s10-1.84,13-4.92L40.08,20a16.7,16.7,0,0,1,11-3.79,16.74,16.74,0,0,1,11,3.76l1.53,1.58c3,3.08,7.84,4.92,13,4.92s10-1.84,13-4.92l1.53-1.67A17.11,17.11,0,0,1,102.26,16H102V14h0.26a18.86,18.86,0,0,0-12.33,4.41s-0.06.11-.08,0.13l-1.57,1.65c-2.65,2.73-7,4.37-11.64,4.37s-9-1.62-11.63-4.34l-1.56-1.6-0.05,0a18.59,18.59,0,0,0-12.28-4.25,18.55,18.55,0,0,0-12.3,4.29l0,0-1.53,1.58c-2.65,2.73-7,4.35-11.63,4.35s-9-1.63-11.63-4.35l-1.55-1.6-0.1,0A18.35,18.35,0,0,0,0,14.31v1.86a16.79,16.79,0,0,1,11.06,3.76Z"/></svg>