<svg id="Capa_1" data-name="Capa 1" xmlns="http://www.w3.org/2000/svg" viewBox="0 0 50.93 51.04"><defs><style>.cls-1{fill:#fff;}</style></defs><title>Sin título-1</title><path class="cls-1" d="M50.93,51H0V0.11H50.93V51ZM2.74,48.3H48.18V2.86H2.74V48.3Z"/><rect class="cls-1" x="30.19" y="15.97" width="19.52" height="2.74"/><rect class="cls-1" x="1.22" y="15.97" width="18.45" height="2.74"/><path class="cls-1" d="M25.46,17.54A11.09,11.09,0,1,1,14.37,28.63,11.09,11.09,0,0,1,25.46,17.54m0-2.74A13.83,13.83,0,1,0,39.3,28.63,13.85,13.85,0,0,0,25.46,14.79h0Z"/><path class="cls-1" d="M41.17,14.6a5.18,5.18,0,1,1,5.18-5.18A5.19,5.19,0,0,1,41.17,14.6Zm0-7.62a2.44,2.44,0,1,0,2.44,2.44A2.44,2.44,0,0,0,41.17,7Z"/><rect class="cls-1" x="4.57" y="1.64" width="2.74" height="11.28"/><rect class="cls-1" x="9.15" y="1.64" width="2.74" height="11.28"/><rect class="cls-1" x="13.72" y="1.64" width="2.74" height="11.28"/></svg>